M48
; DRILL file {KiCad 8.0.8} date 2025-01-25T17:36:29-0800
; FORMAT={-:-/ absolute / inch / decimal}
; #@! TF.CreationDate,2025-01-25T17:36:29-08:00
; #@! TF.GenerationSoftware,Kicad,Pcbnew,8.0.8
; #@! TF.FileFunction,Plated,1,2,PTH
FMAT,2
INCH
; #@! TA.AperFunction,Plated,PTH,ComponentDrill
T1C0.0500
; #@! TA.AperFunction,Plated,PTH,ComponentDrill
T2C0.0600
%
G90
G05
T1
X1.252Y-1.1268
X1.252Y-5.9378
X2.7346Y-1.1181
X2.7346Y-5.9291
X4.0102Y-1.1173
X4.0102Y-5.9283
X4.8512Y-1.1173
X4.8512Y-5.9283
X5.7102Y-1.1146
X5.7102Y-5.9256
X7.1906Y-1.1169
X7.1906Y-5.928
X9.451Y-1.1376
X9.451Y-5.9465
T2
X1.127Y-1.0018
X1.127Y-1.2518
X1.127Y-5.8128
X1.127Y-6.0628
X1.377Y-1.0018
X1.377Y-1.2518
X1.377Y-5.8128
X1.377Y-6.0628
X2.6096Y-0.9931
X2.6096Y-1.2431
X2.6096Y-5.8041
X2.6096Y-6.0541
X2.8596Y-0.9931
X2.8596Y-1.2431
X2.8596Y-5.8041
X2.8596Y-6.0541
X3.8852Y-0.9923
X3.8852Y-1.2423
X3.8852Y-5.8033
X3.8852Y-6.0533
X4.1352Y-0.9923
X4.1352Y-1.2423
X4.1352Y-5.8033
X4.1352Y-6.0533
X4.7262Y-0.9923
X4.7262Y-1.2423
X4.7262Y-5.8033
X4.7262Y-6.0533
X4.9762Y-0.9923
X4.9762Y-1.2423
X4.9762Y-5.8033
X4.9762Y-6.0533
X5.5852Y-0.9896
X5.5852Y-1.2396
X5.5852Y-5.8006
X5.5852Y-6.0506
X5.8352Y-0.9896
X5.8352Y-1.2396
X5.8352Y-5.8006
X5.8352Y-6.0506
X7.0656Y-0.9919
X7.0656Y-1.2419
X7.0656Y-5.803
X7.0656Y-6.053
X7.3156Y-0.9919
X7.3156Y-1.2419
X7.3156Y-5.803
X7.3156Y-6.053
X9.326Y-1.0126
X9.326Y-1.2626
X9.326Y-5.8215
X9.326Y-6.0715
X9.576Y-1.0126
X9.576Y-1.2626
X9.576Y-5.8215
X9.576Y-6.0715
M30
