%TF.GenerationSoftware,KiCad,Pcbnew,8.0.8*%
%TF.CreationDate,2025-01-25T17:36:21-08:00*%
%TF.ProjectId,labs_board,6c616273-5f62-46f6-9172-642e6b696361,rev?*%
%TF.SameCoordinates,Original*%
%TF.FileFunction,Legend,Top*%
%TF.FilePolarity,Positive*%
%FSLAX46Y46*%
G04 Gerber Fmt 4.6, Leading zero omitted, Abs format (unit mm)*
G04 Created by KiCad (PCBNEW 8.0.8) date 2025-01-25 17:36:21*
%MOMM*%
%LPD*%
G01*
G04 APERTURE LIST*
%ADD10C,0.150000*%
%ADD11C,0.120000*%
G04 APERTURE END LIST*
D10*
X238995476Y-144244819D02*
X238995476Y-144959104D01*
X238995476Y-144959104D02*
X238947857Y-145101961D01*
X238947857Y-145101961D02*
X238852619Y-145197200D01*
X238852619Y-145197200D02*
X238709762Y-145244819D01*
X238709762Y-145244819D02*
X238614524Y-145244819D01*
X239995476Y-145244819D02*
X239424048Y-145244819D01*
X239709762Y-145244819D02*
X239709762Y-144244819D01*
X239709762Y-144244819D02*
X239614524Y-144387676D01*
X239614524Y-144387676D02*
X239519286Y-144482914D01*
X239519286Y-144482914D02*
X239424048Y-144530533D01*
X240852619Y-144578152D02*
X240852619Y-145244819D01*
X240614524Y-144197200D02*
X240376429Y-144911485D01*
X240376429Y-144911485D02*
X240995476Y-144911485D01*
X238995476Y-22099819D02*
X238995476Y-22814104D01*
X238995476Y-22814104D02*
X238947857Y-22956961D01*
X238947857Y-22956961D02*
X238852619Y-23052200D01*
X238852619Y-23052200D02*
X238709762Y-23099819D01*
X238709762Y-23099819D02*
X238614524Y-23099819D01*
X239995476Y-23099819D02*
X239424048Y-23099819D01*
X239709762Y-23099819D02*
X239709762Y-22099819D01*
X239709762Y-22099819D02*
X239614524Y-22242676D01*
X239614524Y-22242676D02*
X239519286Y-22337914D01*
X239519286Y-22337914D02*
X239424048Y-22385533D01*
X240328810Y-22099819D02*
X240947857Y-22099819D01*
X240947857Y-22099819D02*
X240614524Y-22480771D01*
X240614524Y-22480771D02*
X240757381Y-22480771D01*
X240757381Y-22480771D02*
X240852619Y-22528390D01*
X240852619Y-22528390D02*
X240900238Y-22576009D01*
X240900238Y-22576009D02*
X240947857Y-22671247D01*
X240947857Y-22671247D02*
X240947857Y-22909342D01*
X240947857Y-22909342D02*
X240900238Y-23004580D01*
X240900238Y-23004580D02*
X240852619Y-23052200D01*
X240852619Y-23052200D02*
X240757381Y-23099819D01*
X240757381Y-23099819D02*
X240471667Y-23099819D01*
X240471667Y-23099819D02*
X240376429Y-23052200D01*
X240376429Y-23052200D02*
X240328810Y-23004580D01*
D11*
%TO.C,J14*%
X244805000Y-149290000D02*
G75*
G02*
X244818589Y-152752663I-4750000J-1750000D01*
G01*
X241805000Y-155790000D02*
G75*
G02*
X238342337Y-155803589I-1750000J4750000D01*
G01*
X238305000Y-146290000D02*
G75*
G02*
X241767663Y-146276411I1749999J-4749999D01*
G01*
X235305000Y-152790000D02*
G75*
G02*
X235291411Y-149327337I4749999J1749999D01*
G01*
%TO.C,J13*%
X235305000Y-30645000D02*
G75*
G02*
X235291411Y-27182337I4749999J1749999D01*
G01*
X238305000Y-24145000D02*
G75*
G02*
X241767663Y-24131411I1749999J-4749999D01*
G01*
X241805000Y-33645000D02*
G75*
G02*
X238342337Y-33658589I-1750000J4750000D01*
G01*
X244805000Y-27145000D02*
G75*
G02*
X244818589Y-30607663I-4750000J-1750000D01*
G01*
%TD*%
M02*
