%TF.GenerationSoftware,KiCad,Pcbnew,8.0.8*%
%TF.CreationDate,2025-01-25T17:36:21-08:00*%
%TF.ProjectId,labs_board,6c616273-5f62-46f6-9172-642e6b696361,rev?*%
%TF.SameCoordinates,Original*%
%TF.FileFunction,Legend,Bot*%
%TF.FilePolarity,Positive*%
%FSLAX46Y46*%
G04 Gerber Fmt 4.6, Leading zero omitted, Abs format (unit mm)*
G04 Created by KiCad (PCBNEW 8.0.8) date 2025-01-25 17:36:21*
%MOMM*%
%LPD*%
G01*
G04 APERTURE LIST*
%ADD10C,0.150000*%
%ADD11C,0.120000*%
G04 APERTURE END LIST*
D10*
X32383333Y-21824819D02*
X32383333Y-22539104D01*
X32383333Y-22539104D02*
X32430952Y-22681961D01*
X32430952Y-22681961D02*
X32526190Y-22777200D01*
X32526190Y-22777200D02*
X32669047Y-22824819D01*
X32669047Y-22824819D02*
X32764285Y-22824819D01*
X31383333Y-22824819D02*
X31954761Y-22824819D01*
X31669047Y-22824819D02*
X31669047Y-21824819D01*
X31669047Y-21824819D02*
X31764285Y-21967676D01*
X31764285Y-21967676D02*
X31859523Y-22062914D01*
X31859523Y-22062914D02*
X31954761Y-22110533D01*
X32383333Y-144024819D02*
X32383333Y-144739104D01*
X32383333Y-144739104D02*
X32430952Y-144881961D01*
X32430952Y-144881961D02*
X32526190Y-144977200D01*
X32526190Y-144977200D02*
X32669047Y-145024819D01*
X32669047Y-145024819D02*
X32764285Y-145024819D01*
X31954761Y-144120057D02*
X31907142Y-144072438D01*
X31907142Y-144072438D02*
X31811904Y-144024819D01*
X31811904Y-144024819D02*
X31573809Y-144024819D01*
X31573809Y-144024819D02*
X31478571Y-144072438D01*
X31478571Y-144072438D02*
X31430952Y-144120057D01*
X31430952Y-144120057D02*
X31383333Y-144215295D01*
X31383333Y-144215295D02*
X31383333Y-144310533D01*
X31383333Y-144310533D02*
X31430952Y-144453390D01*
X31430952Y-144453390D02*
X32002380Y-145024819D01*
X32002380Y-145024819D02*
X31383333Y-145024819D01*
X70043333Y-21604819D02*
X70043333Y-22319104D01*
X70043333Y-22319104D02*
X70090952Y-22461961D01*
X70090952Y-22461961D02*
X70186190Y-22557200D01*
X70186190Y-22557200D02*
X70329047Y-22604819D01*
X70329047Y-22604819D02*
X70424285Y-22604819D01*
X69662380Y-21604819D02*
X69043333Y-21604819D01*
X69043333Y-21604819D02*
X69376666Y-21985771D01*
X69376666Y-21985771D02*
X69233809Y-21985771D01*
X69233809Y-21985771D02*
X69138571Y-22033390D01*
X69138571Y-22033390D02*
X69090952Y-22081009D01*
X69090952Y-22081009D02*
X69043333Y-22176247D01*
X69043333Y-22176247D02*
X69043333Y-22414342D01*
X69043333Y-22414342D02*
X69090952Y-22509580D01*
X69090952Y-22509580D02*
X69138571Y-22557200D01*
X69138571Y-22557200D02*
X69233809Y-22604819D01*
X69233809Y-22604819D02*
X69519523Y-22604819D01*
X69519523Y-22604819D02*
X69614761Y-22557200D01*
X69614761Y-22557200D02*
X69662380Y-22509580D01*
X70043333Y-143804819D02*
X70043333Y-144519104D01*
X70043333Y-144519104D02*
X70090952Y-144661961D01*
X70090952Y-144661961D02*
X70186190Y-144757200D01*
X70186190Y-144757200D02*
X70329047Y-144804819D01*
X70329047Y-144804819D02*
X70424285Y-144804819D01*
X69138571Y-144138152D02*
X69138571Y-144804819D01*
X69376666Y-143757200D02*
X69614761Y-144471485D01*
X69614761Y-144471485D02*
X68995714Y-144471485D01*
X123803333Y-21584819D02*
X123803333Y-22299104D01*
X123803333Y-22299104D02*
X123850952Y-22441961D01*
X123850952Y-22441961D02*
X123946190Y-22537200D01*
X123946190Y-22537200D02*
X124089047Y-22584819D01*
X124089047Y-22584819D02*
X124184285Y-22584819D01*
X122850952Y-21584819D02*
X123327142Y-21584819D01*
X123327142Y-21584819D02*
X123374761Y-22061009D01*
X123374761Y-22061009D02*
X123327142Y-22013390D01*
X123327142Y-22013390D02*
X123231904Y-21965771D01*
X123231904Y-21965771D02*
X122993809Y-21965771D01*
X122993809Y-21965771D02*
X122898571Y-22013390D01*
X122898571Y-22013390D02*
X122850952Y-22061009D01*
X122850952Y-22061009D02*
X122803333Y-22156247D01*
X122803333Y-22156247D02*
X122803333Y-22394342D01*
X122803333Y-22394342D02*
X122850952Y-22489580D01*
X122850952Y-22489580D02*
X122898571Y-22537200D01*
X122898571Y-22537200D02*
X122993809Y-22584819D01*
X122993809Y-22584819D02*
X123231904Y-22584819D01*
X123231904Y-22584819D02*
X123327142Y-22537200D01*
X123327142Y-22537200D02*
X123374761Y-22489580D01*
X123803333Y-143784819D02*
X123803333Y-144499104D01*
X123803333Y-144499104D02*
X123850952Y-144641961D01*
X123850952Y-144641961D02*
X123946190Y-144737200D01*
X123946190Y-144737200D02*
X124089047Y-144784819D01*
X124089047Y-144784819D02*
X124184285Y-144784819D01*
X122898571Y-143784819D02*
X123089047Y-143784819D01*
X123089047Y-143784819D02*
X123184285Y-143832438D01*
X123184285Y-143832438D02*
X123231904Y-143880057D01*
X123231904Y-143880057D02*
X123327142Y-144022914D01*
X123327142Y-144022914D02*
X123374761Y-144213390D01*
X123374761Y-144213390D02*
X123374761Y-144594342D01*
X123374761Y-144594342D02*
X123327142Y-144689580D01*
X123327142Y-144689580D02*
X123279523Y-144737200D01*
X123279523Y-144737200D02*
X123184285Y-144784819D01*
X123184285Y-144784819D02*
X122993809Y-144784819D01*
X122993809Y-144784819D02*
X122898571Y-144737200D01*
X122898571Y-144737200D02*
X122850952Y-144689580D01*
X122850952Y-144689580D02*
X122803333Y-144594342D01*
X122803333Y-144594342D02*
X122803333Y-144356247D01*
X122803333Y-144356247D02*
X122850952Y-144261009D01*
X122850952Y-144261009D02*
X122898571Y-144213390D01*
X122898571Y-144213390D02*
X122993809Y-144165771D01*
X122993809Y-144165771D02*
X123184285Y-144165771D01*
X123184285Y-144165771D02*
X123279523Y-144213390D01*
X123279523Y-144213390D02*
X123327142Y-144261009D01*
X123327142Y-144261009D02*
X123374761Y-144356247D01*
X145623333Y-21514819D02*
X145623333Y-22229104D01*
X145623333Y-22229104D02*
X145670952Y-22371961D01*
X145670952Y-22371961D02*
X145766190Y-22467200D01*
X145766190Y-22467200D02*
X145909047Y-22514819D01*
X145909047Y-22514819D02*
X146004285Y-22514819D01*
X145242380Y-21514819D02*
X144575714Y-21514819D01*
X144575714Y-21514819D02*
X145004285Y-22514819D01*
X145623333Y-143714819D02*
X145623333Y-144429104D01*
X145623333Y-144429104D02*
X145670952Y-144571961D01*
X145670952Y-144571961D02*
X145766190Y-144667200D01*
X145766190Y-144667200D02*
X145909047Y-144714819D01*
X145909047Y-144714819D02*
X146004285Y-144714819D01*
X145004285Y-144143390D02*
X145099523Y-144095771D01*
X145099523Y-144095771D02*
X145147142Y-144048152D01*
X145147142Y-144048152D02*
X145194761Y-143952914D01*
X145194761Y-143952914D02*
X145194761Y-143905295D01*
X145194761Y-143905295D02*
X145147142Y-143810057D01*
X145147142Y-143810057D02*
X145099523Y-143762438D01*
X145099523Y-143762438D02*
X145004285Y-143714819D01*
X145004285Y-143714819D02*
X144813809Y-143714819D01*
X144813809Y-143714819D02*
X144718571Y-143762438D01*
X144718571Y-143762438D02*
X144670952Y-143810057D01*
X144670952Y-143810057D02*
X144623333Y-143905295D01*
X144623333Y-143905295D02*
X144623333Y-143952914D01*
X144623333Y-143952914D02*
X144670952Y-144048152D01*
X144670952Y-144048152D02*
X144718571Y-144095771D01*
X144718571Y-144095771D02*
X144813809Y-144143390D01*
X144813809Y-144143390D02*
X145004285Y-144143390D01*
X145004285Y-144143390D02*
X145099523Y-144191009D01*
X145099523Y-144191009D02*
X145147142Y-144238628D01*
X145147142Y-144238628D02*
X145194761Y-144333866D01*
X145194761Y-144333866D02*
X145194761Y-144524342D01*
X145194761Y-144524342D02*
X145147142Y-144619580D01*
X145147142Y-144619580D02*
X145099523Y-144667200D01*
X145099523Y-144667200D02*
X145004285Y-144714819D01*
X145004285Y-144714819D02*
X144813809Y-144714819D01*
X144813809Y-144714819D02*
X144718571Y-144667200D01*
X144718571Y-144667200D02*
X144670952Y-144619580D01*
X144670952Y-144619580D02*
X144623333Y-144524342D01*
X144623333Y-144524342D02*
X144623333Y-144333866D01*
X144623333Y-144333866D02*
X144670952Y-144238628D01*
X144670952Y-144238628D02*
X144718571Y-144191009D01*
X144718571Y-144191009D02*
X144813809Y-144143390D01*
X183223333Y-21574819D02*
X183223333Y-22289104D01*
X183223333Y-22289104D02*
X183270952Y-22431961D01*
X183270952Y-22431961D02*
X183366190Y-22527200D01*
X183366190Y-22527200D02*
X183509047Y-22574819D01*
X183509047Y-22574819D02*
X183604285Y-22574819D01*
X182699523Y-22574819D02*
X182509047Y-22574819D01*
X182509047Y-22574819D02*
X182413809Y-22527200D01*
X182413809Y-22527200D02*
X182366190Y-22479580D01*
X182366190Y-22479580D02*
X182270952Y-22336723D01*
X182270952Y-22336723D02*
X182223333Y-22146247D01*
X182223333Y-22146247D02*
X182223333Y-21765295D01*
X182223333Y-21765295D02*
X182270952Y-21670057D01*
X182270952Y-21670057D02*
X182318571Y-21622438D01*
X182318571Y-21622438D02*
X182413809Y-21574819D01*
X182413809Y-21574819D02*
X182604285Y-21574819D01*
X182604285Y-21574819D02*
X182699523Y-21622438D01*
X182699523Y-21622438D02*
X182747142Y-21670057D01*
X182747142Y-21670057D02*
X182794761Y-21765295D01*
X182794761Y-21765295D02*
X182794761Y-22003390D01*
X182794761Y-22003390D02*
X182747142Y-22098628D01*
X182747142Y-22098628D02*
X182699523Y-22146247D01*
X182699523Y-22146247D02*
X182604285Y-22193866D01*
X182604285Y-22193866D02*
X182413809Y-22193866D01*
X182413809Y-22193866D02*
X182318571Y-22146247D01*
X182318571Y-22146247D02*
X182270952Y-22098628D01*
X182270952Y-22098628D02*
X182223333Y-22003390D01*
X183699523Y-143774819D02*
X183699523Y-144489104D01*
X183699523Y-144489104D02*
X183747142Y-144631961D01*
X183747142Y-144631961D02*
X183842380Y-144727200D01*
X183842380Y-144727200D02*
X183985237Y-144774819D01*
X183985237Y-144774819D02*
X184080475Y-144774819D01*
X182699523Y-144774819D02*
X183270951Y-144774819D01*
X182985237Y-144774819D02*
X182985237Y-143774819D01*
X182985237Y-143774819D02*
X183080475Y-143917676D01*
X183080475Y-143917676D02*
X183175713Y-144012914D01*
X183175713Y-144012914D02*
X183270951Y-144060533D01*
X182080475Y-143774819D02*
X181985237Y-143774819D01*
X181985237Y-143774819D02*
X181889999Y-143822438D01*
X181889999Y-143822438D02*
X181842380Y-143870057D01*
X181842380Y-143870057D02*
X181794761Y-143965295D01*
X181794761Y-143965295D02*
X181747142Y-144155771D01*
X181747142Y-144155771D02*
X181747142Y-144393866D01*
X181747142Y-144393866D02*
X181794761Y-144584342D01*
X181794761Y-144584342D02*
X181842380Y-144679580D01*
X181842380Y-144679580D02*
X181889999Y-144727200D01*
X181889999Y-144727200D02*
X181985237Y-144774819D01*
X181985237Y-144774819D02*
X182080475Y-144774819D01*
X182080475Y-144774819D02*
X182175713Y-144727200D01*
X182175713Y-144727200D02*
X182223332Y-144679580D01*
X182223332Y-144679580D02*
X182270951Y-144584342D01*
X182270951Y-144584342D02*
X182318570Y-144393866D01*
X182318570Y-144393866D02*
X182318570Y-144155771D01*
X182318570Y-144155771D02*
X182270951Y-143965295D01*
X182270951Y-143965295D02*
X182223332Y-143870057D01*
X182223332Y-143870057D02*
X182175713Y-143822438D01*
X182175713Y-143822438D02*
X182080475Y-143774819D01*
X102919523Y-21584819D02*
X102919523Y-22299104D01*
X102919523Y-22299104D02*
X102967142Y-22441961D01*
X102967142Y-22441961D02*
X103062380Y-22537200D01*
X103062380Y-22537200D02*
X103205237Y-22584819D01*
X103205237Y-22584819D02*
X103300475Y-22584819D01*
X101919523Y-22584819D02*
X102490951Y-22584819D01*
X102205237Y-22584819D02*
X102205237Y-21584819D01*
X102205237Y-21584819D02*
X102300475Y-21727676D01*
X102300475Y-21727676D02*
X102395713Y-21822914D01*
X102395713Y-21822914D02*
X102490951Y-21870533D01*
X100967142Y-22584819D02*
X101538570Y-22584819D01*
X101252856Y-22584819D02*
X101252856Y-21584819D01*
X101252856Y-21584819D02*
X101348094Y-21727676D01*
X101348094Y-21727676D02*
X101443332Y-21822914D01*
X101443332Y-21822914D02*
X101538570Y-21870533D01*
X102919523Y-143784819D02*
X102919523Y-144499104D01*
X102919523Y-144499104D02*
X102967142Y-144641961D01*
X102967142Y-144641961D02*
X103062380Y-144737200D01*
X103062380Y-144737200D02*
X103205237Y-144784819D01*
X103205237Y-144784819D02*
X103300475Y-144784819D01*
X101919523Y-144784819D02*
X102490951Y-144784819D01*
X102205237Y-144784819D02*
X102205237Y-143784819D01*
X102205237Y-143784819D02*
X102300475Y-143927676D01*
X102300475Y-143927676D02*
X102395713Y-144022914D01*
X102395713Y-144022914D02*
X102490951Y-144070533D01*
X101538570Y-143880057D02*
X101490951Y-143832438D01*
X101490951Y-143832438D02*
X101395713Y-143784819D01*
X101395713Y-143784819D02*
X101157618Y-143784819D01*
X101157618Y-143784819D02*
X101062380Y-143832438D01*
X101062380Y-143832438D02*
X101014761Y-143880057D01*
X101014761Y-143880057D02*
X100967142Y-143975295D01*
X100967142Y-143975295D02*
X100967142Y-144070533D01*
X100967142Y-144070533D02*
X101014761Y-144213390D01*
X101014761Y-144213390D02*
X101586189Y-144784819D01*
X101586189Y-144784819D02*
X100967142Y-144784819D01*
D11*
%TO.C,J1*%
X36563589Y-26907337D02*
G75*
G02*
X36550000Y-30370000I-4763588J-1712664D01*
G01*
X30087337Y-23856411D02*
G75*
G02*
X33550000Y-23870000I1712664J-4763588D01*
G01*
X33512663Y-33383589D02*
G75*
G02*
X30050000Y-33370000I-1712663J4763589D01*
G01*
X27036411Y-30332663D02*
G75*
G02*
X27050000Y-26870000I4763589J1712663D01*
G01*
%TO.C,J2*%
X36563589Y-149107337D02*
G75*
G02*
X36550000Y-152570000I-4763588J-1712664D01*
G01*
X30087337Y-146056411D02*
G75*
G02*
X33550000Y-146070000I1712664J-4763588D01*
G01*
X33512663Y-155583589D02*
G75*
G02*
X30050000Y-155570000I-1712663J4763589D01*
G01*
X27036411Y-152532663D02*
G75*
G02*
X27050000Y-149070000I4763589J1712663D01*
G01*
%TO.C,J3*%
X74223589Y-26687337D02*
G75*
G02*
X74210000Y-30150000I-4763588J-1712664D01*
G01*
X67747337Y-23636411D02*
G75*
G02*
X71210000Y-23650000I1712664J-4763588D01*
G01*
X71172663Y-33163589D02*
G75*
G02*
X67710000Y-33150000I-1712663J4763589D01*
G01*
X64696411Y-30112663D02*
G75*
G02*
X64710000Y-26650000I4763589J1712663D01*
G01*
%TO.C,J4*%
X74223589Y-148887337D02*
G75*
G02*
X74210000Y-152350000I-4763588J-1712664D01*
G01*
X67747337Y-145836411D02*
G75*
G02*
X71210000Y-145850000I1712664J-4763588D01*
G01*
X71172663Y-155363589D02*
G75*
G02*
X67710000Y-155350000I-1712663J4763589D01*
G01*
X64696411Y-152312663D02*
G75*
G02*
X64710000Y-148850000I4763589J1712663D01*
G01*
%TO.C,J5*%
X127983589Y-26667337D02*
G75*
G02*
X127970000Y-30130000I-4763588J-1712664D01*
G01*
X121507337Y-23616411D02*
G75*
G02*
X124970000Y-23630000I1712664J-4763588D01*
G01*
X124932663Y-33143589D02*
G75*
G02*
X121470000Y-33130000I-1712663J4763589D01*
G01*
X118456411Y-30092663D02*
G75*
G02*
X118470000Y-26630000I4763589J1712663D01*
G01*
%TO.C,J6*%
X127983589Y-148867337D02*
G75*
G02*
X127970000Y-152330000I-4763588J-1712664D01*
G01*
X121507337Y-145816411D02*
G75*
G02*
X124970000Y-145830000I1712664J-4763588D01*
G01*
X124932663Y-155343589D02*
G75*
G02*
X121470000Y-155330000I-1712663J4763589D01*
G01*
X118456411Y-152292663D02*
G75*
G02*
X118470000Y-148830000I4763589J1712663D01*
G01*
%TO.C,J7*%
X149803589Y-26597337D02*
G75*
G02*
X149790000Y-30060000I-4763588J-1712664D01*
G01*
X143327337Y-23546411D02*
G75*
G02*
X146790000Y-23560000I1712664J-4763588D01*
G01*
X146752663Y-33073589D02*
G75*
G02*
X143290000Y-33060000I-1712663J4763589D01*
G01*
X140276411Y-30022663D02*
G75*
G02*
X140290000Y-26560000I4763589J1712663D01*
G01*
%TO.C,J8*%
X149803589Y-148797337D02*
G75*
G02*
X149790000Y-152260000I-4763588J-1712664D01*
G01*
X143327337Y-145746411D02*
G75*
G02*
X146790000Y-145760000I1712664J-4763588D01*
G01*
X146752663Y-155273589D02*
G75*
G02*
X143290000Y-155260000I-1712663J4763589D01*
G01*
X140276411Y-152222663D02*
G75*
G02*
X140290000Y-148760000I4763589J1712663D01*
G01*
%TO.C,J9*%
X187403589Y-26657337D02*
G75*
G02*
X187390000Y-30120000I-4763588J-1712664D01*
G01*
X180927337Y-23606411D02*
G75*
G02*
X184390000Y-23620000I1712664J-4763588D01*
G01*
X184352663Y-33133589D02*
G75*
G02*
X180890000Y-33120000I-1712663J4763589D01*
G01*
X177876411Y-30082663D02*
G75*
G02*
X177890000Y-26620000I4763589J1712663D01*
G01*
%TO.C,J10*%
X177876411Y-152282663D02*
G75*
G02*
X177890000Y-148820000I4763589J1712663D01*
G01*
X184352663Y-155333589D02*
G75*
G02*
X180890000Y-155320000I-1712663J4763589D01*
G01*
X180927337Y-145806411D02*
G75*
G02*
X184390000Y-145820000I1712664J-4763588D01*
G01*
X187403589Y-148857337D02*
G75*
G02*
X187390000Y-152320000I-4763588J-1712664D01*
G01*
%TO.C,J11*%
X106623589Y-26667337D02*
G75*
G02*
X106610000Y-30130000I-4763588J-1712664D01*
G01*
X100147337Y-23616411D02*
G75*
G02*
X103610000Y-23630000I1712664J-4763588D01*
G01*
X103572663Y-33143589D02*
G75*
G02*
X100110000Y-33130000I-1712663J4763589D01*
G01*
X97096411Y-30092663D02*
G75*
G02*
X97110000Y-26630000I4763589J1712663D01*
G01*
%TO.C,J12*%
X106623589Y-148867337D02*
G75*
G02*
X106610000Y-152330000I-4763588J-1712664D01*
G01*
X100147337Y-145816411D02*
G75*
G02*
X103610000Y-145830000I1712664J-4763588D01*
G01*
X103572663Y-155343589D02*
G75*
G02*
X100110000Y-155330000I-1712663J4763589D01*
G01*
X97096411Y-152292663D02*
G75*
G02*
X97110000Y-148830000I4763589J1712663D01*
G01*
%TD*%
M02*
