%TF.GenerationSoftware,KiCad,Pcbnew,8.0.8*%
%TF.CreationDate,2025-01-25T18:16:30-08:00*%
%TF.ProjectId,labs_board,6c616273-5f62-46f6-9172-642e6b696361,rev?*%
%TF.SameCoordinates,Original*%
%TF.FileFunction,Soldermask,Top*%
%TF.FilePolarity,Negative*%
%FSLAX46Y46*%
G04 Gerber Fmt 4.6, Leading zero omitted, Abs format (unit mm)*
G04 Created by KiCad (PCBNEW 8.0.8) date 2025-01-25 18:16:30*
%MOMM*%
%LPD*%
G01*
G04 APERTURE LIST*
%ADD10C,3.810000*%
%ADD11C,3.556000*%
G04 APERTURE END LIST*
D10*
%TO.C,J14*%
X243230000Y-154215000D03*
X243230000Y-147865000D03*
X236880000Y-154215000D03*
X236880000Y-147865000D03*
D11*
X240055000Y-151040000D03*
%TD*%
%TO.C,J13*%
X240055000Y-28895000D03*
D10*
X236880000Y-25720000D03*
X236880000Y-32070000D03*
X243230000Y-25720000D03*
X243230000Y-32070000D03*
%TD*%
D11*
%TO.C,J1*%
X31800000Y-28620000D03*
D10*
X34975000Y-25445000D03*
X34975000Y-31795000D03*
X28625000Y-25445000D03*
X28625000Y-31795000D03*
%TD*%
D11*
%TO.C,J2*%
X31800000Y-150820000D03*
D10*
X34975000Y-147645000D03*
X34975000Y-153995000D03*
X28625000Y-147645000D03*
X28625000Y-153995000D03*
%TD*%
D11*
%TO.C,J3*%
X69460000Y-28400000D03*
D10*
X72635000Y-25225000D03*
X72635000Y-31575000D03*
X66285000Y-25225000D03*
X66285000Y-31575000D03*
%TD*%
D11*
%TO.C,J4*%
X69460000Y-150600000D03*
D10*
X72635000Y-147425000D03*
X72635000Y-153775000D03*
X66285000Y-147425000D03*
X66285000Y-153775000D03*
%TD*%
D11*
%TO.C,J5*%
X123220000Y-28380000D03*
D10*
X126395000Y-25205000D03*
X126395000Y-31555000D03*
X120045000Y-25205000D03*
X120045000Y-31555000D03*
%TD*%
D11*
%TO.C,J6*%
X123220000Y-150580000D03*
D10*
X126395000Y-147405000D03*
X126395000Y-153755000D03*
X120045000Y-147405000D03*
X120045000Y-153755000D03*
%TD*%
D11*
%TO.C,J7*%
X145040000Y-28310000D03*
D10*
X148215000Y-25135000D03*
X148215000Y-31485000D03*
X141865000Y-25135000D03*
X141865000Y-31485000D03*
%TD*%
D11*
%TO.C,J8*%
X145040000Y-150510000D03*
D10*
X148215000Y-147335000D03*
X148215000Y-153685000D03*
X141865000Y-147335000D03*
X141865000Y-153685000D03*
%TD*%
%TO.C,J9*%
X173825000Y-31545000D03*
X173825000Y-25195000D03*
X180175000Y-31545000D03*
X180175000Y-25195000D03*
D11*
X177000000Y-28370000D03*
%TD*%
D10*
%TO.C,J10*%
X173825000Y-153745000D03*
X173825000Y-147395000D03*
X180175000Y-153745000D03*
X180175000Y-147395000D03*
D11*
X177000000Y-150570000D03*
%TD*%
%TO.C,J11*%
X101860000Y-28380000D03*
D10*
X105035000Y-25205000D03*
X105035000Y-31555000D03*
X98685000Y-25205000D03*
X98685000Y-31555000D03*
%TD*%
D11*
%TO.C,J12*%
X101860000Y-150580000D03*
D10*
X105035000Y-147405000D03*
X105035000Y-153755000D03*
X98685000Y-147405000D03*
X98685000Y-153755000D03*
%TD*%
M02*
