%TF.GenerationSoftware,KiCad,Pcbnew,8.0.8*%
%TF.CreationDate,2025-01-25T17:36:21-08:00*%
%TF.ProjectId,labs_board,6c616273-5f62-46f6-9172-642e6b696361,rev?*%
%TF.SameCoordinates,Original*%
%TF.FileFunction,Copper,L2,Bot*%
%TF.FilePolarity,Positive*%
%FSLAX46Y46*%
G04 Gerber Fmt 4.6, Leading zero omitted, Abs format (unit mm)*
G04 Created by KiCad (PCBNEW 8.0.8) date 2025-01-25 17:36:21*
%MOMM*%
%LPD*%
G01*
G04 APERTURE LIST*
%TA.AperFunction,ComponentPad*%
%ADD10C,3.810000*%
%TD*%
%TA.AperFunction,ComponentPad*%
%ADD11C,3.556000*%
%TD*%
G04 APERTURE END LIST*
D10*
%TO.P,J14,2,Ext*%
%TO.N,GND*%
X243230000Y-154215000D03*
X243230000Y-147865000D03*
X236880000Y-154215000D03*
X236880000Y-147865000D03*
D11*
%TO.P,J14,1,In*%
%TO.N,/User_Area*%
X240055000Y-151040000D03*
%TD*%
%TO.P,J13,1,In*%
%TO.N,/User_Area*%
X240055000Y-28895000D03*
D10*
%TO.P,J13,2,Ext*%
%TO.N,GND*%
X236880000Y-25720000D03*
X236880000Y-32070000D03*
X243230000Y-25720000D03*
X243230000Y-32070000D03*
%TD*%
D11*
%TO.P,J1,1,In*%
%TO.N,/50ohm*%
X31800000Y-28620000D03*
D10*
%TO.P,J1,2,Ext*%
%TO.N,GND*%
X34975000Y-25445000D03*
X34975000Y-31795000D03*
X28625000Y-25445000D03*
X28625000Y-31795000D03*
%TD*%
D11*
%TO.P,J2,1,In*%
%TO.N,/50ohm*%
X31800000Y-150820000D03*
D10*
%TO.P,J2,2,Ext*%
%TO.N,GND*%
X34975000Y-147645000D03*
X34975000Y-153995000D03*
X28625000Y-147645000D03*
X28625000Y-153995000D03*
%TD*%
D11*
%TO.P,J3,1,In*%
%TO.N,/90Bend_1*%
X69460000Y-28400000D03*
D10*
%TO.P,J3,2,Ext*%
%TO.N,GND*%
X72635000Y-25225000D03*
X72635000Y-31575000D03*
X66285000Y-25225000D03*
X66285000Y-31575000D03*
%TD*%
D11*
%TO.P,J4,1,In*%
%TO.N,/90Bend_1*%
X69460000Y-150600000D03*
D10*
%TO.P,J4,2,Ext*%
%TO.N,GND*%
X72635000Y-147425000D03*
X72635000Y-153775000D03*
X66285000Y-147425000D03*
X66285000Y-153775000D03*
%TD*%
D11*
%TO.P,J5,1,In*%
%TO.N,/Induct_Notch*%
X123220000Y-28380000D03*
D10*
%TO.P,J5,2,Ext*%
%TO.N,GND*%
X126395000Y-25205000D03*
X126395000Y-31555000D03*
X120045000Y-25205000D03*
X120045000Y-31555000D03*
%TD*%
D11*
%TO.P,J6,1,In*%
%TO.N,/Induct_Notch*%
X123220000Y-150580000D03*
D10*
%TO.P,J6,2,Ext*%
%TO.N,GND*%
X126395000Y-147405000D03*
X126395000Y-153755000D03*
X120045000Y-147405000D03*
X120045000Y-153755000D03*
%TD*%
D11*
%TO.P,J7,1,In*%
%TO.N,/Cap_bulge*%
X145040000Y-28310000D03*
D10*
%TO.P,J7,2,Ext*%
%TO.N,GND*%
X148215000Y-25135000D03*
X148215000Y-31485000D03*
X141865000Y-25135000D03*
X141865000Y-31485000D03*
%TD*%
D11*
%TO.P,J8,1,In*%
%TO.N,/Cap_bulge*%
X145040000Y-150510000D03*
D10*
%TO.P,J8,2,Ext*%
%TO.N,GND*%
X148215000Y-147335000D03*
X148215000Y-153685000D03*
X141865000Y-147335000D03*
X141865000Y-153685000D03*
%TD*%
D11*
%TO.P,J9,1,In*%
%TO.N,/1G_BPF*%
X182640000Y-28370000D03*
D10*
%TO.P,J9,2,Ext*%
%TO.N,GND*%
X185815000Y-25195000D03*
X185815000Y-31545000D03*
X179465000Y-25195000D03*
X179465000Y-31545000D03*
%TD*%
%TO.P,J10,2,Ext*%
%TO.N,GND*%
X179465000Y-153745000D03*
X179465000Y-147395000D03*
X185815000Y-153745000D03*
X185815000Y-147395000D03*
D11*
%TO.P,J10,1,In*%
%TO.N,/1G_BPF*%
X182640000Y-150570000D03*
%TD*%
%TO.P,J11,1,In*%
%TO.N,/90Bend_2*%
X101860000Y-28380000D03*
D10*
%TO.P,J11,2,Ext*%
%TO.N,GND*%
X105035000Y-25205000D03*
X105035000Y-31555000D03*
X98685000Y-25205000D03*
X98685000Y-31555000D03*
%TD*%
D11*
%TO.P,J12,1,In*%
%TO.N,/90Bend_2*%
X101860000Y-150580000D03*
D10*
%TO.P,J12,2,Ext*%
%TO.N,GND*%
X105035000Y-147405000D03*
X105035000Y-153755000D03*
X98685000Y-147405000D03*
X98685000Y-153755000D03*
%TD*%
%TA.AperFunction,Conductor*%
%TO.N,GND*%
G36*
X278143039Y-16619685D02*
G01*
X278188794Y-16672489D01*
X278200000Y-16724000D01*
X278200000Y-162275903D01*
X278180315Y-162342942D01*
X278127511Y-162388697D01*
X278075904Y-162399903D01*
X21323904Y-162200096D01*
X21256879Y-162180359D01*
X21211166Y-162127520D01*
X21200000Y-162076096D01*
X21200000Y-147644994D01*
X26215245Y-147644994D01*
X26215245Y-147645005D01*
X26234245Y-147947011D01*
X26234246Y-147947018D01*
X26290953Y-148244286D01*
X26384466Y-148532091D01*
X26384468Y-148532096D01*
X26513313Y-148805904D01*
X26513317Y-148805910D01*
X26675460Y-149061408D01*
X26756761Y-149159684D01*
X27938236Y-147978209D01*
X27949724Y-148005942D01*
X28033116Y-148130747D01*
X28139253Y-148236884D01*
X28264058Y-148320276D01*
X28291789Y-148331762D01*
X27107984Y-149515566D01*
X27107985Y-149515568D01*
X27333786Y-149679621D01*
X27598983Y-149825415D01*
X27598984Y-149825416D01*
X27880340Y-149936811D01*
X28173457Y-150012071D01*
X28173466Y-150012073D01*
X28473678Y-150049999D01*
X28473692Y-150050000D01*
X28776308Y-150050000D01*
X28776321Y-150049999D01*
X29076533Y-150012073D01*
X29076542Y-150012071D01*
X29369658Y-149936811D01*
X29494674Y-149887315D01*
X29564252Y-149880938D01*
X29626232Y-149913190D01*
X29660936Y-149973832D01*
X29657740Y-150042465D01*
X29594419Y-150229002D01*
X29594414Y-150229022D01*
X29536148Y-150521947D01*
X29536144Y-150521974D01*
X29516611Y-150819992D01*
X29516611Y-150820007D01*
X29536144Y-151118025D01*
X29536145Y-151118035D01*
X29536146Y-151118042D01*
X29536148Y-151118052D01*
X29594414Y-151410977D01*
X29594419Y-151410997D01*
X29657740Y-151597534D01*
X29660650Y-151667343D01*
X29625355Y-151727643D01*
X29563063Y-151759289D01*
X29494674Y-151752685D01*
X29369651Y-151703186D01*
X29076542Y-151627928D01*
X29076533Y-151627926D01*
X28776321Y-151590000D01*
X28473678Y-151590000D01*
X28173466Y-151627926D01*
X28173457Y-151627928D01*
X27880340Y-151703188D01*
X27598984Y-151814583D01*
X27598983Y-151814584D01*
X27333789Y-151960377D01*
X27333777Y-151960384D01*
X27107985Y-152124431D01*
X27107984Y-152124432D01*
X28291790Y-153308236D01*
X28264058Y-153319724D01*
X28139253Y-153403116D01*
X28033116Y-153509253D01*
X27949724Y-153634058D01*
X27938237Y-153661789D01*
X26756761Y-152480313D01*
X26675463Y-152578586D01*
X26513317Y-152834089D01*
X26513313Y-152834095D01*
X26384468Y-153107903D01*
X26384466Y-153107908D01*
X26290953Y-153395713D01*
X26234246Y-153692981D01*
X26234245Y-153692988D01*
X26215245Y-153994994D01*
X26215245Y-153995005D01*
X26234245Y-154297011D01*
X26234246Y-154297018D01*
X26290953Y-154594286D01*
X26384466Y-154882091D01*
X26384468Y-154882096D01*
X26513313Y-155155904D01*
X26513317Y-155155910D01*
X26675460Y-155411408D01*
X26756761Y-155509684D01*
X27938236Y-154328209D01*
X27949724Y-154355942D01*
X28033116Y-154480747D01*
X28139253Y-154586884D01*
X28264058Y-154670276D01*
X28291789Y-154681762D01*
X27107984Y-155865566D01*
X27107985Y-155865568D01*
X27333786Y-156029621D01*
X27598983Y-156175415D01*
X27598984Y-156175416D01*
X27880340Y-156286811D01*
X28173457Y-156362071D01*
X28173466Y-156362073D01*
X28473678Y-156399999D01*
X28473692Y-156400000D01*
X28776308Y-156400000D01*
X28776321Y-156399999D01*
X29076533Y-156362073D01*
X29076542Y-156362071D01*
X29369659Y-156286811D01*
X29651015Y-156175416D01*
X29651016Y-156175415D01*
X29916208Y-156029624D01*
X30142013Y-155865567D01*
X30142014Y-155865566D01*
X28958210Y-154681762D01*
X28985942Y-154670276D01*
X29110747Y-154586884D01*
X29216884Y-154480747D01*
X29300276Y-154355942D01*
X29311763Y-154328209D01*
X30493237Y-155509684D01*
X30574536Y-155411413D01*
X30736682Y-155155910D01*
X30736686Y-155155904D01*
X30865531Y-154882096D01*
X30865533Y-154882091D01*
X30959046Y-154594286D01*
X31015753Y-154297018D01*
X31015754Y-154297011D01*
X31034755Y-153995005D01*
X31034755Y-153994994D01*
X31015754Y-153692988D01*
X31015753Y-153692981D01*
X30959046Y-153395713D01*
X30869324Y-153119574D01*
X30867329Y-153049733D01*
X30903410Y-152989900D01*
X30966111Y-152959072D01*
X31027114Y-152963837D01*
X31209015Y-153025584D01*
X31501958Y-153083854D01*
X31530320Y-153085713D01*
X31799993Y-153103389D01*
X31800000Y-153103389D01*
X31800007Y-153103389D01*
X32038607Y-153087749D01*
X32098042Y-153083854D01*
X32390985Y-153025584D01*
X32572888Y-152963835D01*
X32642695Y-152960926D01*
X32702995Y-152996220D01*
X32734642Y-153058512D01*
X32730676Y-153119573D01*
X32640953Y-153395713D01*
X32584246Y-153692981D01*
X32584245Y-153692988D01*
X32565245Y-153994994D01*
X32565245Y-153995005D01*
X32584245Y-154297011D01*
X32584246Y-154297018D01*
X32640953Y-154594286D01*
X32734466Y-154882091D01*
X32734468Y-154882096D01*
X32863313Y-155155904D01*
X32863317Y-155155910D01*
X33025460Y-155411408D01*
X33106761Y-155509684D01*
X34288236Y-154328208D01*
X34299724Y-154355942D01*
X34383116Y-154480747D01*
X34489253Y-154586884D01*
X34614058Y-154670276D01*
X34641789Y-154681762D01*
X33457984Y-155865566D01*
X33457985Y-155865568D01*
X33683786Y-156029621D01*
X33948983Y-156175415D01*
X33948984Y-156175416D01*
X34230340Y-156286811D01*
X34523457Y-156362071D01*
X34523466Y-156362073D01*
X34823678Y-156399999D01*
X34823692Y-156400000D01*
X35126308Y-156400000D01*
X35126321Y-156399999D01*
X35426533Y-156362073D01*
X35426542Y-156362071D01*
X35719659Y-156286811D01*
X36001015Y-156175416D01*
X36001016Y-156175415D01*
X36266208Y-156029624D01*
X36492013Y-155865567D01*
X36492014Y-155865566D01*
X35308210Y-154681762D01*
X35335942Y-154670276D01*
X35460747Y-154586884D01*
X35566884Y-154480747D01*
X35650276Y-154355942D01*
X35661762Y-154328209D01*
X36843237Y-155509684D01*
X36924536Y-155411413D01*
X37086682Y-155155910D01*
X37086686Y-155155904D01*
X37215531Y-154882096D01*
X37215533Y-154882091D01*
X37309046Y-154594286D01*
X37365753Y-154297018D01*
X37365754Y-154297011D01*
X37384755Y-153995005D01*
X37384755Y-153994994D01*
X37365754Y-153692988D01*
X37365753Y-153692981D01*
X37309046Y-153395713D01*
X37215533Y-153107908D01*
X37215531Y-153107903D01*
X37086686Y-152834095D01*
X37086682Y-152834089D01*
X36924539Y-152578591D01*
X36843236Y-152480313D01*
X35661762Y-153661788D01*
X35650276Y-153634058D01*
X35566884Y-153509253D01*
X35460747Y-153403116D01*
X35335942Y-153319724D01*
X35308209Y-153308236D01*
X36492014Y-152124432D01*
X36492013Y-152124430D01*
X36266213Y-151960378D01*
X36001016Y-151814584D01*
X36001015Y-151814583D01*
X35719659Y-151703188D01*
X35426542Y-151627928D01*
X35426533Y-151627926D01*
X35126321Y-151590000D01*
X34823678Y-151590000D01*
X34523466Y-151627926D01*
X34523457Y-151627928D01*
X34230348Y-151703186D01*
X34105324Y-151752686D01*
X34035746Y-151759062D01*
X33973766Y-151726809D01*
X33939062Y-151666167D01*
X33942257Y-151597537D01*
X34005584Y-151410985D01*
X34063854Y-151118042D01*
X34079586Y-150878025D01*
X34083389Y-150820007D01*
X34083389Y-150819992D01*
X34063855Y-150521974D01*
X34063854Y-150521958D01*
X34005584Y-150229015D01*
X33942257Y-150042462D01*
X33939348Y-149972656D01*
X33974642Y-149912356D01*
X34036934Y-149880709D01*
X34105325Y-149887314D01*
X34230343Y-149936812D01*
X34523457Y-150012071D01*
X34523466Y-150012073D01*
X34823678Y-150049999D01*
X34823692Y-150050000D01*
X35126308Y-150050000D01*
X35126321Y-150049999D01*
X35426533Y-150012073D01*
X35426542Y-150012071D01*
X35719659Y-149936811D01*
X36001015Y-149825416D01*
X36001016Y-149825415D01*
X36266208Y-149679624D01*
X36492013Y-149515567D01*
X36492014Y-149515566D01*
X35308209Y-148331763D01*
X35335942Y-148320276D01*
X35460747Y-148236884D01*
X35566884Y-148130747D01*
X35650276Y-148005942D01*
X35661762Y-147978209D01*
X36843237Y-149159684D01*
X36924536Y-149061413D01*
X37086682Y-148805910D01*
X37086686Y-148805904D01*
X37215531Y-148532096D01*
X37215533Y-148532091D01*
X37309046Y-148244286D01*
X37365753Y-147947018D01*
X37365754Y-147947011D01*
X37384755Y-147645005D01*
X37384755Y-147644994D01*
X37370913Y-147424994D01*
X63875245Y-147424994D01*
X63875245Y-147425005D01*
X63894245Y-147727011D01*
X63894246Y-147727018D01*
X63950953Y-148024286D01*
X64044466Y-148312091D01*
X64044468Y-148312096D01*
X64173313Y-148585904D01*
X64173317Y-148585910D01*
X64335460Y-148841408D01*
X64416761Y-148939684D01*
X65598236Y-147758209D01*
X65609724Y-147785942D01*
X65693116Y-147910747D01*
X65799253Y-148016884D01*
X65924058Y-148100276D01*
X65951789Y-148111762D01*
X64767984Y-149295566D01*
X64767985Y-149295568D01*
X64993786Y-149459621D01*
X65258983Y-149605415D01*
X65258984Y-149605416D01*
X65540340Y-149716811D01*
X65833457Y-149792071D01*
X65833466Y-149792073D01*
X66133678Y-149829999D01*
X66133692Y-149830000D01*
X66436308Y-149830000D01*
X66436321Y-149829999D01*
X66736533Y-149792073D01*
X66736542Y-149792071D01*
X67029658Y-149716811D01*
X67154674Y-149667315D01*
X67224252Y-149660938D01*
X67286232Y-149693190D01*
X67320936Y-149753832D01*
X67317740Y-149822465D01*
X67254419Y-150009002D01*
X67254414Y-150009022D01*
X67196148Y-150301947D01*
X67196144Y-150301974D01*
X67176611Y-150599992D01*
X67176611Y-150600007D01*
X67196144Y-150898025D01*
X67196145Y-150898035D01*
X67196146Y-150898042D01*
X67196148Y-150898052D01*
X67254414Y-151190977D01*
X67254419Y-151190997D01*
X67317740Y-151377534D01*
X67320650Y-151447343D01*
X67285355Y-151507643D01*
X67223063Y-151539289D01*
X67154674Y-151532685D01*
X67029651Y-151483186D01*
X66736542Y-151407928D01*
X66736533Y-151407926D01*
X66436321Y-151370000D01*
X66133678Y-151370000D01*
X65833466Y-151407926D01*
X65833457Y-151407928D01*
X65540340Y-151483188D01*
X65258984Y-151594583D01*
X65258983Y-151594584D01*
X64993789Y-151740377D01*
X64993777Y-151740384D01*
X64767985Y-151904431D01*
X64767984Y-151904432D01*
X65951790Y-153088236D01*
X65924058Y-153099724D01*
X65799253Y-153183116D01*
X65693116Y-153289253D01*
X65609724Y-153414058D01*
X65598237Y-153441789D01*
X64416761Y-152260313D01*
X64335463Y-152358586D01*
X64173317Y-152614089D01*
X64173313Y-152614095D01*
X64044468Y-152887903D01*
X64044466Y-152887908D01*
X63950953Y-153175713D01*
X63894246Y-153472981D01*
X63894245Y-153472988D01*
X63875245Y-153774994D01*
X63875245Y-153775005D01*
X63894245Y-154077011D01*
X63894246Y-154077018D01*
X63950953Y-154374286D01*
X64044466Y-154662091D01*
X64044468Y-154662096D01*
X64173313Y-154935904D01*
X64173317Y-154935910D01*
X64335460Y-155191408D01*
X64416761Y-155289684D01*
X65598236Y-154108209D01*
X65609724Y-154135942D01*
X65693116Y-154260747D01*
X65799253Y-154366884D01*
X65924058Y-154450276D01*
X65951789Y-154461762D01*
X64767984Y-155645566D01*
X64767985Y-155645568D01*
X64993786Y-155809621D01*
X65258983Y-155955415D01*
X65258984Y-155955416D01*
X65540340Y-156066811D01*
X65833457Y-156142071D01*
X65833466Y-156142073D01*
X66133678Y-156179999D01*
X66133692Y-156180000D01*
X66436308Y-156180000D01*
X66436321Y-156179999D01*
X66736533Y-156142073D01*
X66736542Y-156142071D01*
X67029659Y-156066811D01*
X67311015Y-155955416D01*
X67311016Y-155955415D01*
X67576208Y-155809624D01*
X67802013Y-155645567D01*
X67802014Y-155645566D01*
X66618210Y-154461762D01*
X66645942Y-154450276D01*
X66770747Y-154366884D01*
X66876884Y-154260747D01*
X66960276Y-154135942D01*
X66971763Y-154108209D01*
X68153237Y-155289684D01*
X68234536Y-155191413D01*
X68396682Y-154935910D01*
X68396686Y-154935904D01*
X68525531Y-154662096D01*
X68525533Y-154662091D01*
X68619046Y-154374286D01*
X68675753Y-154077018D01*
X68675754Y-154077011D01*
X68694755Y-153775005D01*
X68694755Y-153774994D01*
X68675754Y-153472988D01*
X68675753Y-153472981D01*
X68619046Y-153175713D01*
X68529324Y-152899574D01*
X68527329Y-152829733D01*
X68563410Y-152769900D01*
X68626111Y-152739072D01*
X68687114Y-152743837D01*
X68754381Y-152766671D01*
X68869015Y-152805584D01*
X69161958Y-152863854D01*
X69190577Y-152865729D01*
X69459993Y-152883389D01*
X69460000Y-152883389D01*
X69460007Y-152883389D01*
X69698607Y-152867749D01*
X69758042Y-152863854D01*
X70050985Y-152805584D01*
X70232888Y-152743835D01*
X70302695Y-152740926D01*
X70362995Y-152776220D01*
X70394642Y-152838512D01*
X70390676Y-152899573D01*
X70300953Y-153175713D01*
X70244246Y-153472981D01*
X70244245Y-153472988D01*
X70225245Y-153774994D01*
X70225245Y-153775005D01*
X70244245Y-154077011D01*
X70244246Y-154077018D01*
X70300953Y-154374286D01*
X70394466Y-154662091D01*
X70394468Y-154662096D01*
X70523313Y-154935904D01*
X70523317Y-154935910D01*
X70685460Y-155191408D01*
X70766761Y-155289684D01*
X71948236Y-154108208D01*
X71959724Y-154135942D01*
X72043116Y-154260747D01*
X72149253Y-154366884D01*
X72274058Y-154450276D01*
X72301789Y-154461762D01*
X71117984Y-155645566D01*
X71117985Y-155645568D01*
X71343786Y-155809621D01*
X71608983Y-155955415D01*
X71608984Y-155955416D01*
X71890340Y-156066811D01*
X72183457Y-156142071D01*
X72183466Y-156142073D01*
X72483678Y-156179999D01*
X72483692Y-156180000D01*
X72786308Y-156180000D01*
X72786321Y-156179999D01*
X73086533Y-156142073D01*
X73086542Y-156142071D01*
X73379659Y-156066811D01*
X73661015Y-155955416D01*
X73661016Y-155955415D01*
X73926208Y-155809624D01*
X74152013Y-155645567D01*
X74152014Y-155645566D01*
X72968210Y-154461762D01*
X72995942Y-154450276D01*
X73120747Y-154366884D01*
X73226884Y-154260747D01*
X73310276Y-154135942D01*
X73321762Y-154108209D01*
X74503237Y-155289684D01*
X74584536Y-155191413D01*
X74746682Y-154935910D01*
X74746686Y-154935904D01*
X74875531Y-154662096D01*
X74875533Y-154662091D01*
X74969046Y-154374286D01*
X75025753Y-154077018D01*
X75025754Y-154077011D01*
X75044755Y-153775005D01*
X75044755Y-153774994D01*
X75025754Y-153472988D01*
X75025753Y-153472981D01*
X74969046Y-153175713D01*
X74875533Y-152887908D01*
X74875531Y-152887903D01*
X74746686Y-152614095D01*
X74746682Y-152614089D01*
X74584539Y-152358591D01*
X74503236Y-152260313D01*
X73321762Y-153441788D01*
X73310276Y-153414058D01*
X73226884Y-153289253D01*
X73120747Y-153183116D01*
X72995942Y-153099724D01*
X72968209Y-153088236D01*
X74152014Y-151904432D01*
X74152013Y-151904430D01*
X73926213Y-151740378D01*
X73661016Y-151594584D01*
X73661015Y-151594583D01*
X73379659Y-151483188D01*
X73086542Y-151407928D01*
X73086533Y-151407926D01*
X72786321Y-151370000D01*
X72483678Y-151370000D01*
X72183466Y-151407926D01*
X72183457Y-151407928D01*
X71890348Y-151483186D01*
X71765324Y-151532686D01*
X71695746Y-151539062D01*
X71633766Y-151506809D01*
X71599062Y-151446167D01*
X71602257Y-151377537D01*
X71665584Y-151190985D01*
X71723854Y-150898042D01*
X71729754Y-150808025D01*
X71743389Y-150600007D01*
X71743389Y-150599992D01*
X71723855Y-150301974D01*
X71723854Y-150301958D01*
X71665584Y-150009015D01*
X71602257Y-149822462D01*
X71599348Y-149752656D01*
X71634642Y-149692356D01*
X71696934Y-149660709D01*
X71765325Y-149667314D01*
X71890343Y-149716812D01*
X72183457Y-149792071D01*
X72183466Y-149792073D01*
X72483678Y-149829999D01*
X72483692Y-149830000D01*
X72786308Y-149830000D01*
X72786321Y-149829999D01*
X73086533Y-149792073D01*
X73086542Y-149792071D01*
X73379659Y-149716811D01*
X73661015Y-149605416D01*
X73661016Y-149605415D01*
X73926208Y-149459624D01*
X74152013Y-149295567D01*
X74152014Y-149295566D01*
X72968209Y-148111763D01*
X72995942Y-148100276D01*
X73120747Y-148016884D01*
X73226884Y-147910747D01*
X73310276Y-147785942D01*
X73321762Y-147758209D01*
X74503237Y-148939684D01*
X74584536Y-148841413D01*
X74746682Y-148585910D01*
X74746686Y-148585904D01*
X74875531Y-148312096D01*
X74875533Y-148312091D01*
X74969046Y-148024286D01*
X75025753Y-147727018D01*
X75025754Y-147727011D01*
X75044755Y-147425005D01*
X75044755Y-147424994D01*
X75043497Y-147404994D01*
X96275245Y-147404994D01*
X96275245Y-147405005D01*
X96294245Y-147707011D01*
X96294246Y-147707018D01*
X96350953Y-148004286D01*
X96444466Y-148292091D01*
X96444468Y-148292096D01*
X96573313Y-148565904D01*
X96573317Y-148565910D01*
X96735460Y-148821408D01*
X96816761Y-148919684D01*
X97998236Y-147738209D01*
X98009724Y-147765942D01*
X98093116Y-147890747D01*
X98199253Y-147996884D01*
X98324058Y-148080276D01*
X98351789Y-148091762D01*
X97167984Y-149275566D01*
X97167985Y-149275568D01*
X97393786Y-149439621D01*
X97658983Y-149585415D01*
X97658984Y-149585416D01*
X97940340Y-149696811D01*
X98233457Y-149772071D01*
X98233466Y-149772073D01*
X98533678Y-149809999D01*
X98533692Y-149810000D01*
X98836308Y-149810000D01*
X98836321Y-149809999D01*
X99136533Y-149772073D01*
X99136542Y-149772071D01*
X99429658Y-149696811D01*
X99554674Y-149647315D01*
X99624252Y-149640938D01*
X99686232Y-149673190D01*
X99720936Y-149733832D01*
X99717740Y-149802465D01*
X99654419Y-149989002D01*
X99654414Y-149989022D01*
X99596148Y-150281947D01*
X99596144Y-150281974D01*
X99576611Y-150579992D01*
X99576611Y-150580007D01*
X99596144Y-150878025D01*
X99596145Y-150878035D01*
X99596146Y-150878042D01*
X99596148Y-150878052D01*
X99654414Y-151170977D01*
X99654419Y-151170997D01*
X99717740Y-151357534D01*
X99720650Y-151427343D01*
X99685355Y-151487643D01*
X99623063Y-151519289D01*
X99554674Y-151512685D01*
X99429651Y-151463186D01*
X99136542Y-151387928D01*
X99136533Y-151387926D01*
X98836321Y-151350000D01*
X98533678Y-151350000D01*
X98233466Y-151387926D01*
X98233457Y-151387928D01*
X97940340Y-151463188D01*
X97658984Y-151574583D01*
X97658983Y-151574584D01*
X97393789Y-151720377D01*
X97393777Y-151720384D01*
X97167985Y-151884431D01*
X97167984Y-151884432D01*
X98351790Y-153068236D01*
X98324058Y-153079724D01*
X98199253Y-153163116D01*
X98093116Y-153269253D01*
X98009724Y-153394058D01*
X97998237Y-153421789D01*
X96816761Y-152240313D01*
X96735463Y-152338586D01*
X96573317Y-152594089D01*
X96573313Y-152594095D01*
X96444468Y-152867903D01*
X96444466Y-152867908D01*
X96350953Y-153155713D01*
X96294246Y-153452981D01*
X96294245Y-153452988D01*
X96275245Y-153754994D01*
X96275245Y-153755005D01*
X96294245Y-154057011D01*
X96294246Y-154057018D01*
X96350953Y-154354286D01*
X96444466Y-154642091D01*
X96444468Y-154642096D01*
X96573313Y-154915904D01*
X96573317Y-154915910D01*
X96735460Y-155171408D01*
X96816761Y-155269684D01*
X97998236Y-154088209D01*
X98009724Y-154115942D01*
X98093116Y-154240747D01*
X98199253Y-154346884D01*
X98324058Y-154430276D01*
X98351789Y-154441762D01*
X97167984Y-155625566D01*
X97167985Y-155625568D01*
X97393786Y-155789621D01*
X97658983Y-155935415D01*
X97658984Y-155935416D01*
X97940340Y-156046811D01*
X98233457Y-156122071D01*
X98233466Y-156122073D01*
X98533678Y-156159999D01*
X98533692Y-156160000D01*
X98836308Y-156160000D01*
X98836321Y-156159999D01*
X99136533Y-156122073D01*
X99136542Y-156122071D01*
X99429659Y-156046811D01*
X99711015Y-155935416D01*
X99711016Y-155935415D01*
X99976208Y-155789624D01*
X100202013Y-155625567D01*
X100202014Y-155625566D01*
X99018210Y-154441762D01*
X99045942Y-154430276D01*
X99170747Y-154346884D01*
X99276884Y-154240747D01*
X99360276Y-154115942D01*
X99371763Y-154088209D01*
X100553237Y-155269684D01*
X100634536Y-155171413D01*
X100796682Y-154915910D01*
X100796686Y-154915904D01*
X100925531Y-154642096D01*
X100925533Y-154642091D01*
X101019046Y-154354286D01*
X101075753Y-154057018D01*
X101075754Y-154057011D01*
X101094755Y-153755005D01*
X101094755Y-153754994D01*
X101075754Y-153452988D01*
X101075753Y-153452981D01*
X101019046Y-153155713D01*
X100929324Y-152879574D01*
X100927329Y-152809733D01*
X100963410Y-152749900D01*
X101026111Y-152719072D01*
X101087114Y-152723837D01*
X101146032Y-152743837D01*
X101269015Y-152785584D01*
X101561958Y-152843854D01*
X101590577Y-152845729D01*
X101859993Y-152863389D01*
X101860000Y-152863389D01*
X101860007Y-152863389D01*
X102098607Y-152847749D01*
X102158042Y-152843854D01*
X102450985Y-152785584D01*
X102632888Y-152723835D01*
X102702695Y-152720926D01*
X102762995Y-152756220D01*
X102794642Y-152818512D01*
X102790676Y-152879573D01*
X102700953Y-153155713D01*
X102644246Y-153452981D01*
X102644245Y-153452988D01*
X102625245Y-153754994D01*
X102625245Y-153755005D01*
X102644245Y-154057011D01*
X102644246Y-154057018D01*
X102700953Y-154354286D01*
X102794466Y-154642091D01*
X102794468Y-154642096D01*
X102923313Y-154915904D01*
X102923317Y-154915910D01*
X103085460Y-155171408D01*
X103166761Y-155269684D01*
X104348236Y-154088208D01*
X104359724Y-154115942D01*
X104443116Y-154240747D01*
X104549253Y-154346884D01*
X104674058Y-154430276D01*
X104701789Y-154441762D01*
X103517984Y-155625566D01*
X103517985Y-155625568D01*
X103743786Y-155789621D01*
X104008983Y-155935415D01*
X104008984Y-155935416D01*
X104290340Y-156046811D01*
X104583457Y-156122071D01*
X104583466Y-156122073D01*
X104883678Y-156159999D01*
X104883692Y-156160000D01*
X105186308Y-156160000D01*
X105186321Y-156159999D01*
X105486533Y-156122073D01*
X105486542Y-156122071D01*
X105779659Y-156046811D01*
X106061015Y-155935416D01*
X106061016Y-155935415D01*
X106326208Y-155789624D01*
X106552013Y-155625567D01*
X106552014Y-155625566D01*
X105368210Y-154441762D01*
X105395942Y-154430276D01*
X105520747Y-154346884D01*
X105626884Y-154240747D01*
X105710276Y-154115942D01*
X105721762Y-154088209D01*
X106903237Y-155269684D01*
X106984536Y-155171413D01*
X107146682Y-154915910D01*
X107146686Y-154915904D01*
X107275531Y-154642096D01*
X107275533Y-154642091D01*
X107369046Y-154354286D01*
X107425753Y-154057018D01*
X107425754Y-154057011D01*
X107444755Y-153755005D01*
X107444755Y-153754994D01*
X107425754Y-153452988D01*
X107425753Y-153452981D01*
X107369046Y-153155713D01*
X107275533Y-152867908D01*
X107275531Y-152867903D01*
X107146686Y-152594095D01*
X107146682Y-152594089D01*
X106984539Y-152338591D01*
X106903236Y-152240313D01*
X105721762Y-153421788D01*
X105710276Y-153394058D01*
X105626884Y-153269253D01*
X105520747Y-153163116D01*
X105395942Y-153079724D01*
X105368209Y-153068236D01*
X106552014Y-151884432D01*
X106552013Y-151884430D01*
X106326213Y-151720378D01*
X106061016Y-151574584D01*
X106061015Y-151574583D01*
X105779659Y-151463188D01*
X105486542Y-151387928D01*
X105486533Y-151387926D01*
X105186321Y-151350000D01*
X104883678Y-151350000D01*
X104583466Y-151387926D01*
X104583457Y-151387928D01*
X104290348Y-151463186D01*
X104165324Y-151512686D01*
X104095746Y-151519062D01*
X104033766Y-151486809D01*
X103999062Y-151426167D01*
X104002257Y-151357537D01*
X104065584Y-151170985D01*
X104123854Y-150878042D01*
X104142078Y-150600007D01*
X104143389Y-150580007D01*
X104143389Y-150579992D01*
X104123855Y-150281974D01*
X104123854Y-150281958D01*
X104065584Y-149989015D01*
X104002257Y-149802462D01*
X103999348Y-149732656D01*
X104034642Y-149672356D01*
X104096934Y-149640709D01*
X104165325Y-149647314D01*
X104290343Y-149696812D01*
X104583457Y-149772071D01*
X104583466Y-149772073D01*
X104883678Y-149809999D01*
X104883692Y-149810000D01*
X105186308Y-149810000D01*
X105186321Y-149809999D01*
X105486533Y-149772073D01*
X105486542Y-149772071D01*
X105779659Y-149696811D01*
X106061015Y-149585416D01*
X106061016Y-149585415D01*
X106326208Y-149439624D01*
X106552013Y-149275567D01*
X106552014Y-149275566D01*
X105368209Y-148091763D01*
X105395942Y-148080276D01*
X105520747Y-147996884D01*
X105626884Y-147890747D01*
X105710276Y-147765942D01*
X105721762Y-147738209D01*
X106903237Y-148919684D01*
X106984536Y-148821413D01*
X107146682Y-148565910D01*
X107146686Y-148565904D01*
X107275531Y-148292096D01*
X107275533Y-148292091D01*
X107369046Y-148004286D01*
X107425753Y-147707018D01*
X107425754Y-147707011D01*
X107444755Y-147405005D01*
X107444755Y-147404994D01*
X117635245Y-147404994D01*
X117635245Y-147405005D01*
X117654245Y-147707011D01*
X117654246Y-147707018D01*
X117710953Y-148004286D01*
X117804466Y-148292091D01*
X117804468Y-148292096D01*
X117933313Y-148565904D01*
X117933317Y-148565910D01*
X118095460Y-148821408D01*
X118176761Y-148919684D01*
X119358236Y-147738209D01*
X119369724Y-147765942D01*
X119453116Y-147890747D01*
X119559253Y-147996884D01*
X119684058Y-148080276D01*
X119711789Y-148091762D01*
X118527984Y-149275566D01*
X118527985Y-149275568D01*
X118753786Y-149439621D01*
X119018983Y-149585415D01*
X119018984Y-149585416D01*
X119300340Y-149696811D01*
X119593457Y-149772071D01*
X119593466Y-149772073D01*
X119893678Y-149809999D01*
X119893692Y-149810000D01*
X120196308Y-149810000D01*
X120196321Y-149809999D01*
X120496533Y-149772073D01*
X120496542Y-149772071D01*
X120789658Y-149696811D01*
X120914674Y-149647315D01*
X120984252Y-149640938D01*
X121046232Y-149673190D01*
X121080936Y-149733832D01*
X121077740Y-149802465D01*
X121014419Y-149989002D01*
X121014414Y-149989022D01*
X120956148Y-150281947D01*
X120956144Y-150281974D01*
X120936611Y-150579992D01*
X120936611Y-150580007D01*
X120956144Y-150878025D01*
X120956145Y-150878035D01*
X120956146Y-150878042D01*
X120956148Y-150878052D01*
X121014414Y-151170977D01*
X121014419Y-151170997D01*
X121077740Y-151357534D01*
X121080650Y-151427343D01*
X121045355Y-151487643D01*
X120983063Y-151519289D01*
X120914674Y-151512685D01*
X120789651Y-151463186D01*
X120496542Y-151387928D01*
X120496533Y-151387926D01*
X120196321Y-151350000D01*
X119893678Y-151350000D01*
X119593466Y-151387926D01*
X119593457Y-151387928D01*
X119300340Y-151463188D01*
X119018984Y-151574583D01*
X119018983Y-151574584D01*
X118753789Y-151720377D01*
X118753777Y-151720384D01*
X118527985Y-151884431D01*
X118527984Y-151884432D01*
X119711790Y-153068236D01*
X119684058Y-153079724D01*
X119559253Y-153163116D01*
X119453116Y-153269253D01*
X119369724Y-153394058D01*
X119358237Y-153421789D01*
X118176761Y-152240313D01*
X118095463Y-152338586D01*
X117933317Y-152594089D01*
X117933313Y-152594095D01*
X117804468Y-152867903D01*
X117804466Y-152867908D01*
X117710953Y-153155713D01*
X117654246Y-153452981D01*
X117654245Y-153452988D01*
X117635245Y-153754994D01*
X117635245Y-153755005D01*
X117654245Y-154057011D01*
X117654246Y-154057018D01*
X117710953Y-154354286D01*
X117804466Y-154642091D01*
X117804468Y-154642096D01*
X117933313Y-154915904D01*
X117933317Y-154915910D01*
X118095460Y-155171408D01*
X118176761Y-155269684D01*
X119358236Y-154088209D01*
X119369724Y-154115942D01*
X119453116Y-154240747D01*
X119559253Y-154346884D01*
X119684058Y-154430276D01*
X119711789Y-154441762D01*
X118527984Y-155625566D01*
X118527985Y-155625568D01*
X118753786Y-155789621D01*
X119018983Y-155935415D01*
X119018984Y-155935416D01*
X119300340Y-156046811D01*
X119593457Y-156122071D01*
X119593466Y-156122073D01*
X119893678Y-156159999D01*
X119893692Y-156160000D01*
X120196308Y-156160000D01*
X120196321Y-156159999D01*
X120496533Y-156122073D01*
X120496542Y-156122071D01*
X120789659Y-156046811D01*
X121071015Y-155935416D01*
X121071016Y-155935415D01*
X121336208Y-155789624D01*
X121562013Y-155625567D01*
X121562014Y-155625566D01*
X120378210Y-154441762D01*
X120405942Y-154430276D01*
X120530747Y-154346884D01*
X120636884Y-154240747D01*
X120720276Y-154115942D01*
X120731763Y-154088209D01*
X121913237Y-155269684D01*
X121994536Y-155171413D01*
X122156682Y-154915910D01*
X122156686Y-154915904D01*
X122285531Y-154642096D01*
X122285533Y-154642091D01*
X122379046Y-154354286D01*
X122435753Y-154057018D01*
X122435754Y-154057011D01*
X122454755Y-153755005D01*
X122454755Y-153754994D01*
X122435754Y-153452988D01*
X122435753Y-153452981D01*
X122379046Y-153155713D01*
X122289324Y-152879574D01*
X122287329Y-152809733D01*
X122323410Y-152749900D01*
X122386111Y-152719072D01*
X122447114Y-152723837D01*
X122506032Y-152743837D01*
X122629015Y-152785584D01*
X122921958Y-152843854D01*
X122950577Y-152845729D01*
X123219993Y-152863389D01*
X123220000Y-152863389D01*
X123220007Y-152863389D01*
X123458607Y-152847749D01*
X123518042Y-152843854D01*
X123810985Y-152785584D01*
X123992888Y-152723835D01*
X124062695Y-152720926D01*
X124122995Y-152756220D01*
X124154642Y-152818512D01*
X124150676Y-152879573D01*
X124060953Y-153155713D01*
X124004246Y-153452981D01*
X124004245Y-153452988D01*
X123985245Y-153754994D01*
X123985245Y-153755005D01*
X124004245Y-154057011D01*
X124004246Y-154057018D01*
X124060953Y-154354286D01*
X124154466Y-154642091D01*
X124154468Y-154642096D01*
X124283313Y-154915904D01*
X124283317Y-154915910D01*
X124445460Y-155171408D01*
X124526761Y-155269684D01*
X125708236Y-154088208D01*
X125719724Y-154115942D01*
X125803116Y-154240747D01*
X125909253Y-154346884D01*
X126034058Y-154430276D01*
X126061789Y-154441762D01*
X124877984Y-155625566D01*
X124877985Y-155625568D01*
X125103786Y-155789621D01*
X125368983Y-155935415D01*
X125368984Y-155935416D01*
X125650340Y-156046811D01*
X125943457Y-156122071D01*
X125943466Y-156122073D01*
X126243678Y-156159999D01*
X126243692Y-156160000D01*
X126546308Y-156160000D01*
X126546321Y-156159999D01*
X126846533Y-156122073D01*
X126846542Y-156122071D01*
X127139659Y-156046811D01*
X127421015Y-155935416D01*
X127421016Y-155935415D01*
X127686208Y-155789624D01*
X127912013Y-155625567D01*
X127912014Y-155625566D01*
X126728210Y-154441762D01*
X126755942Y-154430276D01*
X126880747Y-154346884D01*
X126986884Y-154240747D01*
X127070276Y-154115942D01*
X127081762Y-154088209D01*
X128263237Y-155269684D01*
X128344536Y-155171413D01*
X128506682Y-154915910D01*
X128506686Y-154915904D01*
X128635531Y-154642096D01*
X128635533Y-154642091D01*
X128729046Y-154354286D01*
X128785753Y-154057018D01*
X128785754Y-154057011D01*
X128804755Y-153755005D01*
X128804755Y-153754994D01*
X128785754Y-153452988D01*
X128785753Y-153452981D01*
X128729046Y-153155713D01*
X128635533Y-152867908D01*
X128635531Y-152867903D01*
X128506686Y-152594095D01*
X128506682Y-152594089D01*
X128344539Y-152338591D01*
X128263236Y-152240313D01*
X127081762Y-153421788D01*
X127070276Y-153394058D01*
X126986884Y-153269253D01*
X126880747Y-153163116D01*
X126755942Y-153079724D01*
X126728209Y-153068236D01*
X127912014Y-151884432D01*
X127912013Y-151884430D01*
X127686213Y-151720378D01*
X127421016Y-151574584D01*
X127421015Y-151574583D01*
X127139659Y-151463188D01*
X126846542Y-151387928D01*
X126846533Y-151387926D01*
X126546321Y-151350000D01*
X126243678Y-151350000D01*
X125943466Y-151387926D01*
X125943457Y-151387928D01*
X125650348Y-151463186D01*
X125525324Y-151512686D01*
X125455746Y-151519062D01*
X125393766Y-151486809D01*
X125359062Y-151426167D01*
X125362257Y-151357537D01*
X125425584Y-151170985D01*
X125483854Y-150878042D01*
X125502078Y-150600007D01*
X125503389Y-150580007D01*
X125503389Y-150579992D01*
X125483855Y-150281974D01*
X125483854Y-150281958D01*
X125425584Y-149989015D01*
X125362257Y-149802462D01*
X125359348Y-149732656D01*
X125394642Y-149672356D01*
X125456934Y-149640709D01*
X125525325Y-149647314D01*
X125650343Y-149696812D01*
X125943457Y-149772071D01*
X125943466Y-149772073D01*
X126243678Y-149809999D01*
X126243692Y-149810000D01*
X126546308Y-149810000D01*
X126546321Y-149809999D01*
X126846533Y-149772073D01*
X126846542Y-149772071D01*
X127139659Y-149696811D01*
X127421015Y-149585416D01*
X127421016Y-149585415D01*
X127686208Y-149439624D01*
X127912013Y-149275567D01*
X127912014Y-149275566D01*
X126728209Y-148091763D01*
X126755942Y-148080276D01*
X126880747Y-147996884D01*
X126986884Y-147890747D01*
X127070276Y-147765942D01*
X127081762Y-147738209D01*
X128263237Y-148919684D01*
X128344536Y-148821413D01*
X128506682Y-148565910D01*
X128506686Y-148565904D01*
X128635531Y-148292096D01*
X128635533Y-148292091D01*
X128729046Y-148004286D01*
X128785753Y-147707018D01*
X128785754Y-147707011D01*
X128804755Y-147405005D01*
X128804755Y-147404994D01*
X128800351Y-147334994D01*
X139455245Y-147334994D01*
X139455245Y-147335005D01*
X139474245Y-147637011D01*
X139474246Y-147637018D01*
X139530953Y-147934286D01*
X139624466Y-148222091D01*
X139624468Y-148222096D01*
X139753313Y-148495904D01*
X139753317Y-148495910D01*
X139915460Y-148751408D01*
X139996761Y-148849684D01*
X141178236Y-147668209D01*
X141189724Y-147695942D01*
X141273116Y-147820747D01*
X141379253Y-147926884D01*
X141504058Y-148010276D01*
X141531789Y-148021762D01*
X140347984Y-149205566D01*
X140347985Y-149205568D01*
X140573786Y-149369621D01*
X140838983Y-149515415D01*
X140838984Y-149515416D01*
X141120340Y-149626811D01*
X141413457Y-149702071D01*
X141413466Y-149702073D01*
X141713678Y-149739999D01*
X141713692Y-149740000D01*
X142016308Y-149740000D01*
X142016321Y-149739999D01*
X142316533Y-149702073D01*
X142316542Y-149702071D01*
X142609658Y-149626811D01*
X142734674Y-149577315D01*
X142804252Y-149570938D01*
X142866232Y-149603190D01*
X142900936Y-149663832D01*
X142897740Y-149732465D01*
X142834419Y-149919002D01*
X142834414Y-149919022D01*
X142776148Y-150211947D01*
X142776144Y-150211974D01*
X142756611Y-150509992D01*
X142756611Y-150510007D01*
X142776144Y-150808025D01*
X142776145Y-150808035D01*
X142776146Y-150808042D01*
X142776148Y-150808052D01*
X142834414Y-151100977D01*
X142834419Y-151100997D01*
X142897740Y-151287534D01*
X142900650Y-151357343D01*
X142865355Y-151417643D01*
X142803063Y-151449289D01*
X142734674Y-151442685D01*
X142609651Y-151393186D01*
X142316542Y-151317928D01*
X142316533Y-151317926D01*
X142016321Y-151280000D01*
X141713678Y-151280000D01*
X141413466Y-151317926D01*
X141413457Y-151317928D01*
X141120340Y-151393188D01*
X140838984Y-151504583D01*
X140838983Y-151504584D01*
X140573789Y-151650377D01*
X140573777Y-151650384D01*
X140347985Y-151814431D01*
X140347984Y-151814432D01*
X141531790Y-152998236D01*
X141504058Y-153009724D01*
X141379253Y-153093116D01*
X141273116Y-153199253D01*
X141189724Y-153324058D01*
X141178237Y-153351789D01*
X139996761Y-152170313D01*
X139915463Y-152268586D01*
X139753317Y-152524089D01*
X139753313Y-152524095D01*
X139624468Y-152797903D01*
X139624466Y-152797908D01*
X139530953Y-153085713D01*
X139474246Y-153382981D01*
X139474245Y-153382988D01*
X139455245Y-153684994D01*
X139455245Y-153685005D01*
X139474245Y-153987011D01*
X139474246Y-153987018D01*
X139530953Y-154284286D01*
X139624466Y-154572091D01*
X139624468Y-154572096D01*
X139753313Y-154845904D01*
X139753317Y-154845910D01*
X139915460Y-155101408D01*
X139996761Y-155199684D01*
X141178236Y-154018209D01*
X141189724Y-154045942D01*
X141273116Y-154170747D01*
X141379253Y-154276884D01*
X141504058Y-154360276D01*
X141531789Y-154371762D01*
X140347984Y-155555566D01*
X140347985Y-155555568D01*
X140573786Y-155719621D01*
X140838983Y-155865415D01*
X140838984Y-155865416D01*
X141120340Y-155976811D01*
X141413457Y-156052071D01*
X141413466Y-156052073D01*
X141713678Y-156089999D01*
X141713692Y-156090000D01*
X142016308Y-156090000D01*
X142016321Y-156089999D01*
X142316533Y-156052073D01*
X142316542Y-156052071D01*
X142609659Y-155976811D01*
X142891015Y-155865416D01*
X142891016Y-155865415D01*
X143156208Y-155719624D01*
X143382013Y-155555567D01*
X143382014Y-155555566D01*
X142198210Y-154371762D01*
X142225942Y-154360276D01*
X142350747Y-154276884D01*
X142456884Y-154170747D01*
X142540276Y-154045942D01*
X142551763Y-154018209D01*
X143733237Y-155199684D01*
X143814536Y-155101413D01*
X143976682Y-154845910D01*
X143976686Y-154845904D01*
X144105531Y-154572096D01*
X144105533Y-154572091D01*
X144199046Y-154284286D01*
X144255753Y-153987018D01*
X144255754Y-153987011D01*
X144274755Y-153685005D01*
X144274755Y-153684994D01*
X144255754Y-153382988D01*
X144255753Y-153382981D01*
X144199046Y-153085713D01*
X144109324Y-152809574D01*
X144107329Y-152739733D01*
X144143410Y-152679900D01*
X144206111Y-152649072D01*
X144267114Y-152653837D01*
X144449015Y-152715584D01*
X144741958Y-152773854D01*
X144768307Y-152775581D01*
X145039993Y-152793389D01*
X145040000Y-152793389D01*
X145040007Y-152793389D01*
X145301944Y-152776220D01*
X145338042Y-152773854D01*
X145630985Y-152715584D01*
X145812888Y-152653835D01*
X145882695Y-152650926D01*
X145942995Y-152686220D01*
X145974642Y-152748512D01*
X145970676Y-152809573D01*
X145880953Y-153085713D01*
X145824246Y-153382981D01*
X145824245Y-153382988D01*
X145805245Y-153684994D01*
X145805245Y-153685005D01*
X145824245Y-153987011D01*
X145824246Y-153987018D01*
X145880953Y-154284286D01*
X145974466Y-154572091D01*
X145974468Y-154572096D01*
X146103313Y-154845904D01*
X146103317Y-154845910D01*
X146265460Y-155101408D01*
X146346761Y-155199684D01*
X147528236Y-154018208D01*
X147539724Y-154045942D01*
X147623116Y-154170747D01*
X147729253Y-154276884D01*
X147854058Y-154360276D01*
X147881789Y-154371762D01*
X146697984Y-155555566D01*
X146697985Y-155555568D01*
X146923786Y-155719621D01*
X147188983Y-155865415D01*
X147188984Y-155865416D01*
X147470340Y-155976811D01*
X147763457Y-156052071D01*
X147763466Y-156052073D01*
X148063678Y-156089999D01*
X148063692Y-156090000D01*
X148366308Y-156090000D01*
X148366321Y-156089999D01*
X148666533Y-156052073D01*
X148666542Y-156052071D01*
X148959659Y-155976811D01*
X149241015Y-155865416D01*
X149241016Y-155865415D01*
X149506208Y-155719624D01*
X149732013Y-155555567D01*
X149732014Y-155555566D01*
X148548210Y-154371762D01*
X148575942Y-154360276D01*
X148700747Y-154276884D01*
X148806884Y-154170747D01*
X148890276Y-154045942D01*
X148901762Y-154018209D01*
X150083237Y-155199684D01*
X150164536Y-155101413D01*
X150326682Y-154845910D01*
X150326686Y-154845904D01*
X150455531Y-154572096D01*
X150455533Y-154572091D01*
X150549046Y-154284286D01*
X150605753Y-153987018D01*
X150605754Y-153987011D01*
X150624755Y-153685005D01*
X150624755Y-153684994D01*
X150605754Y-153382988D01*
X150605753Y-153382981D01*
X150549046Y-153085713D01*
X150455533Y-152797908D01*
X150455531Y-152797903D01*
X150326686Y-152524095D01*
X150326682Y-152524089D01*
X150164539Y-152268591D01*
X150083236Y-152170313D01*
X148901762Y-153351788D01*
X148890276Y-153324058D01*
X148806884Y-153199253D01*
X148700747Y-153093116D01*
X148575942Y-153009724D01*
X148548209Y-152998236D01*
X149732014Y-151814432D01*
X149732013Y-151814430D01*
X149506213Y-151650378D01*
X149241016Y-151504584D01*
X149241015Y-151504583D01*
X148959659Y-151393188D01*
X148666542Y-151317928D01*
X148666533Y-151317926D01*
X148366321Y-151280000D01*
X148063678Y-151280000D01*
X147763466Y-151317926D01*
X147763457Y-151317928D01*
X147470348Y-151393186D01*
X147345324Y-151442686D01*
X147275746Y-151449062D01*
X147213766Y-151416809D01*
X147179062Y-151356167D01*
X147182257Y-151287537D01*
X147245584Y-151100985D01*
X147303854Y-150808042D01*
X147317491Y-150599992D01*
X147323389Y-150510007D01*
X147323389Y-150509992D01*
X147303855Y-150211974D01*
X147303854Y-150211958D01*
X147245584Y-149919015D01*
X147182257Y-149732462D01*
X147179348Y-149662656D01*
X147214642Y-149602356D01*
X147276934Y-149570709D01*
X147345325Y-149577314D01*
X147470343Y-149626812D01*
X147763457Y-149702071D01*
X147763466Y-149702073D01*
X148063678Y-149739999D01*
X148063692Y-149740000D01*
X148366308Y-149740000D01*
X148366321Y-149739999D01*
X148666533Y-149702073D01*
X148666542Y-149702071D01*
X148959659Y-149626811D01*
X149241015Y-149515416D01*
X149241016Y-149515415D01*
X149506208Y-149369624D01*
X149732013Y-149205567D01*
X149732014Y-149205566D01*
X148548209Y-148021763D01*
X148575942Y-148010276D01*
X148700747Y-147926884D01*
X148806884Y-147820747D01*
X148890276Y-147695942D01*
X148901762Y-147668209D01*
X150083237Y-148849684D01*
X150164536Y-148751413D01*
X150326682Y-148495910D01*
X150326686Y-148495904D01*
X150455531Y-148222096D01*
X150455533Y-148222091D01*
X150549046Y-147934286D01*
X150605753Y-147637018D01*
X150605754Y-147637011D01*
X150620981Y-147394994D01*
X177055245Y-147394994D01*
X177055245Y-147395005D01*
X177074245Y-147697011D01*
X177074246Y-147697018D01*
X177130953Y-147994286D01*
X177224466Y-148282091D01*
X177224468Y-148282096D01*
X177353313Y-148555904D01*
X177353317Y-148555910D01*
X177515460Y-148811408D01*
X177596761Y-148909684D01*
X178778236Y-147728209D01*
X178789724Y-147755942D01*
X178873116Y-147880747D01*
X178979253Y-147986884D01*
X179104058Y-148070276D01*
X179131789Y-148081762D01*
X177947984Y-149265566D01*
X177947985Y-149265568D01*
X178173786Y-149429621D01*
X178438983Y-149575415D01*
X178438984Y-149575416D01*
X178720340Y-149686811D01*
X179013457Y-149762071D01*
X179013466Y-149762073D01*
X179313678Y-149799999D01*
X179313692Y-149800000D01*
X179616308Y-149800000D01*
X179616321Y-149799999D01*
X179916533Y-149762073D01*
X179916542Y-149762071D01*
X180209658Y-149686811D01*
X180334674Y-149637315D01*
X180404252Y-149630938D01*
X180466232Y-149663190D01*
X180500936Y-149723832D01*
X180497740Y-149792465D01*
X180434419Y-149979002D01*
X180434414Y-149979022D01*
X180376148Y-150271947D01*
X180376144Y-150271974D01*
X180356611Y-150569992D01*
X180356611Y-150570007D01*
X180376144Y-150868025D01*
X180376145Y-150868035D01*
X180376146Y-150868042D01*
X180376148Y-150868052D01*
X180434414Y-151160977D01*
X180434419Y-151160997D01*
X180497740Y-151347534D01*
X180500650Y-151417343D01*
X180465355Y-151477643D01*
X180403063Y-151509289D01*
X180334674Y-151502685D01*
X180209651Y-151453186D01*
X179916542Y-151377928D01*
X179916533Y-151377926D01*
X179616321Y-151340000D01*
X179313678Y-151340000D01*
X179013466Y-151377926D01*
X179013457Y-151377928D01*
X178720340Y-151453188D01*
X178438984Y-151564583D01*
X178438983Y-151564584D01*
X178173789Y-151710377D01*
X178173777Y-151710384D01*
X177947985Y-151874431D01*
X177947984Y-151874432D01*
X179131790Y-153058236D01*
X179104058Y-153069724D01*
X178979253Y-153153116D01*
X178873116Y-153259253D01*
X178789724Y-153384058D01*
X178778237Y-153411789D01*
X177596761Y-152230313D01*
X177515463Y-152328586D01*
X177353317Y-152584089D01*
X177353313Y-152584095D01*
X177224468Y-152857903D01*
X177224466Y-152857908D01*
X177130953Y-153145713D01*
X177074246Y-153442981D01*
X177074245Y-153442988D01*
X177055245Y-153744994D01*
X177055245Y-153745005D01*
X177074245Y-154047011D01*
X177074246Y-154047018D01*
X177130953Y-154344286D01*
X177224466Y-154632091D01*
X177224468Y-154632096D01*
X177353313Y-154905904D01*
X177353317Y-154905910D01*
X177515460Y-155161408D01*
X177596761Y-155259684D01*
X178778236Y-154078209D01*
X178789724Y-154105942D01*
X178873116Y-154230747D01*
X178979253Y-154336884D01*
X179104058Y-154420276D01*
X179131789Y-154431762D01*
X177947984Y-155615566D01*
X177947985Y-155615568D01*
X178173786Y-155779621D01*
X178438983Y-155925415D01*
X178438984Y-155925416D01*
X178720340Y-156036811D01*
X179013457Y-156112071D01*
X179013466Y-156112073D01*
X179313678Y-156149999D01*
X179313692Y-156150000D01*
X179616308Y-156150000D01*
X179616321Y-156149999D01*
X179916533Y-156112073D01*
X179916542Y-156112071D01*
X180209659Y-156036811D01*
X180491015Y-155925416D01*
X180491016Y-155925415D01*
X180756208Y-155779624D01*
X180982013Y-155615567D01*
X180982014Y-155615566D01*
X179798210Y-154431762D01*
X179825942Y-154420276D01*
X179950747Y-154336884D01*
X180056884Y-154230747D01*
X180140276Y-154105942D01*
X180151763Y-154078209D01*
X181333237Y-155259684D01*
X181414536Y-155161413D01*
X181576682Y-154905910D01*
X181576686Y-154905904D01*
X181705531Y-154632096D01*
X181705533Y-154632091D01*
X181799046Y-154344286D01*
X181855753Y-154047018D01*
X181855754Y-154047011D01*
X181874755Y-153745005D01*
X181874755Y-153744994D01*
X181855754Y-153442988D01*
X181855753Y-153442981D01*
X181799046Y-153145713D01*
X181709324Y-152869574D01*
X181707329Y-152799733D01*
X181743410Y-152739900D01*
X181806111Y-152709072D01*
X181867114Y-152713837D01*
X181896573Y-152723837D01*
X182049015Y-152775584D01*
X182341958Y-152833854D01*
X182370577Y-152835729D01*
X182639993Y-152853389D01*
X182640000Y-152853389D01*
X182640007Y-152853389D01*
X182878607Y-152837749D01*
X182938042Y-152833854D01*
X183230985Y-152775584D01*
X183412888Y-152713835D01*
X183482695Y-152710926D01*
X183542995Y-152746220D01*
X183574642Y-152808512D01*
X183570676Y-152869573D01*
X183480953Y-153145713D01*
X183424246Y-153442981D01*
X183424245Y-153442988D01*
X183405245Y-153744994D01*
X183405245Y-153745005D01*
X183424245Y-154047011D01*
X183424246Y-154047018D01*
X183480953Y-154344286D01*
X183574466Y-154632091D01*
X183574468Y-154632096D01*
X183703313Y-154905904D01*
X183703317Y-154905910D01*
X183865460Y-155161408D01*
X183946761Y-155259684D01*
X185128236Y-154078208D01*
X185139724Y-154105942D01*
X185223116Y-154230747D01*
X185329253Y-154336884D01*
X185454058Y-154420276D01*
X185481789Y-154431762D01*
X184297984Y-155615566D01*
X184297985Y-155615568D01*
X184523786Y-155779621D01*
X184788983Y-155925415D01*
X184788984Y-155925416D01*
X185070340Y-156036811D01*
X185363457Y-156112071D01*
X185363466Y-156112073D01*
X185663678Y-156149999D01*
X185663692Y-156150000D01*
X185966308Y-156150000D01*
X185966321Y-156149999D01*
X186266533Y-156112073D01*
X186266542Y-156112071D01*
X186559659Y-156036811D01*
X186841015Y-155925416D01*
X186841016Y-155925415D01*
X187106208Y-155779624D01*
X187332013Y-155615567D01*
X187332014Y-155615566D01*
X186148210Y-154431762D01*
X186175942Y-154420276D01*
X186300747Y-154336884D01*
X186406884Y-154230747D01*
X186490276Y-154105942D01*
X186501762Y-154078209D01*
X187683237Y-155259684D01*
X187764536Y-155161413D01*
X187926682Y-154905910D01*
X187926686Y-154905904D01*
X188055531Y-154632096D01*
X188055533Y-154632091D01*
X188149046Y-154344286D01*
X188205753Y-154047018D01*
X188205754Y-154047011D01*
X188224755Y-153745005D01*
X188224755Y-153744994D01*
X188205754Y-153442988D01*
X188205753Y-153442981D01*
X188149046Y-153145713D01*
X188055533Y-152857908D01*
X188055531Y-152857903D01*
X187926686Y-152584095D01*
X187926682Y-152584089D01*
X187764539Y-152328591D01*
X187683236Y-152230313D01*
X186501762Y-153411788D01*
X186490276Y-153384058D01*
X186406884Y-153259253D01*
X186300747Y-153153116D01*
X186175942Y-153069724D01*
X186148209Y-153058236D01*
X187332014Y-151874432D01*
X187332013Y-151874430D01*
X187106213Y-151710378D01*
X186841016Y-151564584D01*
X186841015Y-151564583D01*
X186559659Y-151453188D01*
X186266542Y-151377928D01*
X186266533Y-151377926D01*
X185966321Y-151340000D01*
X185663678Y-151340000D01*
X185363466Y-151377926D01*
X185363457Y-151377928D01*
X185070348Y-151453186D01*
X184945324Y-151502686D01*
X184875746Y-151509062D01*
X184813766Y-151476809D01*
X184779062Y-151416167D01*
X184782257Y-151347537D01*
X184845584Y-151160985D01*
X184903854Y-150868042D01*
X184912119Y-150741947D01*
X184923389Y-150570007D01*
X184923389Y-150569992D01*
X184903855Y-150271974D01*
X184903854Y-150271958D01*
X184845584Y-149979015D01*
X184782257Y-149792462D01*
X184779348Y-149722656D01*
X184814642Y-149662356D01*
X184876934Y-149630709D01*
X184945325Y-149637314D01*
X185070343Y-149686812D01*
X185363457Y-149762071D01*
X185363466Y-149762073D01*
X185663678Y-149799999D01*
X185663692Y-149800000D01*
X185966308Y-149800000D01*
X185966321Y-149799999D01*
X186266533Y-149762073D01*
X186266542Y-149762071D01*
X186559659Y-149686811D01*
X186841015Y-149575416D01*
X186841016Y-149575415D01*
X187106208Y-149429624D01*
X187332013Y-149265567D01*
X187332014Y-149265566D01*
X186148209Y-148081763D01*
X186175942Y-148070276D01*
X186300747Y-147986884D01*
X186406884Y-147880747D01*
X186490276Y-147755942D01*
X186501762Y-147728209D01*
X187683237Y-148909684D01*
X187764536Y-148811413D01*
X187926682Y-148555910D01*
X187926686Y-148555904D01*
X188055531Y-148282096D01*
X188055533Y-148282091D01*
X188149046Y-147994286D01*
X188173710Y-147864994D01*
X234470245Y-147864994D01*
X234470245Y-147865005D01*
X234489245Y-148167011D01*
X234489246Y-148167018D01*
X234545953Y-148464286D01*
X234639466Y-148752091D01*
X234639468Y-148752096D01*
X234768313Y-149025904D01*
X234768317Y-149025910D01*
X234930460Y-149281408D01*
X235011761Y-149379684D01*
X236193236Y-148198209D01*
X236204724Y-148225942D01*
X236288116Y-148350747D01*
X236394253Y-148456884D01*
X236519058Y-148540276D01*
X236546789Y-148551762D01*
X235362984Y-149735566D01*
X235362985Y-149735568D01*
X235588786Y-149899621D01*
X235853983Y-150045415D01*
X235853984Y-150045416D01*
X236135340Y-150156811D01*
X236428457Y-150232071D01*
X236428466Y-150232073D01*
X236728678Y-150269999D01*
X236728692Y-150270000D01*
X237031308Y-150270000D01*
X237031321Y-150269999D01*
X237331533Y-150232073D01*
X237331542Y-150232071D01*
X237624658Y-150156811D01*
X237749674Y-150107315D01*
X237819252Y-150100938D01*
X237881232Y-150133190D01*
X237915936Y-150193832D01*
X237912740Y-150262465D01*
X237849419Y-150449002D01*
X237849414Y-150449022D01*
X237791148Y-150741947D01*
X237791144Y-150741974D01*
X237771611Y-151039992D01*
X237771611Y-151040007D01*
X237791144Y-151338025D01*
X237791145Y-151338035D01*
X237791146Y-151338042D01*
X237791148Y-151338052D01*
X237849414Y-151630977D01*
X237849419Y-151630997D01*
X237912740Y-151817534D01*
X237915650Y-151887343D01*
X237880355Y-151947643D01*
X237818063Y-151979289D01*
X237749674Y-151972685D01*
X237624651Y-151923186D01*
X237331542Y-151847928D01*
X237331533Y-151847926D01*
X237031321Y-151810000D01*
X236728678Y-151810000D01*
X236428466Y-151847926D01*
X236428457Y-151847928D01*
X236135340Y-151923188D01*
X235853984Y-152034583D01*
X235853983Y-152034584D01*
X235588789Y-152180377D01*
X235588777Y-152180384D01*
X235362985Y-152344431D01*
X235362984Y-152344432D01*
X236546790Y-153528236D01*
X236519058Y-153539724D01*
X236394253Y-153623116D01*
X236288116Y-153729253D01*
X236204724Y-153854058D01*
X236193237Y-153881789D01*
X235011761Y-152700313D01*
X234930463Y-152798586D01*
X234768317Y-153054089D01*
X234768313Y-153054095D01*
X234639468Y-153327903D01*
X234639466Y-153327908D01*
X234545953Y-153615713D01*
X234489246Y-153912981D01*
X234489245Y-153912988D01*
X234470245Y-154214994D01*
X234470245Y-154215005D01*
X234489245Y-154517011D01*
X234489246Y-154517018D01*
X234545953Y-154814286D01*
X234639466Y-155102091D01*
X234639468Y-155102096D01*
X234768313Y-155375904D01*
X234768317Y-155375910D01*
X234930460Y-155631408D01*
X235011761Y-155729684D01*
X236193236Y-154548209D01*
X236204724Y-154575942D01*
X236288116Y-154700747D01*
X236394253Y-154806884D01*
X236519058Y-154890276D01*
X236546789Y-154901762D01*
X235362984Y-156085566D01*
X235362985Y-156085568D01*
X235588786Y-156249621D01*
X235853983Y-156395415D01*
X235853984Y-156395416D01*
X236135340Y-156506811D01*
X236428457Y-156582071D01*
X236428466Y-156582073D01*
X236728678Y-156619999D01*
X236728692Y-156620000D01*
X237031308Y-156620000D01*
X237031321Y-156619999D01*
X237331533Y-156582073D01*
X237331542Y-156582071D01*
X237624659Y-156506811D01*
X237906015Y-156395416D01*
X237906016Y-156395415D01*
X238171208Y-156249624D01*
X238397013Y-156085567D01*
X238397014Y-156085566D01*
X237213210Y-154901762D01*
X237240942Y-154890276D01*
X237365747Y-154806884D01*
X237471884Y-154700747D01*
X237555276Y-154575942D01*
X237566763Y-154548209D01*
X238748237Y-155729684D01*
X238829536Y-155631413D01*
X238991682Y-155375910D01*
X238991686Y-155375904D01*
X239120531Y-155102096D01*
X239120533Y-155102091D01*
X239214046Y-154814286D01*
X239270753Y-154517018D01*
X239270754Y-154517011D01*
X239289755Y-154215005D01*
X239289755Y-154214994D01*
X239270754Y-153912988D01*
X239270753Y-153912981D01*
X239214046Y-153615713D01*
X239124324Y-153339574D01*
X239122329Y-153269733D01*
X239158410Y-153209900D01*
X239221111Y-153179072D01*
X239282114Y-153183837D01*
X239464015Y-153245584D01*
X239756958Y-153303854D01*
X239785577Y-153305729D01*
X240054993Y-153323389D01*
X240055000Y-153323389D01*
X240055007Y-153323389D01*
X240293607Y-153307749D01*
X240353042Y-153303854D01*
X240645985Y-153245584D01*
X240827888Y-153183835D01*
X240897695Y-153180926D01*
X240957995Y-153216220D01*
X240989642Y-153278512D01*
X240985676Y-153339573D01*
X240895953Y-153615713D01*
X240839246Y-153912981D01*
X240839245Y-153912988D01*
X240820245Y-154214994D01*
X240820245Y-154215005D01*
X240839245Y-154517011D01*
X240839246Y-154517018D01*
X240895953Y-154814286D01*
X240989466Y-155102091D01*
X240989468Y-155102096D01*
X241118313Y-155375904D01*
X241118317Y-155375910D01*
X241280460Y-155631408D01*
X241361761Y-155729684D01*
X242543236Y-154548208D01*
X242554724Y-154575942D01*
X242638116Y-154700747D01*
X242744253Y-154806884D01*
X242869058Y-154890276D01*
X242896789Y-154901762D01*
X241712984Y-156085566D01*
X241712985Y-156085568D01*
X241938786Y-156249621D01*
X242203983Y-156395415D01*
X242203984Y-156395416D01*
X242485340Y-156506811D01*
X242778457Y-156582071D01*
X242778466Y-156582073D01*
X243078678Y-156619999D01*
X243078692Y-156620000D01*
X243381308Y-156620000D01*
X243381321Y-156619999D01*
X243681533Y-156582073D01*
X243681542Y-156582071D01*
X243974659Y-156506811D01*
X244256015Y-156395416D01*
X244256016Y-156395415D01*
X244521208Y-156249624D01*
X244747013Y-156085567D01*
X244747014Y-156085566D01*
X243563210Y-154901762D01*
X243590942Y-154890276D01*
X243715747Y-154806884D01*
X243821884Y-154700747D01*
X243905276Y-154575942D01*
X243916762Y-154548209D01*
X245098237Y-155729684D01*
X245179536Y-155631413D01*
X245341682Y-155375910D01*
X245341686Y-155375904D01*
X245470531Y-155102096D01*
X245470533Y-155102091D01*
X245564046Y-154814286D01*
X245620753Y-154517018D01*
X245620754Y-154517011D01*
X245639755Y-154215005D01*
X245639755Y-154214994D01*
X245620754Y-153912988D01*
X245620753Y-153912981D01*
X245564046Y-153615713D01*
X245470533Y-153327908D01*
X245470531Y-153327903D01*
X245341686Y-153054095D01*
X245341682Y-153054089D01*
X245179539Y-152798591D01*
X245098236Y-152700313D01*
X243916762Y-153881788D01*
X243905276Y-153854058D01*
X243821884Y-153729253D01*
X243715747Y-153623116D01*
X243590942Y-153539724D01*
X243563209Y-153528236D01*
X244747014Y-152344432D01*
X244747013Y-152344430D01*
X244521213Y-152180378D01*
X244256016Y-152034584D01*
X244256015Y-152034583D01*
X243974659Y-151923188D01*
X243681542Y-151847928D01*
X243681533Y-151847926D01*
X243381321Y-151810000D01*
X243078678Y-151810000D01*
X242778466Y-151847926D01*
X242778457Y-151847928D01*
X242485348Y-151923186D01*
X242360324Y-151972686D01*
X242290746Y-151979062D01*
X242228766Y-151946809D01*
X242194062Y-151886167D01*
X242197257Y-151817537D01*
X242260584Y-151630985D01*
X242318854Y-151338042D01*
X242329804Y-151170977D01*
X242338389Y-151040007D01*
X242338389Y-151039992D01*
X242318855Y-150741974D01*
X242318854Y-150741958D01*
X242260584Y-150449015D01*
X242197257Y-150262462D01*
X242194348Y-150192656D01*
X242229642Y-150132356D01*
X242291934Y-150100709D01*
X242360325Y-150107314D01*
X242485343Y-150156812D01*
X242778457Y-150232071D01*
X242778466Y-150232073D01*
X243078678Y-150269999D01*
X243078692Y-150270000D01*
X243381308Y-150270000D01*
X243381321Y-150269999D01*
X243681533Y-150232073D01*
X243681542Y-150232071D01*
X243974659Y-150156811D01*
X244256015Y-150045416D01*
X244256016Y-150045415D01*
X244521208Y-149899624D01*
X244747013Y-149735567D01*
X244747014Y-149735566D01*
X243563209Y-148551763D01*
X243590942Y-148540276D01*
X243715747Y-148456884D01*
X243821884Y-148350747D01*
X243905276Y-148225942D01*
X243916762Y-148198209D01*
X245098237Y-149379684D01*
X245179536Y-149281413D01*
X245341682Y-149025910D01*
X245341686Y-149025904D01*
X245470531Y-148752096D01*
X245470533Y-148752091D01*
X245564046Y-148464286D01*
X245620753Y-148167018D01*
X245620754Y-148167011D01*
X245639755Y-147865005D01*
X245639755Y-147864994D01*
X245620754Y-147562988D01*
X245620753Y-147562981D01*
X245564046Y-147265713D01*
X245470533Y-146977908D01*
X245470531Y-146977903D01*
X245341686Y-146704095D01*
X245341682Y-146704089D01*
X245179539Y-146448591D01*
X245098236Y-146350313D01*
X243916762Y-147531788D01*
X243905276Y-147504058D01*
X243821884Y-147379253D01*
X243715747Y-147273116D01*
X243590942Y-147189724D01*
X243563208Y-147178236D01*
X244747014Y-145994432D01*
X244747013Y-145994430D01*
X244521213Y-145830378D01*
X244256016Y-145684584D01*
X244256015Y-145684583D01*
X243974659Y-145573188D01*
X243681542Y-145497928D01*
X243681533Y-145497926D01*
X243381321Y-145460000D01*
X243078678Y-145460000D01*
X242778466Y-145497926D01*
X242778457Y-145497928D01*
X242485340Y-145573188D01*
X242203984Y-145684583D01*
X242203983Y-145684584D01*
X241938789Y-145830377D01*
X241938777Y-145830384D01*
X241712985Y-145994431D01*
X241712984Y-145994432D01*
X242896789Y-147178237D01*
X242869058Y-147189724D01*
X242744253Y-147273116D01*
X242638116Y-147379253D01*
X242554724Y-147504058D01*
X242543236Y-147531790D01*
X241361761Y-146350313D01*
X241280463Y-146448586D01*
X241118317Y-146704089D01*
X241118313Y-146704095D01*
X240989468Y-146977903D01*
X240989466Y-146977908D01*
X240895953Y-147265713D01*
X240839246Y-147562981D01*
X240839245Y-147562988D01*
X240820245Y-147864994D01*
X240820245Y-147865005D01*
X240839245Y-148167011D01*
X240839246Y-148167018D01*
X240895953Y-148464286D01*
X240985675Y-148740425D01*
X240987670Y-148810267D01*
X240951589Y-148870099D01*
X240888888Y-148900927D01*
X240827886Y-148896162D01*
X240645997Y-148834419D01*
X240645977Y-148834414D01*
X240353052Y-148776148D01*
X240353042Y-148776146D01*
X240353035Y-148776145D01*
X240353025Y-148776144D01*
X240055007Y-148756611D01*
X240054993Y-148756611D01*
X239756974Y-148776144D01*
X239756962Y-148776145D01*
X239756958Y-148776146D01*
X239756950Y-148776147D01*
X239756947Y-148776148D01*
X239464022Y-148834414D01*
X239464017Y-148834415D01*
X239464015Y-148834416D01*
X239443403Y-148841413D01*
X239282113Y-148896163D01*
X239212304Y-148899071D01*
X239152004Y-148863777D01*
X239120358Y-148801485D01*
X239124324Y-148740425D01*
X239214046Y-148464286D01*
X239270753Y-148167018D01*
X239270754Y-148167011D01*
X239289755Y-147865005D01*
X239289755Y-147864994D01*
X239270754Y-147562988D01*
X239270753Y-147562981D01*
X239214046Y-147265713D01*
X239120533Y-146977908D01*
X239120531Y-146977903D01*
X238991686Y-146704095D01*
X238991682Y-146704089D01*
X238829539Y-146448591D01*
X238748236Y-146350313D01*
X237566762Y-147531789D01*
X237555276Y-147504058D01*
X237471884Y-147379253D01*
X237365747Y-147273116D01*
X237240942Y-147189724D01*
X237213208Y-147178236D01*
X238397014Y-145994432D01*
X238397013Y-145994430D01*
X238171213Y-145830378D01*
X237906016Y-145684584D01*
X237906015Y-145684583D01*
X237624659Y-145573188D01*
X237331542Y-145497928D01*
X237331533Y-145497926D01*
X237031321Y-145460000D01*
X236728678Y-145460000D01*
X236428466Y-145497926D01*
X236428457Y-145497928D01*
X236135340Y-145573188D01*
X235853984Y-145684583D01*
X235853983Y-145684584D01*
X235588789Y-145830377D01*
X235588777Y-145830384D01*
X235362985Y-145994431D01*
X235362984Y-145994432D01*
X236546789Y-147178237D01*
X236519058Y-147189724D01*
X236394253Y-147273116D01*
X236288116Y-147379253D01*
X236204724Y-147504058D01*
X236193237Y-147531789D01*
X235011761Y-146350313D01*
X234930463Y-146448586D01*
X234768317Y-146704089D01*
X234768313Y-146704095D01*
X234639468Y-146977903D01*
X234639466Y-146977908D01*
X234545953Y-147265713D01*
X234489246Y-147562981D01*
X234489245Y-147562988D01*
X234470245Y-147864994D01*
X188173710Y-147864994D01*
X188205753Y-147697018D01*
X188205754Y-147697011D01*
X188224755Y-147395005D01*
X188224755Y-147394994D01*
X188205754Y-147092988D01*
X188205753Y-147092981D01*
X188149046Y-146795713D01*
X188055533Y-146507908D01*
X188055531Y-146507903D01*
X187926686Y-146234095D01*
X187926682Y-146234089D01*
X187764539Y-145978591D01*
X187683236Y-145880313D01*
X186501762Y-147061788D01*
X186490276Y-147034058D01*
X186406884Y-146909253D01*
X186300747Y-146803116D01*
X186175942Y-146719724D01*
X186148208Y-146708236D01*
X187332014Y-145524432D01*
X187332013Y-145524430D01*
X187106213Y-145360378D01*
X186841016Y-145214584D01*
X186841015Y-145214583D01*
X186559659Y-145103188D01*
X186266542Y-145027928D01*
X186266533Y-145027926D01*
X185966321Y-144990000D01*
X185663678Y-144990000D01*
X185363466Y-145027926D01*
X185363457Y-145027928D01*
X185070340Y-145103188D01*
X184788984Y-145214583D01*
X184788983Y-145214584D01*
X184523789Y-145360377D01*
X184523777Y-145360384D01*
X184297985Y-145524431D01*
X184297984Y-145524432D01*
X185481789Y-146708237D01*
X185454058Y-146719724D01*
X185329253Y-146803116D01*
X185223116Y-146909253D01*
X185139724Y-147034058D01*
X185128236Y-147061790D01*
X183946761Y-145880313D01*
X183865463Y-145978586D01*
X183703317Y-146234089D01*
X183703313Y-146234095D01*
X183574468Y-146507903D01*
X183574466Y-146507908D01*
X183480953Y-146795713D01*
X183424246Y-147092981D01*
X183424245Y-147092988D01*
X183405245Y-147394994D01*
X183405245Y-147395005D01*
X183424245Y-147697011D01*
X183424246Y-147697018D01*
X183480953Y-147994286D01*
X183570675Y-148270425D01*
X183572670Y-148340267D01*
X183536589Y-148400099D01*
X183473888Y-148430927D01*
X183412886Y-148426162D01*
X183230997Y-148364419D01*
X183230977Y-148364414D01*
X182938052Y-148306148D01*
X182938042Y-148306146D01*
X182938035Y-148306145D01*
X182938025Y-148306144D01*
X182640007Y-148286611D01*
X182639993Y-148286611D01*
X182341974Y-148306144D01*
X182341962Y-148306145D01*
X182341958Y-148306146D01*
X182341950Y-148306147D01*
X182341947Y-148306148D01*
X182049022Y-148364414D01*
X182049017Y-148364415D01*
X182049015Y-148364416D01*
X182009832Y-148377717D01*
X181867113Y-148426163D01*
X181797304Y-148429071D01*
X181737004Y-148393777D01*
X181705358Y-148331485D01*
X181709324Y-148270425D01*
X181799046Y-147994286D01*
X181855753Y-147697018D01*
X181855754Y-147697011D01*
X181874755Y-147395005D01*
X181874755Y-147394994D01*
X181855754Y-147092988D01*
X181855753Y-147092981D01*
X181799046Y-146795713D01*
X181705533Y-146507908D01*
X181705531Y-146507903D01*
X181576686Y-146234095D01*
X181576682Y-146234089D01*
X181414539Y-145978591D01*
X181333236Y-145880313D01*
X180151762Y-147061789D01*
X180140276Y-147034058D01*
X180056884Y-146909253D01*
X179950747Y-146803116D01*
X179825942Y-146719724D01*
X179798208Y-146708236D01*
X180982014Y-145524432D01*
X180982013Y-145524430D01*
X180756213Y-145360378D01*
X180491016Y-145214584D01*
X180491015Y-145214583D01*
X180209659Y-145103188D01*
X179916542Y-145027928D01*
X179916533Y-145027926D01*
X179616321Y-144990000D01*
X179313678Y-144990000D01*
X179013466Y-145027926D01*
X179013457Y-145027928D01*
X178720340Y-145103188D01*
X178438984Y-145214583D01*
X178438983Y-145214584D01*
X178173789Y-145360377D01*
X178173777Y-145360384D01*
X177947985Y-145524431D01*
X177947984Y-145524432D01*
X179131789Y-146708237D01*
X179104058Y-146719724D01*
X178979253Y-146803116D01*
X178873116Y-146909253D01*
X178789724Y-147034058D01*
X178778237Y-147061789D01*
X177596761Y-145880313D01*
X177515463Y-145978586D01*
X177353317Y-146234089D01*
X177353313Y-146234095D01*
X177224468Y-146507903D01*
X177224466Y-146507908D01*
X177130953Y-146795713D01*
X177074246Y-147092981D01*
X177074245Y-147092988D01*
X177055245Y-147394994D01*
X150620981Y-147394994D01*
X150624755Y-147335005D01*
X150624755Y-147334994D01*
X150605754Y-147032988D01*
X150605753Y-147032981D01*
X150549046Y-146735713D01*
X150455533Y-146447908D01*
X150455531Y-146447903D01*
X150326686Y-146174095D01*
X150326682Y-146174089D01*
X150164539Y-145918591D01*
X150083236Y-145820313D01*
X148901762Y-147001788D01*
X148890276Y-146974058D01*
X148806884Y-146849253D01*
X148700747Y-146743116D01*
X148575942Y-146659724D01*
X148548208Y-146648236D01*
X149732014Y-145464432D01*
X149732013Y-145464430D01*
X149506213Y-145300378D01*
X149241016Y-145154584D01*
X149241015Y-145154583D01*
X148959659Y-145043188D01*
X148666542Y-144967928D01*
X148666533Y-144967926D01*
X148366321Y-144930000D01*
X148063678Y-144930000D01*
X147763466Y-144967926D01*
X147763457Y-144967928D01*
X147470340Y-145043188D01*
X147188984Y-145154583D01*
X147188983Y-145154584D01*
X146923789Y-145300377D01*
X146923777Y-145300384D01*
X146697985Y-145464431D01*
X146697984Y-145464432D01*
X147881789Y-146648237D01*
X147854058Y-146659724D01*
X147729253Y-146743116D01*
X147623116Y-146849253D01*
X147539724Y-146974058D01*
X147528236Y-147001790D01*
X146346761Y-145820313D01*
X146265463Y-145918586D01*
X146103317Y-146174089D01*
X146103313Y-146174095D01*
X145974468Y-146447903D01*
X145974466Y-146447908D01*
X145880953Y-146735713D01*
X145824246Y-147032981D01*
X145824245Y-147032988D01*
X145805245Y-147334994D01*
X145805245Y-147335005D01*
X145824245Y-147637011D01*
X145824246Y-147637018D01*
X145880953Y-147934286D01*
X145970675Y-148210425D01*
X145972670Y-148280267D01*
X145936589Y-148340099D01*
X145873888Y-148370927D01*
X145812886Y-148366162D01*
X145630997Y-148304419D01*
X145630977Y-148304414D01*
X145338052Y-148246148D01*
X145338042Y-148246146D01*
X145338035Y-148246145D01*
X145338025Y-148246144D01*
X145040007Y-148226611D01*
X145039993Y-148226611D01*
X144741974Y-148246144D01*
X144741962Y-148246145D01*
X144741958Y-148246146D01*
X144741950Y-148246147D01*
X144741947Y-148246148D01*
X144449022Y-148304414D01*
X144449017Y-148304415D01*
X144449015Y-148304416D01*
X144414460Y-148316146D01*
X144267113Y-148366163D01*
X144197304Y-148369071D01*
X144137004Y-148333777D01*
X144105358Y-148271485D01*
X144109324Y-148210425D01*
X144199046Y-147934286D01*
X144255753Y-147637018D01*
X144255754Y-147637011D01*
X144274755Y-147335005D01*
X144274755Y-147334994D01*
X144255754Y-147032988D01*
X144255753Y-147032981D01*
X144199046Y-146735713D01*
X144105533Y-146447908D01*
X144105531Y-146447903D01*
X143976686Y-146174095D01*
X143976682Y-146174089D01*
X143814539Y-145918591D01*
X143733236Y-145820313D01*
X142551762Y-147001789D01*
X142540276Y-146974058D01*
X142456884Y-146849253D01*
X142350747Y-146743116D01*
X142225942Y-146659724D01*
X142198208Y-146648236D01*
X143382014Y-145464432D01*
X143382013Y-145464430D01*
X143156213Y-145300378D01*
X142891016Y-145154584D01*
X142891015Y-145154583D01*
X142609659Y-145043188D01*
X142316542Y-144967928D01*
X142316533Y-144967926D01*
X142016321Y-144930000D01*
X141713678Y-144930000D01*
X141413466Y-144967926D01*
X141413457Y-144967928D01*
X141120340Y-145043188D01*
X140838984Y-145154583D01*
X140838983Y-145154584D01*
X140573789Y-145300377D01*
X140573777Y-145300384D01*
X140347985Y-145464431D01*
X140347984Y-145464432D01*
X141531789Y-146648237D01*
X141504058Y-146659724D01*
X141379253Y-146743116D01*
X141273116Y-146849253D01*
X141189724Y-146974058D01*
X141178237Y-147001789D01*
X139996761Y-145820313D01*
X139915463Y-145918586D01*
X139753317Y-146174089D01*
X139753313Y-146174095D01*
X139624468Y-146447903D01*
X139624466Y-146447908D01*
X139530953Y-146735713D01*
X139474246Y-147032981D01*
X139474245Y-147032988D01*
X139455245Y-147334994D01*
X128800351Y-147334994D01*
X128785754Y-147102988D01*
X128785753Y-147102981D01*
X128729046Y-146805713D01*
X128635533Y-146517908D01*
X128635531Y-146517903D01*
X128506686Y-146244095D01*
X128506682Y-146244089D01*
X128344539Y-145988591D01*
X128263236Y-145890313D01*
X127081762Y-147071788D01*
X127070276Y-147044058D01*
X126986884Y-146919253D01*
X126880747Y-146813116D01*
X126755942Y-146729724D01*
X126728208Y-146718236D01*
X127912014Y-145534432D01*
X127912013Y-145534430D01*
X127686213Y-145370378D01*
X127421016Y-145224584D01*
X127421015Y-145224583D01*
X127139659Y-145113188D01*
X126846542Y-145037928D01*
X126846533Y-145037926D01*
X126546321Y-145000000D01*
X126243678Y-145000000D01*
X125943466Y-145037926D01*
X125943457Y-145037928D01*
X125650340Y-145113188D01*
X125368984Y-145224583D01*
X125368983Y-145224584D01*
X125103789Y-145370377D01*
X125103777Y-145370384D01*
X124877985Y-145534431D01*
X124877984Y-145534432D01*
X126061789Y-146718237D01*
X126034058Y-146729724D01*
X125909253Y-146813116D01*
X125803116Y-146919253D01*
X125719724Y-147044058D01*
X125708236Y-147071790D01*
X124526761Y-145890313D01*
X124445463Y-145988586D01*
X124283317Y-146244089D01*
X124283313Y-146244095D01*
X124154468Y-146517903D01*
X124154466Y-146517908D01*
X124060953Y-146805713D01*
X124004246Y-147102981D01*
X124004245Y-147102988D01*
X123985245Y-147404994D01*
X123985245Y-147405005D01*
X124004245Y-147707011D01*
X124004246Y-147707018D01*
X124060953Y-148004286D01*
X124150675Y-148280425D01*
X124152670Y-148350267D01*
X124116589Y-148410099D01*
X124053888Y-148440927D01*
X123992886Y-148436162D01*
X123810997Y-148374419D01*
X123810977Y-148374414D01*
X123518052Y-148316148D01*
X123518042Y-148316146D01*
X123518035Y-148316145D01*
X123518025Y-148316144D01*
X123220007Y-148296611D01*
X123219993Y-148296611D01*
X122921974Y-148316144D01*
X122921962Y-148316145D01*
X122921958Y-148316146D01*
X122921950Y-148316147D01*
X122921947Y-148316148D01*
X122629022Y-148374414D01*
X122629017Y-148374415D01*
X122629015Y-148374416D01*
X122570103Y-148394414D01*
X122447113Y-148436163D01*
X122377304Y-148439071D01*
X122317004Y-148403777D01*
X122285358Y-148341485D01*
X122289324Y-148280425D01*
X122379046Y-148004286D01*
X122435753Y-147707018D01*
X122435754Y-147707011D01*
X122454755Y-147405005D01*
X122454755Y-147404994D01*
X122435754Y-147102988D01*
X122435753Y-147102981D01*
X122379046Y-146805713D01*
X122285533Y-146517908D01*
X122285531Y-146517903D01*
X122156686Y-146244095D01*
X122156682Y-146244089D01*
X121994539Y-145988591D01*
X121913236Y-145890313D01*
X120731762Y-147071789D01*
X120720276Y-147044058D01*
X120636884Y-146919253D01*
X120530747Y-146813116D01*
X120405942Y-146729724D01*
X120378208Y-146718236D01*
X121562014Y-145534432D01*
X121562013Y-145534430D01*
X121336213Y-145370378D01*
X121071016Y-145224584D01*
X121071015Y-145224583D01*
X120789659Y-145113188D01*
X120496542Y-145037928D01*
X120496533Y-145037926D01*
X120196321Y-145000000D01*
X119893678Y-145000000D01*
X119593466Y-145037926D01*
X119593457Y-145037928D01*
X119300340Y-145113188D01*
X119018984Y-145224583D01*
X119018983Y-145224584D01*
X118753789Y-145370377D01*
X118753777Y-145370384D01*
X118527985Y-145534431D01*
X118527984Y-145534432D01*
X119711789Y-146718237D01*
X119684058Y-146729724D01*
X119559253Y-146813116D01*
X119453116Y-146919253D01*
X119369724Y-147044058D01*
X119358237Y-147071789D01*
X118176761Y-145890313D01*
X118095463Y-145988586D01*
X117933317Y-146244089D01*
X117933313Y-146244095D01*
X117804468Y-146517903D01*
X117804466Y-146517908D01*
X117710953Y-146805713D01*
X117654246Y-147102981D01*
X117654245Y-147102988D01*
X117635245Y-147404994D01*
X107444755Y-147404994D01*
X107425754Y-147102988D01*
X107425753Y-147102981D01*
X107369046Y-146805713D01*
X107275533Y-146517908D01*
X107275531Y-146517903D01*
X107146686Y-146244095D01*
X107146682Y-146244089D01*
X106984539Y-145988591D01*
X106903236Y-145890313D01*
X105721762Y-147071788D01*
X105710276Y-147044058D01*
X105626884Y-146919253D01*
X105520747Y-146813116D01*
X105395942Y-146729724D01*
X105368208Y-146718236D01*
X106552014Y-145534432D01*
X106552013Y-145534430D01*
X106326213Y-145370378D01*
X106061016Y-145224584D01*
X106061015Y-145224583D01*
X105779659Y-145113188D01*
X105486542Y-145037928D01*
X105486533Y-145037926D01*
X105186321Y-145000000D01*
X104883678Y-145000000D01*
X104583466Y-145037926D01*
X104583457Y-145037928D01*
X104290340Y-145113188D01*
X104008984Y-145224583D01*
X104008983Y-145224584D01*
X103743789Y-145370377D01*
X103743777Y-145370384D01*
X103517985Y-145534431D01*
X103517984Y-145534432D01*
X104701789Y-146718237D01*
X104674058Y-146729724D01*
X104549253Y-146813116D01*
X104443116Y-146919253D01*
X104359724Y-147044058D01*
X104348236Y-147071790D01*
X103166761Y-145890313D01*
X103085463Y-145988586D01*
X102923317Y-146244089D01*
X102923313Y-146244095D01*
X102794468Y-146517903D01*
X102794466Y-146517908D01*
X102700953Y-146805713D01*
X102644246Y-147102981D01*
X102644245Y-147102988D01*
X102625245Y-147404994D01*
X102625245Y-147405005D01*
X102644245Y-147707011D01*
X102644246Y-147707018D01*
X102700953Y-148004286D01*
X102790675Y-148280425D01*
X102792670Y-148350267D01*
X102756589Y-148410099D01*
X102693888Y-148440927D01*
X102632886Y-148436162D01*
X102450997Y-148374419D01*
X102450977Y-148374414D01*
X102158052Y-148316148D01*
X102158042Y-148316146D01*
X102158035Y-148316145D01*
X102158025Y-148316144D01*
X101860007Y-148296611D01*
X101859993Y-148296611D01*
X101561974Y-148316144D01*
X101561962Y-148316145D01*
X101561958Y-148316146D01*
X101561950Y-148316147D01*
X101561947Y-148316148D01*
X101269022Y-148374414D01*
X101269017Y-148374415D01*
X101269015Y-148374416D01*
X101210103Y-148394414D01*
X101087113Y-148436163D01*
X101017304Y-148439071D01*
X100957004Y-148403777D01*
X100925358Y-148341485D01*
X100929324Y-148280425D01*
X101019046Y-148004286D01*
X101075753Y-147707018D01*
X101075754Y-147707011D01*
X101094755Y-147405005D01*
X101094755Y-147404994D01*
X101075754Y-147102988D01*
X101075753Y-147102981D01*
X101019046Y-146805713D01*
X100925533Y-146517908D01*
X100925531Y-146517903D01*
X100796686Y-146244095D01*
X100796682Y-146244089D01*
X100634539Y-145988591D01*
X100553236Y-145890313D01*
X99371762Y-147071789D01*
X99360276Y-147044058D01*
X99276884Y-146919253D01*
X99170747Y-146813116D01*
X99045942Y-146729724D01*
X99018208Y-146718236D01*
X100202014Y-145534432D01*
X100202013Y-145534430D01*
X99976213Y-145370378D01*
X99711016Y-145224584D01*
X99711015Y-145224583D01*
X99429659Y-145113188D01*
X99136542Y-145037928D01*
X99136533Y-145037926D01*
X98836321Y-145000000D01*
X98533678Y-145000000D01*
X98233466Y-145037926D01*
X98233457Y-145037928D01*
X97940340Y-145113188D01*
X97658984Y-145224583D01*
X97658983Y-145224584D01*
X97393789Y-145370377D01*
X97393777Y-145370384D01*
X97167985Y-145534431D01*
X97167984Y-145534432D01*
X98351789Y-146718237D01*
X98324058Y-146729724D01*
X98199253Y-146813116D01*
X98093116Y-146919253D01*
X98009724Y-147044058D01*
X97998237Y-147071789D01*
X96816761Y-145890313D01*
X96735463Y-145988586D01*
X96573317Y-146244089D01*
X96573313Y-146244095D01*
X96444468Y-146517903D01*
X96444466Y-146517908D01*
X96350953Y-146805713D01*
X96294246Y-147102981D01*
X96294245Y-147102988D01*
X96275245Y-147404994D01*
X75043497Y-147404994D01*
X75025754Y-147122988D01*
X75025753Y-147122981D01*
X74969046Y-146825713D01*
X74875533Y-146537908D01*
X74875531Y-146537903D01*
X74746686Y-146264095D01*
X74746682Y-146264089D01*
X74584539Y-146008591D01*
X74503236Y-145910313D01*
X73321762Y-147091788D01*
X73310276Y-147064058D01*
X73226884Y-146939253D01*
X73120747Y-146833116D01*
X72995942Y-146749724D01*
X72968208Y-146738236D01*
X74152014Y-145554432D01*
X74152013Y-145554430D01*
X73926213Y-145390378D01*
X73661016Y-145244584D01*
X73661015Y-145244583D01*
X73379659Y-145133188D01*
X73086542Y-145057928D01*
X73086533Y-145057926D01*
X72786321Y-145020000D01*
X72483678Y-145020000D01*
X72183466Y-145057926D01*
X72183457Y-145057928D01*
X71890340Y-145133188D01*
X71608984Y-145244583D01*
X71608983Y-145244584D01*
X71343789Y-145390377D01*
X71343777Y-145390384D01*
X71117985Y-145554431D01*
X71117984Y-145554432D01*
X72301789Y-146738237D01*
X72274058Y-146749724D01*
X72149253Y-146833116D01*
X72043116Y-146939253D01*
X71959724Y-147064058D01*
X71948236Y-147091790D01*
X70766761Y-145910313D01*
X70685463Y-146008586D01*
X70523317Y-146264089D01*
X70523313Y-146264095D01*
X70394468Y-146537903D01*
X70394466Y-146537908D01*
X70300953Y-146825713D01*
X70244246Y-147122981D01*
X70244245Y-147122988D01*
X70225245Y-147424994D01*
X70225245Y-147425005D01*
X70244245Y-147727011D01*
X70244246Y-147727018D01*
X70300953Y-148024286D01*
X70390675Y-148300425D01*
X70392670Y-148370267D01*
X70356589Y-148430099D01*
X70293888Y-148460927D01*
X70232886Y-148456162D01*
X70050997Y-148394419D01*
X70050977Y-148394414D01*
X69758052Y-148336148D01*
X69758042Y-148336146D01*
X69758035Y-148336145D01*
X69758025Y-148336144D01*
X69460007Y-148316611D01*
X69459993Y-148316611D01*
X69161974Y-148336144D01*
X69161962Y-148336145D01*
X69161958Y-148336146D01*
X69161950Y-148336147D01*
X69161947Y-148336148D01*
X68869022Y-148394414D01*
X68869017Y-148394415D01*
X68869015Y-148394416D01*
X68796009Y-148419198D01*
X68687113Y-148456163D01*
X68617304Y-148459071D01*
X68557004Y-148423777D01*
X68525358Y-148361485D01*
X68529324Y-148300425D01*
X68619046Y-148024286D01*
X68675753Y-147727018D01*
X68675754Y-147727011D01*
X68694755Y-147425005D01*
X68694755Y-147424994D01*
X68675754Y-147122988D01*
X68675753Y-147122981D01*
X68619046Y-146825713D01*
X68525533Y-146537908D01*
X68525531Y-146537903D01*
X68396686Y-146264095D01*
X68396682Y-146264089D01*
X68234539Y-146008591D01*
X68153236Y-145910313D01*
X66971762Y-147091789D01*
X66960276Y-147064058D01*
X66876884Y-146939253D01*
X66770747Y-146833116D01*
X66645942Y-146749724D01*
X66618208Y-146738236D01*
X67802014Y-145554432D01*
X67802013Y-145554430D01*
X67576213Y-145390378D01*
X67311016Y-145244584D01*
X67311015Y-145244583D01*
X67029659Y-145133188D01*
X66736542Y-145057928D01*
X66736533Y-145057926D01*
X66436321Y-145020000D01*
X66133678Y-145020000D01*
X65833466Y-145057926D01*
X65833457Y-145057928D01*
X65540340Y-145133188D01*
X65258984Y-145244583D01*
X65258983Y-145244584D01*
X64993789Y-145390377D01*
X64993777Y-145390384D01*
X64767985Y-145554431D01*
X64767984Y-145554432D01*
X65951789Y-146738237D01*
X65924058Y-146749724D01*
X65799253Y-146833116D01*
X65693116Y-146939253D01*
X65609724Y-147064058D01*
X65598237Y-147091789D01*
X64416761Y-145910313D01*
X64335463Y-146008586D01*
X64173317Y-146264089D01*
X64173313Y-146264095D01*
X64044468Y-146537903D01*
X64044466Y-146537908D01*
X63950953Y-146825713D01*
X63894246Y-147122981D01*
X63894245Y-147122988D01*
X63875245Y-147424994D01*
X37370913Y-147424994D01*
X37365754Y-147342988D01*
X37365753Y-147342981D01*
X37309046Y-147045713D01*
X37215533Y-146757908D01*
X37215531Y-146757903D01*
X37086686Y-146484095D01*
X37086682Y-146484089D01*
X36924539Y-146228591D01*
X36843236Y-146130313D01*
X35661762Y-147311788D01*
X35650276Y-147284058D01*
X35566884Y-147159253D01*
X35460747Y-147053116D01*
X35335942Y-146969724D01*
X35308208Y-146958236D01*
X36492014Y-145774432D01*
X36492013Y-145774430D01*
X36266213Y-145610378D01*
X36001016Y-145464584D01*
X36001015Y-145464583D01*
X35719659Y-145353188D01*
X35426542Y-145277928D01*
X35426533Y-145277926D01*
X35126321Y-145240000D01*
X34823678Y-145240000D01*
X34523466Y-145277926D01*
X34523457Y-145277928D01*
X34230340Y-145353188D01*
X33948984Y-145464583D01*
X33948983Y-145464584D01*
X33683789Y-145610377D01*
X33683777Y-145610384D01*
X33457985Y-145774431D01*
X33457984Y-145774432D01*
X34641789Y-146958237D01*
X34614058Y-146969724D01*
X34489253Y-147053116D01*
X34383116Y-147159253D01*
X34299724Y-147284058D01*
X34288236Y-147311790D01*
X33106761Y-146130313D01*
X33025463Y-146228586D01*
X32863317Y-146484089D01*
X32863313Y-146484095D01*
X32734468Y-146757903D01*
X32734466Y-146757908D01*
X32640953Y-147045713D01*
X32584246Y-147342981D01*
X32584245Y-147342988D01*
X32565245Y-147644994D01*
X32565245Y-147645005D01*
X32584245Y-147947011D01*
X32584246Y-147947018D01*
X32640953Y-148244286D01*
X32730675Y-148520425D01*
X32732670Y-148590267D01*
X32696589Y-148650099D01*
X32633888Y-148680927D01*
X32572886Y-148676162D01*
X32390997Y-148614419D01*
X32390977Y-148614414D01*
X32098052Y-148556148D01*
X32098042Y-148556146D01*
X32098035Y-148556145D01*
X32098025Y-148556144D01*
X31800007Y-148536611D01*
X31799993Y-148536611D01*
X31501974Y-148556144D01*
X31501962Y-148556145D01*
X31501958Y-148556146D01*
X31501950Y-148556147D01*
X31501947Y-148556148D01*
X31209022Y-148614414D01*
X31209017Y-148614415D01*
X31209015Y-148614416D01*
X31185121Y-148622527D01*
X31027113Y-148676163D01*
X30957304Y-148679071D01*
X30897004Y-148643777D01*
X30865358Y-148581485D01*
X30869324Y-148520425D01*
X30959046Y-148244286D01*
X31015753Y-147947018D01*
X31015754Y-147947011D01*
X31034755Y-147645005D01*
X31034755Y-147644994D01*
X31015754Y-147342988D01*
X31015753Y-147342981D01*
X30959046Y-147045713D01*
X30865533Y-146757908D01*
X30865531Y-146757903D01*
X30736686Y-146484095D01*
X30736682Y-146484089D01*
X30574539Y-146228591D01*
X30493236Y-146130313D01*
X29311762Y-147311789D01*
X29300276Y-147284058D01*
X29216884Y-147159253D01*
X29110747Y-147053116D01*
X28985942Y-146969724D01*
X28958208Y-146958236D01*
X30142014Y-145774432D01*
X30142013Y-145774430D01*
X29916213Y-145610378D01*
X29651016Y-145464584D01*
X29651015Y-145464583D01*
X29369659Y-145353188D01*
X29076542Y-145277928D01*
X29076533Y-145277926D01*
X28776321Y-145240000D01*
X28473678Y-145240000D01*
X28173466Y-145277926D01*
X28173457Y-145277928D01*
X27880340Y-145353188D01*
X27598984Y-145464583D01*
X27598983Y-145464584D01*
X27333789Y-145610377D01*
X27333777Y-145610384D01*
X27107985Y-145774431D01*
X27107984Y-145774432D01*
X28291789Y-146958237D01*
X28264058Y-146969724D01*
X28139253Y-147053116D01*
X28033116Y-147159253D01*
X27949724Y-147284058D01*
X27938237Y-147311789D01*
X26756761Y-146130313D01*
X26675463Y-146228586D01*
X26513317Y-146484089D01*
X26513313Y-146484095D01*
X26384468Y-146757903D01*
X26384466Y-146757908D01*
X26290953Y-147045713D01*
X26234246Y-147342981D01*
X26234245Y-147342988D01*
X26215245Y-147644994D01*
X21200000Y-147644994D01*
X21200000Y-25444994D01*
X26215245Y-25444994D01*
X26215245Y-25445005D01*
X26234245Y-25747011D01*
X26234246Y-25747018D01*
X26290953Y-26044286D01*
X26384466Y-26332091D01*
X26384468Y-26332096D01*
X26513313Y-26605904D01*
X26513317Y-26605910D01*
X26675460Y-26861408D01*
X26756761Y-26959684D01*
X27938236Y-25778209D01*
X27949724Y-25805942D01*
X28033116Y-25930747D01*
X28139253Y-26036884D01*
X28264058Y-26120276D01*
X28291789Y-26131762D01*
X27107984Y-27315566D01*
X27107985Y-27315568D01*
X27333786Y-27479621D01*
X27598983Y-27625415D01*
X27598984Y-27625416D01*
X27880340Y-27736811D01*
X28173457Y-27812071D01*
X28173466Y-27812073D01*
X28473678Y-27849999D01*
X28473692Y-27850000D01*
X28776308Y-27850000D01*
X28776321Y-27849999D01*
X29076533Y-27812073D01*
X29076542Y-27812071D01*
X29369658Y-27736811D01*
X29494674Y-27687315D01*
X29564252Y-27680938D01*
X29626232Y-27713190D01*
X29660936Y-27773832D01*
X29657740Y-27842465D01*
X29594419Y-28029002D01*
X29594414Y-28029022D01*
X29536148Y-28321947D01*
X29536144Y-28321974D01*
X29516611Y-28619992D01*
X29516611Y-28620007D01*
X29536144Y-28918025D01*
X29536145Y-28918035D01*
X29536146Y-28918042D01*
X29536148Y-28918052D01*
X29594414Y-29210977D01*
X29594419Y-29210997D01*
X29657740Y-29397534D01*
X29660650Y-29467343D01*
X29625355Y-29527643D01*
X29563063Y-29559289D01*
X29494674Y-29552685D01*
X29369651Y-29503186D01*
X29076542Y-29427928D01*
X29076533Y-29427926D01*
X28776321Y-29390000D01*
X28473678Y-29390000D01*
X28173466Y-29427926D01*
X28173457Y-29427928D01*
X27880340Y-29503188D01*
X27598984Y-29614583D01*
X27598983Y-29614584D01*
X27333789Y-29760377D01*
X27333777Y-29760384D01*
X27107985Y-29924431D01*
X27107984Y-29924432D01*
X28291790Y-31108236D01*
X28264058Y-31119724D01*
X28139253Y-31203116D01*
X28033116Y-31309253D01*
X27949724Y-31434058D01*
X27938237Y-31461789D01*
X26756761Y-30280313D01*
X26675463Y-30378586D01*
X26513317Y-30634089D01*
X26513313Y-30634095D01*
X26384468Y-30907903D01*
X26384466Y-30907908D01*
X26290953Y-31195713D01*
X26234246Y-31492981D01*
X26234245Y-31492988D01*
X26215245Y-31794994D01*
X26215245Y-31795005D01*
X26234245Y-32097011D01*
X26234246Y-32097018D01*
X26290953Y-32394286D01*
X26384466Y-32682091D01*
X26384468Y-32682096D01*
X26513313Y-32955904D01*
X26513317Y-32955910D01*
X26675460Y-33211408D01*
X26756761Y-33309684D01*
X27938236Y-32128209D01*
X27949724Y-32155942D01*
X28033116Y-32280747D01*
X28139253Y-32386884D01*
X28264058Y-32470276D01*
X28291789Y-32481762D01*
X27107984Y-33665566D01*
X27107985Y-33665568D01*
X27333786Y-33829621D01*
X27598983Y-33975415D01*
X27598984Y-33975416D01*
X27880340Y-34086811D01*
X28173457Y-34162071D01*
X28173466Y-34162073D01*
X28473678Y-34199999D01*
X28473692Y-34200000D01*
X28776308Y-34200000D01*
X28776321Y-34199999D01*
X29076533Y-34162073D01*
X29076542Y-34162071D01*
X29369659Y-34086811D01*
X29651015Y-33975416D01*
X29651016Y-33975415D01*
X29916208Y-33829624D01*
X30142013Y-33665567D01*
X30142014Y-33665566D01*
X28958210Y-32481762D01*
X28985942Y-32470276D01*
X29110747Y-32386884D01*
X29216884Y-32280747D01*
X29300276Y-32155942D01*
X29311763Y-32128209D01*
X30493237Y-33309684D01*
X30574536Y-33211413D01*
X30736682Y-32955910D01*
X30736686Y-32955904D01*
X30865531Y-32682096D01*
X30865533Y-32682091D01*
X30959046Y-32394286D01*
X31015753Y-32097018D01*
X31015754Y-32097011D01*
X31034755Y-31795005D01*
X31034755Y-31794994D01*
X31015754Y-31492988D01*
X31015753Y-31492981D01*
X30959046Y-31195713D01*
X30869324Y-30919574D01*
X30867329Y-30849733D01*
X30903410Y-30789900D01*
X30966111Y-30759072D01*
X31027114Y-30763837D01*
X31209015Y-30825584D01*
X31501958Y-30883854D01*
X31530320Y-30885713D01*
X31799993Y-30903389D01*
X31800000Y-30903389D01*
X31800007Y-30903389D01*
X32038607Y-30887749D01*
X32098042Y-30883854D01*
X32390985Y-30825584D01*
X32572888Y-30763835D01*
X32642695Y-30760926D01*
X32702995Y-30796220D01*
X32734642Y-30858512D01*
X32730676Y-30919573D01*
X32640953Y-31195713D01*
X32584246Y-31492981D01*
X32584245Y-31492988D01*
X32565245Y-31794994D01*
X32565245Y-31795005D01*
X32584245Y-32097011D01*
X32584246Y-32097018D01*
X32640953Y-32394286D01*
X32734466Y-32682091D01*
X32734468Y-32682096D01*
X32863313Y-32955904D01*
X32863317Y-32955910D01*
X33025460Y-33211408D01*
X33106761Y-33309684D01*
X34288236Y-32128208D01*
X34299724Y-32155942D01*
X34383116Y-32280747D01*
X34489253Y-32386884D01*
X34614058Y-32470276D01*
X34641789Y-32481762D01*
X33457984Y-33665566D01*
X33457985Y-33665568D01*
X33683786Y-33829621D01*
X33948983Y-33975415D01*
X33948984Y-33975416D01*
X34230340Y-34086811D01*
X34523457Y-34162071D01*
X34523466Y-34162073D01*
X34823678Y-34199999D01*
X34823692Y-34200000D01*
X35126308Y-34200000D01*
X35126321Y-34199999D01*
X35426533Y-34162073D01*
X35426542Y-34162071D01*
X35719659Y-34086811D01*
X36001015Y-33975416D01*
X36001016Y-33975415D01*
X36266208Y-33829624D01*
X36492013Y-33665567D01*
X36492014Y-33665566D01*
X35308210Y-32481762D01*
X35335942Y-32470276D01*
X35460747Y-32386884D01*
X35566884Y-32280747D01*
X35650276Y-32155942D01*
X35661762Y-32128209D01*
X36843237Y-33309684D01*
X36924536Y-33211413D01*
X37086682Y-32955910D01*
X37086686Y-32955904D01*
X37215531Y-32682096D01*
X37215533Y-32682091D01*
X37309046Y-32394286D01*
X37365753Y-32097018D01*
X37365754Y-32097011D01*
X37384755Y-31795005D01*
X37384755Y-31794994D01*
X37365754Y-31492988D01*
X37365753Y-31492981D01*
X37309046Y-31195713D01*
X37215533Y-30907908D01*
X37215531Y-30907903D01*
X37086686Y-30634095D01*
X37086682Y-30634089D01*
X36924539Y-30378591D01*
X36843236Y-30280313D01*
X35661762Y-31461788D01*
X35650276Y-31434058D01*
X35566884Y-31309253D01*
X35460747Y-31203116D01*
X35335942Y-31119724D01*
X35308209Y-31108236D01*
X36492014Y-29924432D01*
X36492013Y-29924430D01*
X36266213Y-29760378D01*
X36001016Y-29614584D01*
X36001015Y-29614583D01*
X35719659Y-29503188D01*
X35426542Y-29427928D01*
X35426533Y-29427926D01*
X35126321Y-29390000D01*
X34823678Y-29390000D01*
X34523466Y-29427926D01*
X34523457Y-29427928D01*
X34230348Y-29503186D01*
X34105324Y-29552686D01*
X34035746Y-29559062D01*
X33973766Y-29526809D01*
X33939062Y-29466167D01*
X33942257Y-29397537D01*
X34005584Y-29210985D01*
X34063854Y-28918042D01*
X34079586Y-28678025D01*
X34083389Y-28620007D01*
X34083389Y-28619992D01*
X34063855Y-28321974D01*
X34063854Y-28321958D01*
X34005584Y-28029015D01*
X33942257Y-27842462D01*
X33939348Y-27772656D01*
X33974642Y-27712356D01*
X34036934Y-27680709D01*
X34105325Y-27687314D01*
X34230343Y-27736812D01*
X34523457Y-27812071D01*
X34523466Y-27812073D01*
X34823678Y-27849999D01*
X34823692Y-27850000D01*
X35126308Y-27850000D01*
X35126321Y-27849999D01*
X35426533Y-27812073D01*
X35426542Y-27812071D01*
X35719659Y-27736811D01*
X36001015Y-27625416D01*
X36001016Y-27625415D01*
X36266208Y-27479624D01*
X36492013Y-27315567D01*
X36492014Y-27315566D01*
X35308209Y-26131763D01*
X35335942Y-26120276D01*
X35460747Y-26036884D01*
X35566884Y-25930747D01*
X35650276Y-25805942D01*
X35661762Y-25778209D01*
X36843237Y-26959684D01*
X36924536Y-26861413D01*
X37086682Y-26605910D01*
X37086686Y-26605904D01*
X37215531Y-26332096D01*
X37215533Y-26332091D01*
X37309046Y-26044286D01*
X37365753Y-25747018D01*
X37365754Y-25747011D01*
X37384755Y-25445005D01*
X37384755Y-25444994D01*
X37370913Y-25224994D01*
X63875245Y-25224994D01*
X63875245Y-25225005D01*
X63894245Y-25527011D01*
X63894246Y-25527018D01*
X63950953Y-25824286D01*
X64044466Y-26112091D01*
X64044468Y-26112096D01*
X64173313Y-26385904D01*
X64173317Y-26385910D01*
X64335460Y-26641408D01*
X64416761Y-26739684D01*
X65598236Y-25558209D01*
X65609724Y-25585942D01*
X65693116Y-25710747D01*
X65799253Y-25816884D01*
X65924058Y-25900276D01*
X65951789Y-25911762D01*
X64767984Y-27095566D01*
X64767985Y-27095568D01*
X64993786Y-27259621D01*
X65258983Y-27405415D01*
X65258984Y-27405416D01*
X65540340Y-27516811D01*
X65833457Y-27592071D01*
X65833466Y-27592073D01*
X66133678Y-27629999D01*
X66133692Y-27630000D01*
X66436308Y-27630000D01*
X66436321Y-27629999D01*
X66736533Y-27592073D01*
X66736542Y-27592071D01*
X67029658Y-27516811D01*
X67154674Y-27467315D01*
X67224252Y-27460938D01*
X67286232Y-27493190D01*
X67320936Y-27553832D01*
X67317740Y-27622465D01*
X67254419Y-27809002D01*
X67254414Y-27809022D01*
X67196148Y-28101947D01*
X67196144Y-28101974D01*
X67176611Y-28399992D01*
X67176611Y-28400007D01*
X67196144Y-28698025D01*
X67196145Y-28698035D01*
X67196146Y-28698042D01*
X67196148Y-28698052D01*
X67254414Y-28990977D01*
X67254419Y-28990997D01*
X67317740Y-29177534D01*
X67320650Y-29247343D01*
X67285355Y-29307643D01*
X67223063Y-29339289D01*
X67154674Y-29332685D01*
X67029651Y-29283186D01*
X66736542Y-29207928D01*
X66736533Y-29207926D01*
X66436321Y-29170000D01*
X66133678Y-29170000D01*
X65833466Y-29207926D01*
X65833457Y-29207928D01*
X65540340Y-29283188D01*
X65258984Y-29394583D01*
X65258983Y-29394584D01*
X64993789Y-29540377D01*
X64993777Y-29540384D01*
X64767985Y-29704431D01*
X64767984Y-29704432D01*
X65951790Y-30888236D01*
X65924058Y-30899724D01*
X65799253Y-30983116D01*
X65693116Y-31089253D01*
X65609724Y-31214058D01*
X65598237Y-31241789D01*
X64416761Y-30060313D01*
X64335463Y-30158586D01*
X64173317Y-30414089D01*
X64173313Y-30414095D01*
X64044468Y-30687903D01*
X64044466Y-30687908D01*
X63950953Y-30975713D01*
X63894246Y-31272981D01*
X63894245Y-31272988D01*
X63875245Y-31574994D01*
X63875245Y-31575005D01*
X63894245Y-31877011D01*
X63894246Y-31877018D01*
X63950953Y-32174286D01*
X64044466Y-32462091D01*
X64044468Y-32462096D01*
X64173313Y-32735904D01*
X64173317Y-32735910D01*
X64335460Y-32991408D01*
X64416761Y-33089684D01*
X65598236Y-31908209D01*
X65609724Y-31935942D01*
X65693116Y-32060747D01*
X65799253Y-32166884D01*
X65924058Y-32250276D01*
X65951789Y-32261762D01*
X64767984Y-33445566D01*
X64767985Y-33445568D01*
X64993786Y-33609621D01*
X65258983Y-33755415D01*
X65258984Y-33755416D01*
X65540340Y-33866811D01*
X65833457Y-33942071D01*
X65833466Y-33942073D01*
X66133678Y-33979999D01*
X66133692Y-33980000D01*
X66436308Y-33980000D01*
X66436321Y-33979999D01*
X66736533Y-33942073D01*
X66736542Y-33942071D01*
X67029659Y-33866811D01*
X67311015Y-33755416D01*
X67311016Y-33755415D01*
X67576208Y-33609624D01*
X67802013Y-33445567D01*
X67802014Y-33445566D01*
X66618210Y-32261762D01*
X66645942Y-32250276D01*
X66770747Y-32166884D01*
X66876884Y-32060747D01*
X66960276Y-31935942D01*
X66971763Y-31908209D01*
X68153237Y-33089684D01*
X68234536Y-32991413D01*
X68396682Y-32735910D01*
X68396686Y-32735904D01*
X68525531Y-32462096D01*
X68525533Y-32462091D01*
X68619046Y-32174286D01*
X68675753Y-31877018D01*
X68675754Y-31877011D01*
X68694755Y-31575005D01*
X68694755Y-31574994D01*
X68675754Y-31272988D01*
X68675753Y-31272981D01*
X68619046Y-30975713D01*
X68529324Y-30699574D01*
X68527329Y-30629733D01*
X68563410Y-30569900D01*
X68626111Y-30539072D01*
X68687114Y-30543837D01*
X68754381Y-30566671D01*
X68869015Y-30605584D01*
X69161958Y-30663854D01*
X69190577Y-30665729D01*
X69459993Y-30683389D01*
X69460000Y-30683389D01*
X69460007Y-30683389D01*
X69698607Y-30667749D01*
X69758042Y-30663854D01*
X70050985Y-30605584D01*
X70232888Y-30543835D01*
X70302695Y-30540926D01*
X70362995Y-30576220D01*
X70394642Y-30638512D01*
X70390676Y-30699573D01*
X70300953Y-30975713D01*
X70244246Y-31272981D01*
X70244245Y-31272988D01*
X70225245Y-31574994D01*
X70225245Y-31575005D01*
X70244245Y-31877011D01*
X70244246Y-31877018D01*
X70300953Y-32174286D01*
X70394466Y-32462091D01*
X70394468Y-32462096D01*
X70523313Y-32735904D01*
X70523317Y-32735910D01*
X70685460Y-32991408D01*
X70766761Y-33089684D01*
X71948236Y-31908208D01*
X71959724Y-31935942D01*
X72043116Y-32060747D01*
X72149253Y-32166884D01*
X72274058Y-32250276D01*
X72301789Y-32261762D01*
X71117984Y-33445566D01*
X71117985Y-33445568D01*
X71343786Y-33609621D01*
X71608983Y-33755415D01*
X71608984Y-33755416D01*
X71890340Y-33866811D01*
X72183457Y-33942071D01*
X72183466Y-33942073D01*
X72483678Y-33979999D01*
X72483692Y-33980000D01*
X72786308Y-33980000D01*
X72786321Y-33979999D01*
X73086533Y-33942073D01*
X73086542Y-33942071D01*
X73379659Y-33866811D01*
X73661015Y-33755416D01*
X73661016Y-33755415D01*
X73926208Y-33609624D01*
X74152013Y-33445567D01*
X74152014Y-33445566D01*
X72968210Y-32261762D01*
X72995942Y-32250276D01*
X73120747Y-32166884D01*
X73226884Y-32060747D01*
X73310276Y-31935942D01*
X73321762Y-31908209D01*
X74503237Y-33089684D01*
X74584536Y-32991413D01*
X74746682Y-32735910D01*
X74746686Y-32735904D01*
X74875531Y-32462096D01*
X74875533Y-32462091D01*
X74969046Y-32174286D01*
X75025753Y-31877018D01*
X75025754Y-31877011D01*
X75044755Y-31575005D01*
X75044755Y-31574994D01*
X75025754Y-31272988D01*
X75025753Y-31272981D01*
X74969046Y-30975713D01*
X74875533Y-30687908D01*
X74875531Y-30687903D01*
X74746686Y-30414095D01*
X74746682Y-30414089D01*
X74584539Y-30158591D01*
X74503236Y-30060313D01*
X73321762Y-31241788D01*
X73310276Y-31214058D01*
X73226884Y-31089253D01*
X73120747Y-30983116D01*
X72995942Y-30899724D01*
X72968209Y-30888236D01*
X74152014Y-29704432D01*
X74152013Y-29704430D01*
X73926213Y-29540378D01*
X73661016Y-29394584D01*
X73661015Y-29394583D01*
X73379659Y-29283188D01*
X73086542Y-29207928D01*
X73086533Y-29207926D01*
X72786321Y-29170000D01*
X72483678Y-29170000D01*
X72183466Y-29207926D01*
X72183457Y-29207928D01*
X71890348Y-29283186D01*
X71765324Y-29332686D01*
X71695746Y-29339062D01*
X71633766Y-29306809D01*
X71599062Y-29246167D01*
X71602257Y-29177537D01*
X71665584Y-28990985D01*
X71723854Y-28698042D01*
X71729754Y-28608025D01*
X71743389Y-28400007D01*
X71743389Y-28399992D01*
X71723855Y-28101974D01*
X71723854Y-28101958D01*
X71665584Y-27809015D01*
X71602257Y-27622462D01*
X71599348Y-27552656D01*
X71634642Y-27492356D01*
X71696934Y-27460709D01*
X71765325Y-27467314D01*
X71890343Y-27516812D01*
X72183457Y-27592071D01*
X72183466Y-27592073D01*
X72483678Y-27629999D01*
X72483692Y-27630000D01*
X72786308Y-27630000D01*
X72786321Y-27629999D01*
X73086533Y-27592073D01*
X73086542Y-27592071D01*
X73379659Y-27516811D01*
X73661015Y-27405416D01*
X73661016Y-27405415D01*
X73926208Y-27259624D01*
X74152013Y-27095567D01*
X74152014Y-27095566D01*
X72968209Y-25911763D01*
X72995942Y-25900276D01*
X73120747Y-25816884D01*
X73226884Y-25710747D01*
X73310276Y-25585942D01*
X73321762Y-25558209D01*
X74503237Y-26739684D01*
X74584536Y-26641413D01*
X74746682Y-26385910D01*
X74746686Y-26385904D01*
X74875531Y-26112096D01*
X74875533Y-26112091D01*
X74969046Y-25824286D01*
X75025753Y-25527018D01*
X75025754Y-25527011D01*
X75044755Y-25225005D01*
X75044755Y-25224994D01*
X75043497Y-25204994D01*
X96275245Y-25204994D01*
X96275245Y-25205005D01*
X96294245Y-25507011D01*
X96294246Y-25507018D01*
X96350953Y-25804286D01*
X96444466Y-26092091D01*
X96444468Y-26092096D01*
X96573313Y-26365904D01*
X96573317Y-26365910D01*
X96735460Y-26621408D01*
X96816761Y-26719684D01*
X97998236Y-25538209D01*
X98009724Y-25565942D01*
X98093116Y-25690747D01*
X98199253Y-25796884D01*
X98324058Y-25880276D01*
X98351789Y-25891762D01*
X97167984Y-27075566D01*
X97167985Y-27075568D01*
X97393786Y-27239621D01*
X97658983Y-27385415D01*
X97658984Y-27385416D01*
X97940340Y-27496811D01*
X98233457Y-27572071D01*
X98233466Y-27572073D01*
X98533678Y-27609999D01*
X98533692Y-27610000D01*
X98836308Y-27610000D01*
X98836321Y-27609999D01*
X99136533Y-27572073D01*
X99136542Y-27572071D01*
X99429658Y-27496811D01*
X99554674Y-27447315D01*
X99624252Y-27440938D01*
X99686232Y-27473190D01*
X99720936Y-27533832D01*
X99717740Y-27602465D01*
X99654419Y-27789002D01*
X99654414Y-27789022D01*
X99596148Y-28081947D01*
X99596144Y-28081974D01*
X99576611Y-28379992D01*
X99576611Y-28380007D01*
X99596144Y-28678025D01*
X99596145Y-28678035D01*
X99596146Y-28678042D01*
X99596148Y-28678052D01*
X99654414Y-28970977D01*
X99654419Y-28970997D01*
X99717740Y-29157534D01*
X99720650Y-29227343D01*
X99685355Y-29287643D01*
X99623063Y-29319289D01*
X99554674Y-29312685D01*
X99429651Y-29263186D01*
X99136542Y-29187928D01*
X99136533Y-29187926D01*
X98836321Y-29150000D01*
X98533678Y-29150000D01*
X98233466Y-29187926D01*
X98233457Y-29187928D01*
X97940340Y-29263188D01*
X97658984Y-29374583D01*
X97658983Y-29374584D01*
X97393789Y-29520377D01*
X97393777Y-29520384D01*
X97167985Y-29684431D01*
X97167984Y-29684432D01*
X98351790Y-30868236D01*
X98324058Y-30879724D01*
X98199253Y-30963116D01*
X98093116Y-31069253D01*
X98009724Y-31194058D01*
X97998237Y-31221789D01*
X96816761Y-30040313D01*
X96735463Y-30138586D01*
X96573317Y-30394089D01*
X96573313Y-30394095D01*
X96444468Y-30667903D01*
X96444466Y-30667908D01*
X96350953Y-30955713D01*
X96294246Y-31252981D01*
X96294245Y-31252988D01*
X96275245Y-31554994D01*
X96275245Y-31555005D01*
X96294245Y-31857011D01*
X96294246Y-31857018D01*
X96350953Y-32154286D01*
X96444466Y-32442091D01*
X96444468Y-32442096D01*
X96573313Y-32715904D01*
X96573317Y-32715910D01*
X96735460Y-32971408D01*
X96816761Y-33069684D01*
X97998236Y-31888209D01*
X98009724Y-31915942D01*
X98093116Y-32040747D01*
X98199253Y-32146884D01*
X98324058Y-32230276D01*
X98351789Y-32241762D01*
X97167984Y-33425566D01*
X97167985Y-33425568D01*
X97393786Y-33589621D01*
X97658983Y-33735415D01*
X97658984Y-33735416D01*
X97940340Y-33846811D01*
X98233457Y-33922071D01*
X98233466Y-33922073D01*
X98533678Y-33959999D01*
X98533692Y-33960000D01*
X98836308Y-33960000D01*
X98836321Y-33959999D01*
X99136533Y-33922073D01*
X99136542Y-33922071D01*
X99429659Y-33846811D01*
X99711015Y-33735416D01*
X99711016Y-33735415D01*
X99976208Y-33589624D01*
X100202013Y-33425567D01*
X100202014Y-33425566D01*
X99018210Y-32241762D01*
X99045942Y-32230276D01*
X99170747Y-32146884D01*
X99276884Y-32040747D01*
X99360276Y-31915942D01*
X99371763Y-31888209D01*
X100553237Y-33069684D01*
X100634536Y-32971413D01*
X100796682Y-32715910D01*
X100796686Y-32715904D01*
X100925531Y-32442096D01*
X100925533Y-32442091D01*
X101019046Y-32154286D01*
X101075753Y-31857018D01*
X101075754Y-31857011D01*
X101094755Y-31555005D01*
X101094755Y-31554994D01*
X101075754Y-31252988D01*
X101075753Y-31252981D01*
X101019046Y-30955713D01*
X100929324Y-30679574D01*
X100927329Y-30609733D01*
X100963410Y-30549900D01*
X101026111Y-30519072D01*
X101087114Y-30523837D01*
X101146032Y-30543837D01*
X101269015Y-30585584D01*
X101561958Y-30643854D01*
X101590577Y-30645729D01*
X101859993Y-30663389D01*
X101860000Y-30663389D01*
X101860007Y-30663389D01*
X102098607Y-30647749D01*
X102158042Y-30643854D01*
X102450985Y-30585584D01*
X102632888Y-30523835D01*
X102702695Y-30520926D01*
X102762995Y-30556220D01*
X102794642Y-30618512D01*
X102790676Y-30679573D01*
X102700953Y-30955713D01*
X102644246Y-31252981D01*
X102644245Y-31252988D01*
X102625245Y-31554994D01*
X102625245Y-31555005D01*
X102644245Y-31857011D01*
X102644246Y-31857018D01*
X102700953Y-32154286D01*
X102794466Y-32442091D01*
X102794468Y-32442096D01*
X102923313Y-32715904D01*
X102923317Y-32715910D01*
X103085460Y-32971408D01*
X103166761Y-33069684D01*
X104348236Y-31888208D01*
X104359724Y-31915942D01*
X104443116Y-32040747D01*
X104549253Y-32146884D01*
X104674058Y-32230276D01*
X104701789Y-32241762D01*
X103517984Y-33425566D01*
X103517985Y-33425568D01*
X103743786Y-33589621D01*
X104008983Y-33735415D01*
X104008984Y-33735416D01*
X104290340Y-33846811D01*
X104583457Y-33922071D01*
X104583466Y-33922073D01*
X104883678Y-33959999D01*
X104883692Y-33960000D01*
X105186308Y-33960000D01*
X105186321Y-33959999D01*
X105486533Y-33922073D01*
X105486542Y-33922071D01*
X105779659Y-33846811D01*
X106061015Y-33735416D01*
X106061016Y-33735415D01*
X106326208Y-33589624D01*
X106552013Y-33425567D01*
X106552014Y-33425566D01*
X105368210Y-32241762D01*
X105395942Y-32230276D01*
X105520747Y-32146884D01*
X105626884Y-32040747D01*
X105710276Y-31915942D01*
X105721762Y-31888209D01*
X106903237Y-33069684D01*
X106984536Y-32971413D01*
X107146682Y-32715910D01*
X107146686Y-32715904D01*
X107275531Y-32442096D01*
X107275533Y-32442091D01*
X107369046Y-32154286D01*
X107425753Y-31857018D01*
X107425754Y-31857011D01*
X107444755Y-31555005D01*
X107444755Y-31554994D01*
X107425754Y-31252988D01*
X107425753Y-31252981D01*
X107369046Y-30955713D01*
X107275533Y-30667908D01*
X107275531Y-30667903D01*
X107146686Y-30394095D01*
X107146682Y-30394089D01*
X106984539Y-30138591D01*
X106903236Y-30040313D01*
X105721762Y-31221788D01*
X105710276Y-31194058D01*
X105626884Y-31069253D01*
X105520747Y-30963116D01*
X105395942Y-30879724D01*
X105368209Y-30868236D01*
X106552014Y-29684432D01*
X106552013Y-29684430D01*
X106326213Y-29520378D01*
X106061016Y-29374584D01*
X106061015Y-29374583D01*
X105779659Y-29263188D01*
X105486542Y-29187928D01*
X105486533Y-29187926D01*
X105186321Y-29150000D01*
X104883678Y-29150000D01*
X104583466Y-29187926D01*
X104583457Y-29187928D01*
X104290348Y-29263186D01*
X104165324Y-29312686D01*
X104095746Y-29319062D01*
X104033766Y-29286809D01*
X103999062Y-29226167D01*
X104002257Y-29157537D01*
X104065584Y-28970985D01*
X104123854Y-28678042D01*
X104142078Y-28400007D01*
X104143389Y-28380007D01*
X104143389Y-28379992D01*
X104123855Y-28081974D01*
X104123854Y-28081958D01*
X104065584Y-27789015D01*
X104002257Y-27602462D01*
X103999348Y-27532656D01*
X104034642Y-27472356D01*
X104096934Y-27440709D01*
X104165325Y-27447314D01*
X104290343Y-27496812D01*
X104583457Y-27572071D01*
X104583466Y-27572073D01*
X104883678Y-27609999D01*
X104883692Y-27610000D01*
X105186308Y-27610000D01*
X105186321Y-27609999D01*
X105486533Y-27572073D01*
X105486542Y-27572071D01*
X105779659Y-27496811D01*
X106061015Y-27385416D01*
X106061016Y-27385415D01*
X106326208Y-27239624D01*
X106552013Y-27075567D01*
X106552014Y-27075566D01*
X105368209Y-25891763D01*
X105395942Y-25880276D01*
X105520747Y-25796884D01*
X105626884Y-25690747D01*
X105710276Y-25565942D01*
X105721762Y-25538209D01*
X106903237Y-26719684D01*
X106984536Y-26621413D01*
X107146682Y-26365910D01*
X107146686Y-26365904D01*
X107275531Y-26092096D01*
X107275533Y-26092091D01*
X107369046Y-25804286D01*
X107425753Y-25507018D01*
X107425754Y-25507011D01*
X107444755Y-25205005D01*
X107444755Y-25204994D01*
X117635245Y-25204994D01*
X117635245Y-25205005D01*
X117654245Y-25507011D01*
X117654246Y-25507018D01*
X117710953Y-25804286D01*
X117804466Y-26092091D01*
X117804468Y-26092096D01*
X117933313Y-26365904D01*
X117933317Y-26365910D01*
X118095460Y-26621408D01*
X118176761Y-26719684D01*
X119358236Y-25538209D01*
X119369724Y-25565942D01*
X119453116Y-25690747D01*
X119559253Y-25796884D01*
X119684058Y-25880276D01*
X119711789Y-25891762D01*
X118527984Y-27075566D01*
X118527985Y-27075568D01*
X118753786Y-27239621D01*
X119018983Y-27385415D01*
X119018984Y-27385416D01*
X119300340Y-27496811D01*
X119593457Y-27572071D01*
X119593466Y-27572073D01*
X119893678Y-27609999D01*
X119893692Y-27610000D01*
X120196308Y-27610000D01*
X120196321Y-27609999D01*
X120496533Y-27572073D01*
X120496542Y-27572071D01*
X120789658Y-27496811D01*
X120914674Y-27447315D01*
X120984252Y-27440938D01*
X121046232Y-27473190D01*
X121080936Y-27533832D01*
X121077740Y-27602465D01*
X121014419Y-27789002D01*
X121014414Y-27789022D01*
X120956148Y-28081947D01*
X120956144Y-28081974D01*
X120936611Y-28379992D01*
X120936611Y-28380007D01*
X120956144Y-28678025D01*
X120956145Y-28678035D01*
X120956146Y-28678042D01*
X120956148Y-28678052D01*
X121014414Y-28970977D01*
X121014419Y-28970997D01*
X121077740Y-29157534D01*
X121080650Y-29227343D01*
X121045355Y-29287643D01*
X120983063Y-29319289D01*
X120914674Y-29312685D01*
X120789651Y-29263186D01*
X120496542Y-29187928D01*
X120496533Y-29187926D01*
X120196321Y-29150000D01*
X119893678Y-29150000D01*
X119593466Y-29187926D01*
X119593457Y-29187928D01*
X119300340Y-29263188D01*
X119018984Y-29374583D01*
X119018983Y-29374584D01*
X118753789Y-29520377D01*
X118753777Y-29520384D01*
X118527985Y-29684431D01*
X118527984Y-29684432D01*
X119711790Y-30868236D01*
X119684058Y-30879724D01*
X119559253Y-30963116D01*
X119453116Y-31069253D01*
X119369724Y-31194058D01*
X119358237Y-31221789D01*
X118176761Y-30040313D01*
X118095463Y-30138586D01*
X117933317Y-30394089D01*
X117933313Y-30394095D01*
X117804468Y-30667903D01*
X117804466Y-30667908D01*
X117710953Y-30955713D01*
X117654246Y-31252981D01*
X117654245Y-31252988D01*
X117635245Y-31554994D01*
X117635245Y-31555005D01*
X117654245Y-31857011D01*
X117654246Y-31857018D01*
X117710953Y-32154286D01*
X117804466Y-32442091D01*
X117804468Y-32442096D01*
X117933313Y-32715904D01*
X117933317Y-32715910D01*
X118095460Y-32971408D01*
X118176761Y-33069684D01*
X119358236Y-31888209D01*
X119369724Y-31915942D01*
X119453116Y-32040747D01*
X119559253Y-32146884D01*
X119684058Y-32230276D01*
X119711789Y-32241762D01*
X118527984Y-33425566D01*
X118527985Y-33425568D01*
X118753786Y-33589621D01*
X119018983Y-33735415D01*
X119018984Y-33735416D01*
X119300340Y-33846811D01*
X119593457Y-33922071D01*
X119593466Y-33922073D01*
X119893678Y-33959999D01*
X119893692Y-33960000D01*
X120196308Y-33960000D01*
X120196321Y-33959999D01*
X120496533Y-33922073D01*
X120496542Y-33922071D01*
X120789659Y-33846811D01*
X121071015Y-33735416D01*
X121071016Y-33735415D01*
X121336208Y-33589624D01*
X121562013Y-33425567D01*
X121562014Y-33425566D01*
X120378210Y-32241762D01*
X120405942Y-32230276D01*
X120530747Y-32146884D01*
X120636884Y-32040747D01*
X120720276Y-31915942D01*
X120731763Y-31888209D01*
X121913237Y-33069684D01*
X121994536Y-32971413D01*
X122156682Y-32715910D01*
X122156686Y-32715904D01*
X122285531Y-32442096D01*
X122285533Y-32442091D01*
X122379046Y-32154286D01*
X122435753Y-31857018D01*
X122435754Y-31857011D01*
X122454755Y-31555005D01*
X122454755Y-31554994D01*
X122435754Y-31252988D01*
X122435753Y-31252981D01*
X122379046Y-30955713D01*
X122289324Y-30679574D01*
X122287329Y-30609733D01*
X122323410Y-30549900D01*
X122386111Y-30519072D01*
X122447114Y-30523837D01*
X122506032Y-30543837D01*
X122629015Y-30585584D01*
X122921958Y-30643854D01*
X122950577Y-30645729D01*
X123219993Y-30663389D01*
X123220000Y-30663389D01*
X123220007Y-30663389D01*
X123458607Y-30647749D01*
X123518042Y-30643854D01*
X123810985Y-30585584D01*
X123992888Y-30523835D01*
X124062695Y-30520926D01*
X124122995Y-30556220D01*
X124154642Y-30618512D01*
X124150676Y-30679573D01*
X124060953Y-30955713D01*
X124004246Y-31252981D01*
X124004245Y-31252988D01*
X123985245Y-31554994D01*
X123985245Y-31555005D01*
X124004245Y-31857011D01*
X124004246Y-31857018D01*
X124060953Y-32154286D01*
X124154466Y-32442091D01*
X124154468Y-32442096D01*
X124283313Y-32715904D01*
X124283317Y-32715910D01*
X124445460Y-32971408D01*
X124526761Y-33069684D01*
X125708236Y-31888208D01*
X125719724Y-31915942D01*
X125803116Y-32040747D01*
X125909253Y-32146884D01*
X126034058Y-32230276D01*
X126061789Y-32241762D01*
X124877984Y-33425566D01*
X124877985Y-33425568D01*
X125103786Y-33589621D01*
X125368983Y-33735415D01*
X125368984Y-33735416D01*
X125650340Y-33846811D01*
X125943457Y-33922071D01*
X125943466Y-33922073D01*
X126243678Y-33959999D01*
X126243692Y-33960000D01*
X126546308Y-33960000D01*
X126546321Y-33959999D01*
X126846533Y-33922073D01*
X126846542Y-33922071D01*
X127139659Y-33846811D01*
X127421015Y-33735416D01*
X127421016Y-33735415D01*
X127686208Y-33589624D01*
X127912013Y-33425567D01*
X127912014Y-33425566D01*
X126728210Y-32241762D01*
X126755942Y-32230276D01*
X126880747Y-32146884D01*
X126986884Y-32040747D01*
X127070276Y-31915942D01*
X127081762Y-31888209D01*
X128263237Y-33069684D01*
X128344536Y-32971413D01*
X128506682Y-32715910D01*
X128506686Y-32715904D01*
X128635531Y-32442096D01*
X128635533Y-32442091D01*
X128729046Y-32154286D01*
X128785753Y-31857018D01*
X128785754Y-31857011D01*
X128804755Y-31555005D01*
X128804755Y-31554994D01*
X128785754Y-31252988D01*
X128785753Y-31252981D01*
X128729046Y-30955713D01*
X128635533Y-30667908D01*
X128635531Y-30667903D01*
X128506686Y-30394095D01*
X128506682Y-30394089D01*
X128344539Y-30138591D01*
X128263236Y-30040313D01*
X127081762Y-31221788D01*
X127070276Y-31194058D01*
X126986884Y-31069253D01*
X126880747Y-30963116D01*
X126755942Y-30879724D01*
X126728209Y-30868236D01*
X127912014Y-29684432D01*
X127912013Y-29684430D01*
X127686213Y-29520378D01*
X127421016Y-29374584D01*
X127421015Y-29374583D01*
X127139659Y-29263188D01*
X126846542Y-29187928D01*
X126846533Y-29187926D01*
X126546321Y-29150000D01*
X126243678Y-29150000D01*
X125943466Y-29187926D01*
X125943457Y-29187928D01*
X125650348Y-29263186D01*
X125525324Y-29312686D01*
X125455746Y-29319062D01*
X125393766Y-29286809D01*
X125359062Y-29226167D01*
X125362257Y-29157537D01*
X125425584Y-28970985D01*
X125483854Y-28678042D01*
X125502078Y-28400007D01*
X125503389Y-28380007D01*
X125503389Y-28379992D01*
X125483855Y-28081974D01*
X125483854Y-28081958D01*
X125425584Y-27789015D01*
X125362257Y-27602462D01*
X125359348Y-27532656D01*
X125394642Y-27472356D01*
X125456934Y-27440709D01*
X125525325Y-27447314D01*
X125650343Y-27496812D01*
X125943457Y-27572071D01*
X125943466Y-27572073D01*
X126243678Y-27609999D01*
X126243692Y-27610000D01*
X126546308Y-27610000D01*
X126546321Y-27609999D01*
X126846533Y-27572073D01*
X126846542Y-27572071D01*
X127139659Y-27496811D01*
X127421015Y-27385416D01*
X127421016Y-27385415D01*
X127686208Y-27239624D01*
X127912013Y-27075567D01*
X127912014Y-27075566D01*
X126728209Y-25891763D01*
X126755942Y-25880276D01*
X126880747Y-25796884D01*
X126986884Y-25690747D01*
X127070276Y-25565942D01*
X127081762Y-25538209D01*
X128263237Y-26719684D01*
X128344536Y-26621413D01*
X128506682Y-26365910D01*
X128506686Y-26365904D01*
X128635531Y-26092096D01*
X128635533Y-26092091D01*
X128729046Y-25804286D01*
X128785753Y-25507018D01*
X128785754Y-25507011D01*
X128804755Y-25205005D01*
X128804755Y-25204994D01*
X128800351Y-25134994D01*
X139455245Y-25134994D01*
X139455245Y-25135005D01*
X139474245Y-25437011D01*
X139474246Y-25437018D01*
X139530953Y-25734286D01*
X139624466Y-26022091D01*
X139624468Y-26022096D01*
X139753313Y-26295904D01*
X139753317Y-26295910D01*
X139915460Y-26551408D01*
X139996761Y-26649684D01*
X141178236Y-25468209D01*
X141189724Y-25495942D01*
X141273116Y-25620747D01*
X141379253Y-25726884D01*
X141504058Y-25810276D01*
X141531789Y-25821762D01*
X140347984Y-27005566D01*
X140347985Y-27005568D01*
X140573786Y-27169621D01*
X140838983Y-27315415D01*
X140838984Y-27315416D01*
X141120340Y-27426811D01*
X141413457Y-27502071D01*
X141413466Y-27502073D01*
X141713678Y-27539999D01*
X141713692Y-27540000D01*
X142016308Y-27540000D01*
X142016321Y-27539999D01*
X142316533Y-27502073D01*
X142316542Y-27502071D01*
X142609658Y-27426811D01*
X142734674Y-27377315D01*
X142804252Y-27370938D01*
X142866232Y-27403190D01*
X142900936Y-27463832D01*
X142897740Y-27532465D01*
X142834419Y-27719002D01*
X142834414Y-27719022D01*
X142776148Y-28011947D01*
X142776144Y-28011974D01*
X142756611Y-28309992D01*
X142756611Y-28310007D01*
X142776144Y-28608025D01*
X142776145Y-28608035D01*
X142776146Y-28608042D01*
X142776148Y-28608052D01*
X142834414Y-28900977D01*
X142834419Y-28900997D01*
X142897740Y-29087534D01*
X142900650Y-29157343D01*
X142865355Y-29217643D01*
X142803063Y-29249289D01*
X142734674Y-29242685D01*
X142609651Y-29193186D01*
X142316542Y-29117928D01*
X142316533Y-29117926D01*
X142016321Y-29080000D01*
X141713678Y-29080000D01*
X141413466Y-29117926D01*
X141413457Y-29117928D01*
X141120340Y-29193188D01*
X140838984Y-29304583D01*
X140838983Y-29304584D01*
X140573789Y-29450377D01*
X140573777Y-29450384D01*
X140347985Y-29614431D01*
X140347984Y-29614432D01*
X141531790Y-30798236D01*
X141504058Y-30809724D01*
X141379253Y-30893116D01*
X141273116Y-30999253D01*
X141189724Y-31124058D01*
X141178237Y-31151789D01*
X139996761Y-29970313D01*
X139915463Y-30068586D01*
X139753317Y-30324089D01*
X139753313Y-30324095D01*
X139624468Y-30597903D01*
X139624466Y-30597908D01*
X139530953Y-30885713D01*
X139474246Y-31182981D01*
X139474245Y-31182988D01*
X139455245Y-31484994D01*
X139455245Y-31485005D01*
X139474245Y-31787011D01*
X139474246Y-31787018D01*
X139530953Y-32084286D01*
X139624466Y-32372091D01*
X139624468Y-32372096D01*
X139753313Y-32645904D01*
X139753317Y-32645910D01*
X139915460Y-32901408D01*
X139996761Y-32999684D01*
X141178236Y-31818209D01*
X141189724Y-31845942D01*
X141273116Y-31970747D01*
X141379253Y-32076884D01*
X141504058Y-32160276D01*
X141531789Y-32171762D01*
X140347984Y-33355566D01*
X140347985Y-33355568D01*
X140573786Y-33519621D01*
X140838983Y-33665415D01*
X140838984Y-33665416D01*
X141120340Y-33776811D01*
X141413457Y-33852071D01*
X141413466Y-33852073D01*
X141713678Y-33889999D01*
X141713692Y-33890000D01*
X142016308Y-33890000D01*
X142016321Y-33889999D01*
X142316533Y-33852073D01*
X142316542Y-33852071D01*
X142609659Y-33776811D01*
X142891015Y-33665416D01*
X142891016Y-33665415D01*
X143156208Y-33519624D01*
X143382013Y-33355567D01*
X143382014Y-33355566D01*
X142198210Y-32171762D01*
X142225942Y-32160276D01*
X142350747Y-32076884D01*
X142456884Y-31970747D01*
X142540276Y-31845942D01*
X142551763Y-31818209D01*
X143733237Y-32999684D01*
X143814536Y-32901413D01*
X143976682Y-32645910D01*
X143976686Y-32645904D01*
X144105531Y-32372096D01*
X144105533Y-32372091D01*
X144199046Y-32084286D01*
X144255753Y-31787018D01*
X144255754Y-31787011D01*
X144274755Y-31485005D01*
X144274755Y-31484994D01*
X144255754Y-31182988D01*
X144255753Y-31182981D01*
X144199046Y-30885713D01*
X144109324Y-30609574D01*
X144107329Y-30539733D01*
X144143410Y-30479900D01*
X144206111Y-30449072D01*
X144267114Y-30453837D01*
X144449015Y-30515584D01*
X144741958Y-30573854D01*
X144768307Y-30575581D01*
X145039993Y-30593389D01*
X145040000Y-30593389D01*
X145040007Y-30593389D01*
X145301944Y-30576220D01*
X145338042Y-30573854D01*
X145630985Y-30515584D01*
X145812888Y-30453835D01*
X145882695Y-30450926D01*
X145942995Y-30486220D01*
X145974642Y-30548512D01*
X145970676Y-30609573D01*
X145880953Y-30885713D01*
X145824246Y-31182981D01*
X145824245Y-31182988D01*
X145805245Y-31484994D01*
X145805245Y-31485005D01*
X145824245Y-31787011D01*
X145824246Y-31787018D01*
X145880953Y-32084286D01*
X145974466Y-32372091D01*
X145974468Y-32372096D01*
X146103313Y-32645904D01*
X146103317Y-32645910D01*
X146265460Y-32901408D01*
X146346761Y-32999684D01*
X147528236Y-31818208D01*
X147539724Y-31845942D01*
X147623116Y-31970747D01*
X147729253Y-32076884D01*
X147854058Y-32160276D01*
X147881789Y-32171762D01*
X146697984Y-33355566D01*
X146697985Y-33355568D01*
X146923786Y-33519621D01*
X147188983Y-33665415D01*
X147188984Y-33665416D01*
X147470340Y-33776811D01*
X147763457Y-33852071D01*
X147763466Y-33852073D01*
X148063678Y-33889999D01*
X148063692Y-33890000D01*
X148366308Y-33890000D01*
X148366321Y-33889999D01*
X148666533Y-33852073D01*
X148666542Y-33852071D01*
X148959659Y-33776811D01*
X149241015Y-33665416D01*
X149241016Y-33665415D01*
X149506208Y-33519624D01*
X149732013Y-33355567D01*
X149732014Y-33355566D01*
X148548210Y-32171762D01*
X148575942Y-32160276D01*
X148700747Y-32076884D01*
X148806884Y-31970747D01*
X148890276Y-31845942D01*
X148901762Y-31818209D01*
X150083237Y-32999684D01*
X150164536Y-32901413D01*
X150326682Y-32645910D01*
X150326686Y-32645904D01*
X150455531Y-32372096D01*
X150455533Y-32372091D01*
X150549046Y-32084286D01*
X150605753Y-31787018D01*
X150605754Y-31787011D01*
X150624755Y-31485005D01*
X150624755Y-31484994D01*
X150605754Y-31182988D01*
X150605753Y-31182981D01*
X150549046Y-30885713D01*
X150455533Y-30597908D01*
X150455531Y-30597903D01*
X150326686Y-30324095D01*
X150326682Y-30324089D01*
X150164539Y-30068591D01*
X150083236Y-29970313D01*
X148901762Y-31151788D01*
X148890276Y-31124058D01*
X148806884Y-30999253D01*
X148700747Y-30893116D01*
X148575942Y-30809724D01*
X148548209Y-30798236D01*
X149732014Y-29614432D01*
X149732013Y-29614430D01*
X149506213Y-29450378D01*
X149241016Y-29304584D01*
X149241015Y-29304583D01*
X148959659Y-29193188D01*
X148666542Y-29117928D01*
X148666533Y-29117926D01*
X148366321Y-29080000D01*
X148063678Y-29080000D01*
X147763466Y-29117926D01*
X147763457Y-29117928D01*
X147470348Y-29193186D01*
X147345324Y-29242686D01*
X147275746Y-29249062D01*
X147213766Y-29216809D01*
X147179062Y-29156167D01*
X147182257Y-29087537D01*
X147245584Y-28900985D01*
X147303854Y-28608042D01*
X147317491Y-28399992D01*
X147323389Y-28310007D01*
X147323389Y-28309992D01*
X147303855Y-28011974D01*
X147303854Y-28011958D01*
X147245584Y-27719015D01*
X147182257Y-27532462D01*
X147179348Y-27462656D01*
X147214642Y-27402356D01*
X147276934Y-27370709D01*
X147345325Y-27377314D01*
X147470343Y-27426812D01*
X147763457Y-27502071D01*
X147763466Y-27502073D01*
X148063678Y-27539999D01*
X148063692Y-27540000D01*
X148366308Y-27540000D01*
X148366321Y-27539999D01*
X148666533Y-27502073D01*
X148666542Y-27502071D01*
X148959659Y-27426811D01*
X149241015Y-27315416D01*
X149241016Y-27315415D01*
X149506208Y-27169624D01*
X149732013Y-27005567D01*
X149732014Y-27005566D01*
X148548209Y-25821763D01*
X148575942Y-25810276D01*
X148700747Y-25726884D01*
X148806884Y-25620747D01*
X148890276Y-25495942D01*
X148901762Y-25468209D01*
X150083237Y-26649684D01*
X150164536Y-26551413D01*
X150326682Y-26295910D01*
X150326686Y-26295904D01*
X150455531Y-26022096D01*
X150455533Y-26022091D01*
X150549046Y-25734286D01*
X150605753Y-25437018D01*
X150605754Y-25437011D01*
X150620981Y-25194994D01*
X177055245Y-25194994D01*
X177055245Y-25195005D01*
X177074245Y-25497011D01*
X177074246Y-25497018D01*
X177130953Y-25794286D01*
X177224466Y-26082091D01*
X177224468Y-26082096D01*
X177353313Y-26355904D01*
X177353317Y-26355910D01*
X177515460Y-26611408D01*
X177596761Y-26709684D01*
X178778236Y-25528209D01*
X178789724Y-25555942D01*
X178873116Y-25680747D01*
X178979253Y-25786884D01*
X179104058Y-25870276D01*
X179131789Y-25881762D01*
X177947984Y-27065566D01*
X177947985Y-27065568D01*
X178173786Y-27229621D01*
X178438983Y-27375415D01*
X178438984Y-27375416D01*
X178720340Y-27486811D01*
X179013457Y-27562071D01*
X179013466Y-27562073D01*
X179313678Y-27599999D01*
X179313692Y-27600000D01*
X179616308Y-27600000D01*
X179616321Y-27599999D01*
X179916533Y-27562073D01*
X179916542Y-27562071D01*
X180209658Y-27486811D01*
X180334674Y-27437315D01*
X180404252Y-27430938D01*
X180466232Y-27463190D01*
X180500936Y-27523832D01*
X180497740Y-27592465D01*
X180434419Y-27779002D01*
X180434414Y-27779022D01*
X180376148Y-28071947D01*
X180376144Y-28071974D01*
X180356611Y-28369992D01*
X180356611Y-28370007D01*
X180376144Y-28668025D01*
X180376145Y-28668035D01*
X180376146Y-28668042D01*
X180376148Y-28668052D01*
X180434414Y-28960977D01*
X180434419Y-28960997D01*
X180497740Y-29147534D01*
X180500650Y-29217343D01*
X180465355Y-29277643D01*
X180403063Y-29309289D01*
X180334674Y-29302685D01*
X180209651Y-29253186D01*
X179916542Y-29177928D01*
X179916533Y-29177926D01*
X179616321Y-29140000D01*
X179313678Y-29140000D01*
X179013466Y-29177926D01*
X179013457Y-29177928D01*
X178720340Y-29253188D01*
X178438984Y-29364583D01*
X178438983Y-29364584D01*
X178173789Y-29510377D01*
X178173777Y-29510384D01*
X177947985Y-29674431D01*
X177947984Y-29674432D01*
X179131790Y-30858236D01*
X179104058Y-30869724D01*
X178979253Y-30953116D01*
X178873116Y-31059253D01*
X178789724Y-31184058D01*
X178778237Y-31211789D01*
X177596761Y-30030313D01*
X177515463Y-30128586D01*
X177353317Y-30384089D01*
X177353313Y-30384095D01*
X177224468Y-30657903D01*
X177224466Y-30657908D01*
X177130953Y-30945713D01*
X177074246Y-31242981D01*
X177074245Y-31242988D01*
X177055245Y-31544994D01*
X177055245Y-31545005D01*
X177074245Y-31847011D01*
X177074246Y-31847018D01*
X177130953Y-32144286D01*
X177224466Y-32432091D01*
X177224468Y-32432096D01*
X177353313Y-32705904D01*
X177353317Y-32705910D01*
X177515460Y-32961408D01*
X177596761Y-33059684D01*
X178778236Y-31878209D01*
X178789724Y-31905942D01*
X178873116Y-32030747D01*
X178979253Y-32136884D01*
X179104058Y-32220276D01*
X179131789Y-32231762D01*
X177947984Y-33415566D01*
X177947985Y-33415568D01*
X178173786Y-33579621D01*
X178438983Y-33725415D01*
X178438984Y-33725416D01*
X178720340Y-33836811D01*
X179013457Y-33912071D01*
X179013466Y-33912073D01*
X179313678Y-33949999D01*
X179313692Y-33950000D01*
X179616308Y-33950000D01*
X179616321Y-33949999D01*
X179916533Y-33912073D01*
X179916542Y-33912071D01*
X180209659Y-33836811D01*
X180491015Y-33725416D01*
X180491016Y-33725415D01*
X180756208Y-33579624D01*
X180982013Y-33415567D01*
X180982014Y-33415566D01*
X179798210Y-32231762D01*
X179825942Y-32220276D01*
X179950747Y-32136884D01*
X180056884Y-32030747D01*
X180140276Y-31905942D01*
X180151763Y-31878209D01*
X181333237Y-33059684D01*
X181414536Y-32961413D01*
X181576682Y-32705910D01*
X181576686Y-32705904D01*
X181705531Y-32432096D01*
X181705533Y-32432091D01*
X181799046Y-32144286D01*
X181855753Y-31847018D01*
X181855754Y-31847011D01*
X181874755Y-31545005D01*
X181874755Y-31544994D01*
X181855754Y-31242988D01*
X181855753Y-31242981D01*
X181799046Y-30945713D01*
X181709324Y-30669574D01*
X181707329Y-30599733D01*
X181743410Y-30539900D01*
X181806111Y-30509072D01*
X181867114Y-30513837D01*
X181896573Y-30523837D01*
X182049015Y-30575584D01*
X182341958Y-30633854D01*
X182370577Y-30635729D01*
X182639993Y-30653389D01*
X182640000Y-30653389D01*
X182640007Y-30653389D01*
X182878607Y-30637749D01*
X182938042Y-30633854D01*
X183230985Y-30575584D01*
X183412888Y-30513835D01*
X183482695Y-30510926D01*
X183542995Y-30546220D01*
X183574642Y-30608512D01*
X183570676Y-30669573D01*
X183480953Y-30945713D01*
X183424246Y-31242981D01*
X183424245Y-31242988D01*
X183405245Y-31544994D01*
X183405245Y-31545005D01*
X183424245Y-31847011D01*
X183424246Y-31847018D01*
X183480953Y-32144286D01*
X183574466Y-32432091D01*
X183574468Y-32432096D01*
X183703313Y-32705904D01*
X183703317Y-32705910D01*
X183865460Y-32961408D01*
X183946761Y-33059684D01*
X185128236Y-31878208D01*
X185139724Y-31905942D01*
X185223116Y-32030747D01*
X185329253Y-32136884D01*
X185454058Y-32220276D01*
X185481789Y-32231762D01*
X184297984Y-33415566D01*
X184297985Y-33415568D01*
X184523786Y-33579621D01*
X184788983Y-33725415D01*
X184788984Y-33725416D01*
X185070340Y-33836811D01*
X185363457Y-33912071D01*
X185363466Y-33912073D01*
X185663678Y-33949999D01*
X185663692Y-33950000D01*
X185966308Y-33950000D01*
X185966321Y-33949999D01*
X186266533Y-33912073D01*
X186266542Y-33912071D01*
X186559659Y-33836811D01*
X186841015Y-33725416D01*
X186841016Y-33725415D01*
X187106208Y-33579624D01*
X187332013Y-33415567D01*
X187332014Y-33415566D01*
X186148210Y-32231762D01*
X186175942Y-32220276D01*
X186300747Y-32136884D01*
X186406884Y-32030747D01*
X186490276Y-31905942D01*
X186501762Y-31878209D01*
X187683237Y-33059684D01*
X187764536Y-32961413D01*
X187926682Y-32705910D01*
X187926686Y-32705904D01*
X188055531Y-32432096D01*
X188055533Y-32432091D01*
X188149046Y-32144286D01*
X188205753Y-31847018D01*
X188205754Y-31847011D01*
X188224755Y-31545005D01*
X188224755Y-31544994D01*
X188205754Y-31242988D01*
X188205753Y-31242981D01*
X188149046Y-30945713D01*
X188055533Y-30657908D01*
X188055531Y-30657903D01*
X187926686Y-30384095D01*
X187926682Y-30384089D01*
X187764539Y-30128591D01*
X187683236Y-30030313D01*
X186501762Y-31211788D01*
X186490276Y-31184058D01*
X186406884Y-31059253D01*
X186300747Y-30953116D01*
X186175942Y-30869724D01*
X186148209Y-30858236D01*
X187332014Y-29674432D01*
X187332013Y-29674430D01*
X187106213Y-29510378D01*
X186841016Y-29364584D01*
X186841015Y-29364583D01*
X186559659Y-29253188D01*
X186266542Y-29177928D01*
X186266533Y-29177926D01*
X185966321Y-29140000D01*
X185663678Y-29140000D01*
X185363466Y-29177926D01*
X185363457Y-29177928D01*
X185070348Y-29253186D01*
X184945324Y-29302686D01*
X184875746Y-29309062D01*
X184813766Y-29276809D01*
X184779062Y-29216167D01*
X184782257Y-29147537D01*
X184845584Y-28960985D01*
X184903854Y-28668042D01*
X184908514Y-28596947D01*
X184923389Y-28370007D01*
X184923389Y-28369992D01*
X184903855Y-28071974D01*
X184903854Y-28071958D01*
X184845584Y-27779015D01*
X184782257Y-27592462D01*
X184779348Y-27522656D01*
X184814642Y-27462356D01*
X184876934Y-27430709D01*
X184945325Y-27437314D01*
X185070343Y-27486812D01*
X185363457Y-27562071D01*
X185363466Y-27562073D01*
X185663678Y-27599999D01*
X185663692Y-27600000D01*
X185966308Y-27600000D01*
X185966321Y-27599999D01*
X186266533Y-27562073D01*
X186266542Y-27562071D01*
X186559659Y-27486811D01*
X186841015Y-27375416D01*
X186841016Y-27375415D01*
X187106208Y-27229624D01*
X187332013Y-27065567D01*
X187332014Y-27065566D01*
X186148209Y-25881763D01*
X186175942Y-25870276D01*
X186300747Y-25786884D01*
X186406884Y-25680747D01*
X186490276Y-25555942D01*
X186501762Y-25528209D01*
X187683237Y-26709684D01*
X187764536Y-26611413D01*
X187926682Y-26355910D01*
X187926686Y-26355904D01*
X188055531Y-26082096D01*
X188055533Y-26082091D01*
X188149046Y-25794286D01*
X188163218Y-25719994D01*
X234470245Y-25719994D01*
X234470245Y-25720005D01*
X234489245Y-26022011D01*
X234489246Y-26022018D01*
X234545953Y-26319286D01*
X234639466Y-26607091D01*
X234639468Y-26607096D01*
X234768313Y-26880904D01*
X234768317Y-26880910D01*
X234930460Y-27136408D01*
X235011761Y-27234684D01*
X236193236Y-26053209D01*
X236204724Y-26080942D01*
X236288116Y-26205747D01*
X236394253Y-26311884D01*
X236519058Y-26395276D01*
X236546789Y-26406762D01*
X235362984Y-27590566D01*
X235362985Y-27590568D01*
X235588786Y-27754621D01*
X235853983Y-27900415D01*
X235853984Y-27900416D01*
X236135340Y-28011811D01*
X236428457Y-28087071D01*
X236428466Y-28087073D01*
X236728678Y-28124999D01*
X236728692Y-28125000D01*
X237031308Y-28125000D01*
X237031321Y-28124999D01*
X237331533Y-28087073D01*
X237331542Y-28087071D01*
X237624658Y-28011811D01*
X237749674Y-27962315D01*
X237819252Y-27955938D01*
X237881232Y-27988190D01*
X237915936Y-28048832D01*
X237912740Y-28117465D01*
X237849419Y-28304002D01*
X237849414Y-28304022D01*
X237791148Y-28596947D01*
X237791144Y-28596974D01*
X237771611Y-28894992D01*
X237771611Y-28895007D01*
X237791144Y-29193025D01*
X237791145Y-29193035D01*
X237791146Y-29193042D01*
X237791148Y-29193052D01*
X237849414Y-29485977D01*
X237849419Y-29485997D01*
X237912740Y-29672534D01*
X237915650Y-29742343D01*
X237880355Y-29802643D01*
X237818063Y-29834289D01*
X237749674Y-29827685D01*
X237624651Y-29778186D01*
X237331542Y-29702928D01*
X237331533Y-29702926D01*
X237031321Y-29665000D01*
X236728678Y-29665000D01*
X236428466Y-29702926D01*
X236428457Y-29702928D01*
X236135340Y-29778188D01*
X235853984Y-29889583D01*
X235853983Y-29889584D01*
X235588789Y-30035377D01*
X235588777Y-30035384D01*
X235362985Y-30199431D01*
X235362984Y-30199432D01*
X236546790Y-31383236D01*
X236519058Y-31394724D01*
X236394253Y-31478116D01*
X236288116Y-31584253D01*
X236204724Y-31709058D01*
X236193237Y-31736789D01*
X235011761Y-30555313D01*
X234930463Y-30653586D01*
X234768317Y-30909089D01*
X234768313Y-30909095D01*
X234639468Y-31182903D01*
X234639466Y-31182908D01*
X234545953Y-31470713D01*
X234489246Y-31767981D01*
X234489245Y-31767988D01*
X234470245Y-32069994D01*
X234470245Y-32070005D01*
X234489245Y-32372011D01*
X234489246Y-32372018D01*
X234545953Y-32669286D01*
X234639466Y-32957091D01*
X234639468Y-32957096D01*
X234768313Y-33230904D01*
X234768317Y-33230910D01*
X234930460Y-33486408D01*
X235011761Y-33584684D01*
X236193236Y-32403209D01*
X236204724Y-32430942D01*
X236288116Y-32555747D01*
X236394253Y-32661884D01*
X236519058Y-32745276D01*
X236546789Y-32756762D01*
X235362984Y-33940566D01*
X235362985Y-33940568D01*
X235588786Y-34104621D01*
X235853983Y-34250415D01*
X235853984Y-34250416D01*
X236135340Y-34361811D01*
X236428457Y-34437071D01*
X236428466Y-34437073D01*
X236728678Y-34474999D01*
X236728692Y-34475000D01*
X237031308Y-34475000D01*
X237031321Y-34474999D01*
X237331533Y-34437073D01*
X237331542Y-34437071D01*
X237624659Y-34361811D01*
X237906015Y-34250416D01*
X237906016Y-34250415D01*
X238171208Y-34104624D01*
X238397013Y-33940567D01*
X238397014Y-33940566D01*
X237213210Y-32756762D01*
X237240942Y-32745276D01*
X237365747Y-32661884D01*
X237471884Y-32555747D01*
X237555276Y-32430942D01*
X237566763Y-32403209D01*
X238748237Y-33584684D01*
X238829536Y-33486413D01*
X238991682Y-33230910D01*
X238991686Y-33230904D01*
X239120531Y-32957096D01*
X239120533Y-32957091D01*
X239214046Y-32669286D01*
X239270753Y-32372018D01*
X239270754Y-32372011D01*
X239289755Y-32070005D01*
X239289755Y-32069994D01*
X239270754Y-31767988D01*
X239270753Y-31767981D01*
X239214046Y-31470713D01*
X239124324Y-31194574D01*
X239122329Y-31124733D01*
X239158410Y-31064900D01*
X239221111Y-31034072D01*
X239282114Y-31038837D01*
X239464015Y-31100584D01*
X239756958Y-31158854D01*
X239785577Y-31160729D01*
X240054993Y-31178389D01*
X240055000Y-31178389D01*
X240055007Y-31178389D01*
X240293607Y-31162749D01*
X240353042Y-31158854D01*
X240645985Y-31100584D01*
X240827888Y-31038835D01*
X240897695Y-31035926D01*
X240957995Y-31071220D01*
X240989642Y-31133512D01*
X240985676Y-31194573D01*
X240895953Y-31470713D01*
X240839246Y-31767981D01*
X240839245Y-31767988D01*
X240820245Y-32069994D01*
X240820245Y-32070005D01*
X240839245Y-32372011D01*
X240839246Y-32372018D01*
X240895953Y-32669286D01*
X240989466Y-32957091D01*
X240989468Y-32957096D01*
X241118313Y-33230904D01*
X241118317Y-33230910D01*
X241280460Y-33486408D01*
X241361761Y-33584684D01*
X242543236Y-32403208D01*
X242554724Y-32430942D01*
X242638116Y-32555747D01*
X242744253Y-32661884D01*
X242869058Y-32745276D01*
X242896789Y-32756762D01*
X241712984Y-33940566D01*
X241712985Y-33940568D01*
X241938786Y-34104621D01*
X242203983Y-34250415D01*
X242203984Y-34250416D01*
X242485340Y-34361811D01*
X242778457Y-34437071D01*
X242778466Y-34437073D01*
X243078678Y-34474999D01*
X243078692Y-34475000D01*
X243381308Y-34475000D01*
X243381321Y-34474999D01*
X243681533Y-34437073D01*
X243681542Y-34437071D01*
X243974659Y-34361811D01*
X244256015Y-34250416D01*
X244256016Y-34250415D01*
X244521208Y-34104624D01*
X244747013Y-33940567D01*
X244747014Y-33940566D01*
X243563210Y-32756762D01*
X243590942Y-32745276D01*
X243715747Y-32661884D01*
X243821884Y-32555747D01*
X243905276Y-32430942D01*
X243916762Y-32403209D01*
X245098237Y-33584684D01*
X245179536Y-33486413D01*
X245341682Y-33230910D01*
X245341686Y-33230904D01*
X245470531Y-32957096D01*
X245470533Y-32957091D01*
X245564046Y-32669286D01*
X245620753Y-32372018D01*
X245620754Y-32372011D01*
X245639755Y-32070005D01*
X245639755Y-32069994D01*
X245620754Y-31767988D01*
X245620753Y-31767981D01*
X245564046Y-31470713D01*
X245470533Y-31182908D01*
X245470531Y-31182903D01*
X245341686Y-30909095D01*
X245341682Y-30909089D01*
X245179539Y-30653591D01*
X245098236Y-30555313D01*
X243916762Y-31736788D01*
X243905276Y-31709058D01*
X243821884Y-31584253D01*
X243715747Y-31478116D01*
X243590942Y-31394724D01*
X243563209Y-31383236D01*
X244747014Y-30199432D01*
X244747013Y-30199430D01*
X244521213Y-30035378D01*
X244256016Y-29889584D01*
X244256015Y-29889583D01*
X243974659Y-29778188D01*
X243681542Y-29702928D01*
X243681533Y-29702926D01*
X243381321Y-29665000D01*
X243078678Y-29665000D01*
X242778466Y-29702926D01*
X242778457Y-29702928D01*
X242485348Y-29778186D01*
X242360324Y-29827686D01*
X242290746Y-29834062D01*
X242228766Y-29801809D01*
X242194062Y-29741167D01*
X242197257Y-29672537D01*
X242260584Y-29485985D01*
X242318854Y-29193042D01*
X242323777Y-29117926D01*
X242338389Y-28895007D01*
X242338389Y-28894992D01*
X242318855Y-28596974D01*
X242318854Y-28596958D01*
X242260584Y-28304015D01*
X242197257Y-28117462D01*
X242194348Y-28047656D01*
X242229642Y-27987356D01*
X242291934Y-27955709D01*
X242360325Y-27962314D01*
X242485343Y-28011812D01*
X242778457Y-28087071D01*
X242778466Y-28087073D01*
X243078678Y-28124999D01*
X243078692Y-28125000D01*
X243381308Y-28125000D01*
X243381321Y-28124999D01*
X243681533Y-28087073D01*
X243681542Y-28087071D01*
X243974659Y-28011811D01*
X244256015Y-27900416D01*
X244256016Y-27900415D01*
X244521208Y-27754624D01*
X244747013Y-27590567D01*
X244747014Y-27590566D01*
X243563209Y-26406763D01*
X243590942Y-26395276D01*
X243715747Y-26311884D01*
X243821884Y-26205747D01*
X243905276Y-26080942D01*
X243916762Y-26053209D01*
X245098237Y-27234684D01*
X245179536Y-27136413D01*
X245341682Y-26880910D01*
X245341686Y-26880904D01*
X245470531Y-26607096D01*
X245470533Y-26607091D01*
X245564046Y-26319286D01*
X245620753Y-26022018D01*
X245620754Y-26022011D01*
X245639755Y-25720005D01*
X245639755Y-25719994D01*
X245620754Y-25417988D01*
X245620753Y-25417981D01*
X245564046Y-25120713D01*
X245470533Y-24832908D01*
X245470531Y-24832903D01*
X245341686Y-24559095D01*
X245341682Y-24559089D01*
X245179539Y-24303591D01*
X245098236Y-24205313D01*
X243916762Y-25386788D01*
X243905276Y-25359058D01*
X243821884Y-25234253D01*
X243715747Y-25128116D01*
X243590942Y-25044724D01*
X243563208Y-25033236D01*
X244747014Y-23849432D01*
X244747013Y-23849430D01*
X244521213Y-23685378D01*
X244256016Y-23539584D01*
X244256015Y-23539583D01*
X243974659Y-23428188D01*
X243681542Y-23352928D01*
X243681533Y-23352926D01*
X243381321Y-23315000D01*
X243078678Y-23315000D01*
X242778466Y-23352926D01*
X242778457Y-23352928D01*
X242485340Y-23428188D01*
X242203984Y-23539583D01*
X242203983Y-23539584D01*
X241938789Y-23685377D01*
X241938777Y-23685384D01*
X241712985Y-23849431D01*
X241712984Y-23849432D01*
X242896789Y-25033237D01*
X242869058Y-25044724D01*
X242744253Y-25128116D01*
X242638116Y-25234253D01*
X242554724Y-25359058D01*
X242543236Y-25386790D01*
X241361761Y-24205313D01*
X241280463Y-24303586D01*
X241118317Y-24559089D01*
X241118313Y-24559095D01*
X240989468Y-24832903D01*
X240989466Y-24832908D01*
X240895953Y-25120713D01*
X240839246Y-25417981D01*
X240839245Y-25417988D01*
X240820245Y-25719994D01*
X240820245Y-25720005D01*
X240839245Y-26022011D01*
X240839246Y-26022018D01*
X240895953Y-26319286D01*
X240985675Y-26595425D01*
X240987670Y-26665267D01*
X240951589Y-26725099D01*
X240888888Y-26755927D01*
X240827886Y-26751162D01*
X240645997Y-26689419D01*
X240645977Y-26689414D01*
X240353052Y-26631148D01*
X240353042Y-26631146D01*
X240353035Y-26631145D01*
X240353025Y-26631144D01*
X240055007Y-26611611D01*
X240054993Y-26611611D01*
X239756974Y-26631144D01*
X239756962Y-26631145D01*
X239756958Y-26631146D01*
X239756950Y-26631147D01*
X239756947Y-26631148D01*
X239464022Y-26689414D01*
X239464017Y-26689415D01*
X239464015Y-26689416D01*
X239391009Y-26714198D01*
X239282113Y-26751163D01*
X239212304Y-26754071D01*
X239152004Y-26718777D01*
X239120358Y-26656485D01*
X239124324Y-26595425D01*
X239214046Y-26319286D01*
X239270753Y-26022018D01*
X239270754Y-26022011D01*
X239289755Y-25720005D01*
X239289755Y-25719994D01*
X239270754Y-25417988D01*
X239270753Y-25417981D01*
X239214046Y-25120713D01*
X239120533Y-24832908D01*
X239120531Y-24832903D01*
X238991686Y-24559095D01*
X238991682Y-24559089D01*
X238829539Y-24303591D01*
X238748236Y-24205313D01*
X237566762Y-25386789D01*
X237555276Y-25359058D01*
X237471884Y-25234253D01*
X237365747Y-25128116D01*
X237240942Y-25044724D01*
X237213208Y-25033236D01*
X238397014Y-23849432D01*
X238397013Y-23849430D01*
X238171213Y-23685378D01*
X237906016Y-23539584D01*
X237906015Y-23539583D01*
X237624659Y-23428188D01*
X237331542Y-23352928D01*
X237331533Y-23352926D01*
X237031321Y-23315000D01*
X236728678Y-23315000D01*
X236428466Y-23352926D01*
X236428457Y-23352928D01*
X236135340Y-23428188D01*
X235853984Y-23539583D01*
X235853983Y-23539584D01*
X235588789Y-23685377D01*
X235588777Y-23685384D01*
X235362985Y-23849431D01*
X235362984Y-23849432D01*
X236546789Y-25033237D01*
X236519058Y-25044724D01*
X236394253Y-25128116D01*
X236288116Y-25234253D01*
X236204724Y-25359058D01*
X236193237Y-25386789D01*
X235011761Y-24205313D01*
X234930463Y-24303586D01*
X234768317Y-24559089D01*
X234768313Y-24559095D01*
X234639468Y-24832903D01*
X234639466Y-24832908D01*
X234545953Y-25120713D01*
X234489246Y-25417981D01*
X234489245Y-25417988D01*
X234470245Y-25719994D01*
X188163218Y-25719994D01*
X188205753Y-25497018D01*
X188205754Y-25497011D01*
X188224755Y-25195005D01*
X188224755Y-25194994D01*
X188205754Y-24892988D01*
X188205753Y-24892981D01*
X188149046Y-24595713D01*
X188055533Y-24307908D01*
X188055531Y-24307903D01*
X187926686Y-24034095D01*
X187926682Y-24034089D01*
X187764539Y-23778591D01*
X187683236Y-23680313D01*
X186501762Y-24861788D01*
X186490276Y-24834058D01*
X186406884Y-24709253D01*
X186300747Y-24603116D01*
X186175942Y-24519724D01*
X186148208Y-24508236D01*
X187332014Y-23324432D01*
X187332013Y-23324430D01*
X187106213Y-23160378D01*
X186841016Y-23014584D01*
X186841015Y-23014583D01*
X186559659Y-22903188D01*
X186266542Y-22827928D01*
X186266533Y-22827926D01*
X185966321Y-22790000D01*
X185663678Y-22790000D01*
X185363466Y-22827926D01*
X185363457Y-22827928D01*
X185070340Y-22903188D01*
X184788984Y-23014583D01*
X184788983Y-23014584D01*
X184523789Y-23160377D01*
X184523777Y-23160384D01*
X184297985Y-23324431D01*
X184297984Y-23324432D01*
X185481789Y-24508237D01*
X185454058Y-24519724D01*
X185329253Y-24603116D01*
X185223116Y-24709253D01*
X185139724Y-24834058D01*
X185128236Y-24861790D01*
X183946761Y-23680313D01*
X183865463Y-23778586D01*
X183703317Y-24034089D01*
X183703313Y-24034095D01*
X183574468Y-24307903D01*
X183574466Y-24307908D01*
X183480953Y-24595713D01*
X183424246Y-24892981D01*
X183424245Y-24892988D01*
X183405245Y-25194994D01*
X183405245Y-25195005D01*
X183424245Y-25497011D01*
X183424246Y-25497018D01*
X183480953Y-25794286D01*
X183570675Y-26070425D01*
X183572670Y-26140267D01*
X183536589Y-26200099D01*
X183473888Y-26230927D01*
X183412886Y-26226162D01*
X183230997Y-26164419D01*
X183230977Y-26164414D01*
X182938052Y-26106148D01*
X182938042Y-26106146D01*
X182938035Y-26106145D01*
X182938025Y-26106144D01*
X182640007Y-26086611D01*
X182639993Y-26086611D01*
X182341974Y-26106144D01*
X182341962Y-26106145D01*
X182341958Y-26106146D01*
X182341950Y-26106147D01*
X182341947Y-26106148D01*
X182049022Y-26164414D01*
X182049017Y-26164415D01*
X182049015Y-26164416D01*
X182009832Y-26177717D01*
X181867113Y-26226163D01*
X181797304Y-26229071D01*
X181737004Y-26193777D01*
X181705358Y-26131485D01*
X181709324Y-26070425D01*
X181799046Y-25794286D01*
X181855753Y-25497018D01*
X181855754Y-25497011D01*
X181874755Y-25195005D01*
X181874755Y-25194994D01*
X181855754Y-24892988D01*
X181855753Y-24892981D01*
X181799046Y-24595713D01*
X181705533Y-24307908D01*
X181705531Y-24307903D01*
X181576686Y-24034095D01*
X181576682Y-24034089D01*
X181414539Y-23778591D01*
X181333236Y-23680313D01*
X180151762Y-24861789D01*
X180140276Y-24834058D01*
X180056884Y-24709253D01*
X179950747Y-24603116D01*
X179825942Y-24519724D01*
X179798208Y-24508236D01*
X180982014Y-23324432D01*
X180982013Y-23324430D01*
X180756213Y-23160378D01*
X180491016Y-23014584D01*
X180491015Y-23014583D01*
X180209659Y-22903188D01*
X179916542Y-22827928D01*
X179916533Y-22827926D01*
X179616321Y-22790000D01*
X179313678Y-22790000D01*
X179013466Y-22827926D01*
X179013457Y-22827928D01*
X178720340Y-22903188D01*
X178438984Y-23014583D01*
X178438983Y-23014584D01*
X178173789Y-23160377D01*
X178173777Y-23160384D01*
X177947985Y-23324431D01*
X177947984Y-23324432D01*
X179131789Y-24508237D01*
X179104058Y-24519724D01*
X178979253Y-24603116D01*
X178873116Y-24709253D01*
X178789724Y-24834058D01*
X178778237Y-24861789D01*
X177596761Y-23680313D01*
X177515463Y-23778586D01*
X177353317Y-24034089D01*
X177353313Y-24034095D01*
X177224468Y-24307903D01*
X177224466Y-24307908D01*
X177130953Y-24595713D01*
X177074246Y-24892981D01*
X177074245Y-24892988D01*
X177055245Y-25194994D01*
X150620981Y-25194994D01*
X150624755Y-25135005D01*
X150624755Y-25134994D01*
X150605754Y-24832988D01*
X150605753Y-24832981D01*
X150549046Y-24535713D01*
X150455533Y-24247908D01*
X150455531Y-24247903D01*
X150326686Y-23974095D01*
X150326682Y-23974089D01*
X150164539Y-23718591D01*
X150083236Y-23620313D01*
X148901762Y-24801788D01*
X148890276Y-24774058D01*
X148806884Y-24649253D01*
X148700747Y-24543116D01*
X148575942Y-24459724D01*
X148548208Y-24448236D01*
X149732014Y-23264432D01*
X149732013Y-23264430D01*
X149506213Y-23100378D01*
X149241016Y-22954584D01*
X149241015Y-22954583D01*
X148959659Y-22843188D01*
X148666542Y-22767928D01*
X148666533Y-22767926D01*
X148366321Y-22730000D01*
X148063678Y-22730000D01*
X147763466Y-22767926D01*
X147763457Y-22767928D01*
X147470340Y-22843188D01*
X147188984Y-22954583D01*
X147188983Y-22954584D01*
X146923789Y-23100377D01*
X146923777Y-23100384D01*
X146697985Y-23264431D01*
X146697984Y-23264432D01*
X147881789Y-24448237D01*
X147854058Y-24459724D01*
X147729253Y-24543116D01*
X147623116Y-24649253D01*
X147539724Y-24774058D01*
X147528236Y-24801790D01*
X146346761Y-23620313D01*
X146265463Y-23718586D01*
X146103317Y-23974089D01*
X146103313Y-23974095D01*
X145974468Y-24247903D01*
X145974466Y-24247908D01*
X145880953Y-24535713D01*
X145824246Y-24832981D01*
X145824245Y-24832988D01*
X145805245Y-25134994D01*
X145805245Y-25135005D01*
X145824245Y-25437011D01*
X145824246Y-25437018D01*
X145880953Y-25734286D01*
X145970675Y-26010425D01*
X145972670Y-26080267D01*
X145936589Y-26140099D01*
X145873888Y-26170927D01*
X145812886Y-26166162D01*
X145630997Y-26104419D01*
X145630977Y-26104414D01*
X145338052Y-26046148D01*
X145338042Y-26046146D01*
X145338035Y-26046145D01*
X145338025Y-26046144D01*
X145040007Y-26026611D01*
X145039993Y-26026611D01*
X144741974Y-26046144D01*
X144741962Y-26046145D01*
X144741958Y-26046146D01*
X144741950Y-26046147D01*
X144741947Y-26046148D01*
X144449022Y-26104414D01*
X144449017Y-26104415D01*
X144449015Y-26104416D01*
X144414460Y-26116146D01*
X144267113Y-26166163D01*
X144197304Y-26169071D01*
X144137004Y-26133777D01*
X144105358Y-26071485D01*
X144109324Y-26010425D01*
X144199046Y-25734286D01*
X144255753Y-25437018D01*
X144255754Y-25437011D01*
X144274755Y-25135005D01*
X144274755Y-25134994D01*
X144255754Y-24832988D01*
X144255753Y-24832981D01*
X144199046Y-24535713D01*
X144105533Y-24247908D01*
X144105531Y-24247903D01*
X143976686Y-23974095D01*
X143976682Y-23974089D01*
X143814539Y-23718591D01*
X143733236Y-23620313D01*
X142551762Y-24801789D01*
X142540276Y-24774058D01*
X142456884Y-24649253D01*
X142350747Y-24543116D01*
X142225942Y-24459724D01*
X142198208Y-24448236D01*
X143382014Y-23264432D01*
X143382013Y-23264430D01*
X143156213Y-23100378D01*
X142891016Y-22954584D01*
X142891015Y-22954583D01*
X142609659Y-22843188D01*
X142316542Y-22767928D01*
X142316533Y-22767926D01*
X142016321Y-22730000D01*
X141713678Y-22730000D01*
X141413466Y-22767926D01*
X141413457Y-22767928D01*
X141120340Y-22843188D01*
X140838984Y-22954583D01*
X140838983Y-22954584D01*
X140573789Y-23100377D01*
X140573777Y-23100384D01*
X140347985Y-23264431D01*
X140347984Y-23264432D01*
X141531789Y-24448237D01*
X141504058Y-24459724D01*
X141379253Y-24543116D01*
X141273116Y-24649253D01*
X141189724Y-24774058D01*
X141178237Y-24801789D01*
X139996761Y-23620313D01*
X139915463Y-23718586D01*
X139753317Y-23974089D01*
X139753313Y-23974095D01*
X139624468Y-24247903D01*
X139624466Y-24247908D01*
X139530953Y-24535713D01*
X139474246Y-24832981D01*
X139474245Y-24832988D01*
X139455245Y-25134994D01*
X128800351Y-25134994D01*
X128785754Y-24902988D01*
X128785753Y-24902981D01*
X128729046Y-24605713D01*
X128635533Y-24317908D01*
X128635531Y-24317903D01*
X128506686Y-24044095D01*
X128506682Y-24044089D01*
X128344539Y-23788591D01*
X128263236Y-23690313D01*
X127081762Y-24871788D01*
X127070276Y-24844058D01*
X126986884Y-24719253D01*
X126880747Y-24613116D01*
X126755942Y-24529724D01*
X126728208Y-24518236D01*
X127912014Y-23334432D01*
X127912013Y-23334430D01*
X127686213Y-23170378D01*
X127421016Y-23024584D01*
X127421015Y-23024583D01*
X127139659Y-22913188D01*
X126846542Y-22837928D01*
X126846533Y-22837926D01*
X126546321Y-22800000D01*
X126243678Y-22800000D01*
X125943466Y-22837926D01*
X125943457Y-22837928D01*
X125650340Y-22913188D01*
X125368984Y-23024583D01*
X125368983Y-23024584D01*
X125103789Y-23170377D01*
X125103777Y-23170384D01*
X124877985Y-23334431D01*
X124877984Y-23334432D01*
X126061789Y-24518237D01*
X126034058Y-24529724D01*
X125909253Y-24613116D01*
X125803116Y-24719253D01*
X125719724Y-24844058D01*
X125708236Y-24871790D01*
X124526761Y-23690313D01*
X124445463Y-23788586D01*
X124283317Y-24044089D01*
X124283313Y-24044095D01*
X124154468Y-24317903D01*
X124154466Y-24317908D01*
X124060953Y-24605713D01*
X124004246Y-24902981D01*
X124004245Y-24902988D01*
X123985245Y-25204994D01*
X123985245Y-25205005D01*
X124004245Y-25507011D01*
X124004246Y-25507018D01*
X124060953Y-25804286D01*
X124150675Y-26080425D01*
X124152670Y-26150267D01*
X124116589Y-26210099D01*
X124053888Y-26240927D01*
X123992886Y-26236162D01*
X123810997Y-26174419D01*
X123810977Y-26174414D01*
X123518052Y-26116148D01*
X123518042Y-26116146D01*
X123518035Y-26116145D01*
X123518025Y-26116144D01*
X123220007Y-26096611D01*
X123219993Y-26096611D01*
X122921974Y-26116144D01*
X122921962Y-26116145D01*
X122921958Y-26116146D01*
X122921950Y-26116147D01*
X122921947Y-26116148D01*
X122629022Y-26174414D01*
X122629017Y-26174415D01*
X122629015Y-26174416D01*
X122570103Y-26194414D01*
X122447113Y-26236163D01*
X122377304Y-26239071D01*
X122317004Y-26203777D01*
X122285358Y-26141485D01*
X122289324Y-26080425D01*
X122379046Y-25804286D01*
X122435753Y-25507018D01*
X122435754Y-25507011D01*
X122454755Y-25205005D01*
X122454755Y-25204994D01*
X122435754Y-24902988D01*
X122435753Y-24902981D01*
X122379046Y-24605713D01*
X122285533Y-24317908D01*
X122285531Y-24317903D01*
X122156686Y-24044095D01*
X122156682Y-24044089D01*
X121994539Y-23788591D01*
X121913236Y-23690313D01*
X120731762Y-24871789D01*
X120720276Y-24844058D01*
X120636884Y-24719253D01*
X120530747Y-24613116D01*
X120405942Y-24529724D01*
X120378208Y-24518236D01*
X121562014Y-23334432D01*
X121562013Y-23334430D01*
X121336213Y-23170378D01*
X121071016Y-23024584D01*
X121071015Y-23024583D01*
X120789659Y-22913188D01*
X120496542Y-22837928D01*
X120496533Y-22837926D01*
X120196321Y-22800000D01*
X119893678Y-22800000D01*
X119593466Y-22837926D01*
X119593457Y-22837928D01*
X119300340Y-22913188D01*
X119018984Y-23024583D01*
X119018983Y-23024584D01*
X118753789Y-23170377D01*
X118753777Y-23170384D01*
X118527985Y-23334431D01*
X118527984Y-23334432D01*
X119711789Y-24518237D01*
X119684058Y-24529724D01*
X119559253Y-24613116D01*
X119453116Y-24719253D01*
X119369724Y-24844058D01*
X119358237Y-24871789D01*
X118176761Y-23690313D01*
X118095463Y-23788586D01*
X117933317Y-24044089D01*
X117933313Y-24044095D01*
X117804468Y-24317903D01*
X117804466Y-24317908D01*
X117710953Y-24605713D01*
X117654246Y-24902981D01*
X117654245Y-24902988D01*
X117635245Y-25204994D01*
X107444755Y-25204994D01*
X107425754Y-24902988D01*
X107425753Y-24902981D01*
X107369046Y-24605713D01*
X107275533Y-24317908D01*
X107275531Y-24317903D01*
X107146686Y-24044095D01*
X107146682Y-24044089D01*
X106984539Y-23788591D01*
X106903236Y-23690313D01*
X105721762Y-24871788D01*
X105710276Y-24844058D01*
X105626884Y-24719253D01*
X105520747Y-24613116D01*
X105395942Y-24529724D01*
X105368208Y-24518236D01*
X106552014Y-23334432D01*
X106552013Y-23334430D01*
X106326213Y-23170378D01*
X106061016Y-23024584D01*
X106061015Y-23024583D01*
X105779659Y-22913188D01*
X105486542Y-22837928D01*
X105486533Y-22837926D01*
X105186321Y-22800000D01*
X104883678Y-22800000D01*
X104583466Y-22837926D01*
X104583457Y-22837928D01*
X104290340Y-22913188D01*
X104008984Y-23024583D01*
X104008983Y-23024584D01*
X103743789Y-23170377D01*
X103743777Y-23170384D01*
X103517985Y-23334431D01*
X103517984Y-23334432D01*
X104701789Y-24518237D01*
X104674058Y-24529724D01*
X104549253Y-24613116D01*
X104443116Y-24719253D01*
X104359724Y-24844058D01*
X104348236Y-24871790D01*
X103166761Y-23690313D01*
X103085463Y-23788586D01*
X102923317Y-24044089D01*
X102923313Y-24044095D01*
X102794468Y-24317903D01*
X102794466Y-24317908D01*
X102700953Y-24605713D01*
X102644246Y-24902981D01*
X102644245Y-24902988D01*
X102625245Y-25204994D01*
X102625245Y-25205005D01*
X102644245Y-25507011D01*
X102644246Y-25507018D01*
X102700953Y-25804286D01*
X102790675Y-26080425D01*
X102792670Y-26150267D01*
X102756589Y-26210099D01*
X102693888Y-26240927D01*
X102632886Y-26236162D01*
X102450997Y-26174419D01*
X102450977Y-26174414D01*
X102158052Y-26116148D01*
X102158042Y-26116146D01*
X102158035Y-26116145D01*
X102158025Y-26116144D01*
X101860007Y-26096611D01*
X101859993Y-26096611D01*
X101561974Y-26116144D01*
X101561962Y-26116145D01*
X101561958Y-26116146D01*
X101561950Y-26116147D01*
X101561947Y-26116148D01*
X101269022Y-26174414D01*
X101269017Y-26174415D01*
X101269015Y-26174416D01*
X101210103Y-26194414D01*
X101087113Y-26236163D01*
X101017304Y-26239071D01*
X100957004Y-26203777D01*
X100925358Y-26141485D01*
X100929324Y-26080425D01*
X101019046Y-25804286D01*
X101075753Y-25507018D01*
X101075754Y-25507011D01*
X101094755Y-25205005D01*
X101094755Y-25204994D01*
X101075754Y-24902988D01*
X101075753Y-24902981D01*
X101019046Y-24605713D01*
X100925533Y-24317908D01*
X100925531Y-24317903D01*
X100796686Y-24044095D01*
X100796682Y-24044089D01*
X100634539Y-23788591D01*
X100553236Y-23690313D01*
X99371762Y-24871789D01*
X99360276Y-24844058D01*
X99276884Y-24719253D01*
X99170747Y-24613116D01*
X99045942Y-24529724D01*
X99018208Y-24518236D01*
X100202014Y-23334432D01*
X100202013Y-23334430D01*
X99976213Y-23170378D01*
X99711016Y-23024584D01*
X99711015Y-23024583D01*
X99429659Y-22913188D01*
X99136542Y-22837928D01*
X99136533Y-22837926D01*
X98836321Y-22800000D01*
X98533678Y-22800000D01*
X98233466Y-22837926D01*
X98233457Y-22837928D01*
X97940340Y-22913188D01*
X97658984Y-23024583D01*
X97658983Y-23024584D01*
X97393789Y-23170377D01*
X97393777Y-23170384D01*
X97167985Y-23334431D01*
X97167984Y-23334432D01*
X98351789Y-24518237D01*
X98324058Y-24529724D01*
X98199253Y-24613116D01*
X98093116Y-24719253D01*
X98009724Y-24844058D01*
X97998237Y-24871789D01*
X96816761Y-23690313D01*
X96735463Y-23788586D01*
X96573317Y-24044089D01*
X96573313Y-24044095D01*
X96444468Y-24317903D01*
X96444466Y-24317908D01*
X96350953Y-24605713D01*
X96294246Y-24902981D01*
X96294245Y-24902988D01*
X96275245Y-25204994D01*
X75043497Y-25204994D01*
X75025754Y-24922988D01*
X75025753Y-24922981D01*
X74969046Y-24625713D01*
X74875533Y-24337908D01*
X74875531Y-24337903D01*
X74746686Y-24064095D01*
X74746682Y-24064089D01*
X74584539Y-23808591D01*
X74503236Y-23710313D01*
X73321762Y-24891788D01*
X73310276Y-24864058D01*
X73226884Y-24739253D01*
X73120747Y-24633116D01*
X72995942Y-24549724D01*
X72968208Y-24538236D01*
X74152014Y-23354432D01*
X74152013Y-23354430D01*
X73926213Y-23190378D01*
X73661016Y-23044584D01*
X73661015Y-23044583D01*
X73379659Y-22933188D01*
X73086542Y-22857928D01*
X73086533Y-22857926D01*
X72786321Y-22820000D01*
X72483678Y-22820000D01*
X72183466Y-22857926D01*
X72183457Y-22857928D01*
X71890340Y-22933188D01*
X71608984Y-23044583D01*
X71608983Y-23044584D01*
X71343789Y-23190377D01*
X71343777Y-23190384D01*
X71117985Y-23354431D01*
X71117984Y-23354432D01*
X72301789Y-24538237D01*
X72274058Y-24549724D01*
X72149253Y-24633116D01*
X72043116Y-24739253D01*
X71959724Y-24864058D01*
X71948236Y-24891790D01*
X70766761Y-23710313D01*
X70685463Y-23808586D01*
X70523317Y-24064089D01*
X70523313Y-24064095D01*
X70394468Y-24337903D01*
X70394466Y-24337908D01*
X70300953Y-24625713D01*
X70244246Y-24922981D01*
X70244245Y-24922988D01*
X70225245Y-25224994D01*
X70225245Y-25225005D01*
X70244245Y-25527011D01*
X70244246Y-25527018D01*
X70300953Y-25824286D01*
X70390675Y-26100425D01*
X70392670Y-26170267D01*
X70356589Y-26230099D01*
X70293888Y-26260927D01*
X70232886Y-26256162D01*
X70050997Y-26194419D01*
X70050977Y-26194414D01*
X69758052Y-26136148D01*
X69758042Y-26136146D01*
X69758035Y-26136145D01*
X69758025Y-26136144D01*
X69460007Y-26116611D01*
X69459993Y-26116611D01*
X69161974Y-26136144D01*
X69161962Y-26136145D01*
X69161958Y-26136146D01*
X69161950Y-26136147D01*
X69161947Y-26136148D01*
X68869022Y-26194414D01*
X68869017Y-26194415D01*
X68869015Y-26194416D01*
X68796009Y-26219198D01*
X68687113Y-26256163D01*
X68617304Y-26259071D01*
X68557004Y-26223777D01*
X68525358Y-26161485D01*
X68529324Y-26100425D01*
X68619046Y-25824286D01*
X68675753Y-25527018D01*
X68675754Y-25527011D01*
X68694755Y-25225005D01*
X68694755Y-25224994D01*
X68675754Y-24922988D01*
X68675753Y-24922981D01*
X68619046Y-24625713D01*
X68525533Y-24337908D01*
X68525531Y-24337903D01*
X68396686Y-24064095D01*
X68396682Y-24064089D01*
X68234539Y-23808591D01*
X68153236Y-23710313D01*
X66971762Y-24891789D01*
X66960276Y-24864058D01*
X66876884Y-24739253D01*
X66770747Y-24633116D01*
X66645942Y-24549724D01*
X66618208Y-24538236D01*
X67802014Y-23354432D01*
X67802013Y-23354430D01*
X67576213Y-23190378D01*
X67311016Y-23044584D01*
X67311015Y-23044583D01*
X67029659Y-22933188D01*
X66736542Y-22857928D01*
X66736533Y-22857926D01*
X66436321Y-22820000D01*
X66133678Y-22820000D01*
X65833466Y-22857926D01*
X65833457Y-22857928D01*
X65540340Y-22933188D01*
X65258984Y-23044583D01*
X65258983Y-23044584D01*
X64993789Y-23190377D01*
X64993777Y-23190384D01*
X64767985Y-23354431D01*
X64767984Y-23354432D01*
X65951789Y-24538237D01*
X65924058Y-24549724D01*
X65799253Y-24633116D01*
X65693116Y-24739253D01*
X65609724Y-24864058D01*
X65598237Y-24891789D01*
X64416761Y-23710313D01*
X64335463Y-23808586D01*
X64173317Y-24064089D01*
X64173313Y-24064095D01*
X64044468Y-24337903D01*
X64044466Y-24337908D01*
X63950953Y-24625713D01*
X63894246Y-24922981D01*
X63894245Y-24922988D01*
X63875245Y-25224994D01*
X37370913Y-25224994D01*
X37365754Y-25142988D01*
X37365753Y-25142981D01*
X37309046Y-24845713D01*
X37215533Y-24557908D01*
X37215531Y-24557903D01*
X37086686Y-24284095D01*
X37086682Y-24284089D01*
X36924539Y-24028591D01*
X36843236Y-23930313D01*
X35661762Y-25111788D01*
X35650276Y-25084058D01*
X35566884Y-24959253D01*
X35460747Y-24853116D01*
X35335942Y-24769724D01*
X35308208Y-24758236D01*
X36492014Y-23574432D01*
X36492013Y-23574430D01*
X36266213Y-23410378D01*
X36001016Y-23264584D01*
X36001015Y-23264583D01*
X35719659Y-23153188D01*
X35426542Y-23077928D01*
X35426533Y-23077926D01*
X35126321Y-23040000D01*
X34823678Y-23040000D01*
X34523466Y-23077926D01*
X34523457Y-23077928D01*
X34230340Y-23153188D01*
X33948984Y-23264583D01*
X33948983Y-23264584D01*
X33683789Y-23410377D01*
X33683777Y-23410384D01*
X33457985Y-23574431D01*
X33457984Y-23574432D01*
X34641789Y-24758237D01*
X34614058Y-24769724D01*
X34489253Y-24853116D01*
X34383116Y-24959253D01*
X34299724Y-25084058D01*
X34288236Y-25111790D01*
X33106761Y-23930313D01*
X33025463Y-24028586D01*
X32863317Y-24284089D01*
X32863313Y-24284095D01*
X32734468Y-24557903D01*
X32734466Y-24557908D01*
X32640953Y-24845713D01*
X32584246Y-25142981D01*
X32584245Y-25142988D01*
X32565245Y-25444994D01*
X32565245Y-25445005D01*
X32584245Y-25747011D01*
X32584246Y-25747018D01*
X32640953Y-26044286D01*
X32730675Y-26320425D01*
X32732670Y-26390267D01*
X32696589Y-26450099D01*
X32633888Y-26480927D01*
X32572886Y-26476162D01*
X32390997Y-26414419D01*
X32390977Y-26414414D01*
X32098052Y-26356148D01*
X32098042Y-26356146D01*
X32098035Y-26356145D01*
X32098025Y-26356144D01*
X31800007Y-26336611D01*
X31799993Y-26336611D01*
X31501974Y-26356144D01*
X31501962Y-26356145D01*
X31501958Y-26356146D01*
X31501950Y-26356147D01*
X31501947Y-26356148D01*
X31209022Y-26414414D01*
X31209017Y-26414415D01*
X31209015Y-26414416D01*
X31185121Y-26422527D01*
X31027113Y-26476163D01*
X30957304Y-26479071D01*
X30897004Y-26443777D01*
X30865358Y-26381485D01*
X30869324Y-26320425D01*
X30959046Y-26044286D01*
X31015753Y-25747018D01*
X31015754Y-25747011D01*
X31034755Y-25445005D01*
X31034755Y-25444994D01*
X31015754Y-25142988D01*
X31015753Y-25142981D01*
X30959046Y-24845713D01*
X30865533Y-24557908D01*
X30865531Y-24557903D01*
X30736686Y-24284095D01*
X30736682Y-24284089D01*
X30574539Y-24028591D01*
X30493236Y-23930313D01*
X29311762Y-25111789D01*
X29300276Y-25084058D01*
X29216884Y-24959253D01*
X29110747Y-24853116D01*
X28985942Y-24769724D01*
X28958208Y-24758236D01*
X30142014Y-23574432D01*
X30142013Y-23574430D01*
X29916213Y-23410378D01*
X29651016Y-23264584D01*
X29651015Y-23264583D01*
X29369659Y-23153188D01*
X29076542Y-23077928D01*
X29076533Y-23077926D01*
X28776321Y-23040000D01*
X28473678Y-23040000D01*
X28173466Y-23077926D01*
X28173457Y-23077928D01*
X27880340Y-23153188D01*
X27598984Y-23264583D01*
X27598983Y-23264584D01*
X27333789Y-23410377D01*
X27333777Y-23410384D01*
X27107985Y-23574431D01*
X27107984Y-23574432D01*
X28291789Y-24758237D01*
X28264058Y-24769724D01*
X28139253Y-24853116D01*
X28033116Y-24959253D01*
X27949724Y-25084058D01*
X27938237Y-25111789D01*
X26756761Y-23930313D01*
X26675463Y-24028586D01*
X26513317Y-24284089D01*
X26513313Y-24284095D01*
X26384468Y-24557903D01*
X26384466Y-24557908D01*
X26290953Y-24845713D01*
X26234246Y-25142981D01*
X26234245Y-25142988D01*
X26215245Y-25444994D01*
X21200000Y-25444994D01*
X21200000Y-16724000D01*
X21219685Y-16656961D01*
X21272489Y-16611206D01*
X21324000Y-16600000D01*
X278076000Y-16600000D01*
X278143039Y-16619685D01*
G37*
%TD.AperFunction*%
%TD*%
M02*
