%TF.GenerationSoftware,KiCad,Pcbnew,8.0.8*%
%TF.CreationDate,2025-01-25T18:26:07-08:00*%
%TF.ProjectId,labs_board,6c616273-5f62-46f6-9172-642e6b696361,rev?*%
%TF.SameCoordinates,Original*%
%TF.FileFunction,Copper,L1,Top*%
%TF.FilePolarity,Positive*%
%FSLAX46Y46*%
G04 Gerber Fmt 4.6, Leading zero omitted, Abs format (unit mm)*
G04 Created by KiCad (PCBNEW 8.0.8) date 2025-01-25 18:26:07*
%MOMM*%
%LPD*%
G01*
G04 APERTURE LIST*
%TA.AperFunction,Conductor*%
%ADD10C,0.200000*%
%TD*%
%TA.AperFunction,ComponentPad*%
%ADD11C,3.810000*%
%TD*%
%TA.AperFunction,ComponentPad*%
%ADD12C,3.556000*%
%TD*%
%TA.AperFunction,Conductor*%
%ADD13C,1.500000*%
%TD*%
%TA.AperFunction,Conductor*%
%ADD14C,2.710000*%
%TD*%
G04 APERTURE END LIST*
D10*
%TO.N,/1G_BPF*%
X195000000Y-125000000D02*
X160000000Y-125000000D01*
X160000000Y-50000000D01*
X195000000Y-50000000D01*
X195000000Y-125000000D01*
%TA.AperFunction,Conductor*%
G36*
X195000000Y-125000000D02*
G01*
X160000000Y-125000000D01*
X160000000Y-50000000D01*
X195000000Y-50000000D01*
X195000000Y-125000000D01*
G37*
%TD.AperFunction*%
%TO.N,/Induct_Notch*%
X124330000Y-98310000D02*
X123180000Y-98300000D01*
X123180000Y-75330000D01*
X124340000Y-75330000D01*
X124330000Y-98310000D01*
%TA.AperFunction,Conductor*%
G36*
X124330000Y-98310000D02*
G01*
X123180000Y-98300000D01*
X123180000Y-75330000D01*
X124340000Y-75330000D01*
X124330000Y-98310000D01*
G37*
%TD.AperFunction*%
%TO.N,/90Bend_1*%
X70700000Y-144630000D02*
X68130000Y-144580000D01*
X68130000Y-112630000D01*
X70650000Y-112620000D01*
X70700000Y-144630000D01*
%TA.AperFunction,Conductor*%
G36*
X70700000Y-144630000D02*
G01*
X68130000Y-144580000D01*
X68130000Y-112630000D01*
X70650000Y-112620000D01*
X70700000Y-144630000D01*
G37*
%TD.AperFunction*%
X64980000Y-108860000D02*
X51640000Y-108890000D01*
X51640000Y-106390000D01*
X64980000Y-106360000D01*
X64980000Y-108860000D01*
%TA.AperFunction,Conductor*%
G36*
X64980000Y-108860000D02*
G01*
X51640000Y-108890000D01*
X51640000Y-106390000D01*
X64980000Y-106360000D01*
X64980000Y-108860000D01*
G37*
%TD.AperFunction*%
X48490000Y-102620000D02*
X45970000Y-102620000D01*
X45990000Y-64470000D01*
X48490000Y-64470000D01*
X48490000Y-102620000D01*
%TA.AperFunction,Conductor*%
G36*
X48490000Y-102620000D02*
G01*
X45970000Y-102620000D01*
X45990000Y-64470000D01*
X48490000Y-64470000D01*
X48490000Y-102620000D01*
G37*
%TD.AperFunction*%
X64540000Y-61280000D02*
X52020000Y-61320000D01*
X52000000Y-58810000D01*
X64530000Y-58780000D01*
X64540000Y-61280000D01*
%TA.AperFunction,Conductor*%
G36*
X64540000Y-61280000D02*
G01*
X52020000Y-61320000D01*
X52000000Y-58810000D01*
X64530000Y-58780000D01*
X64540000Y-61280000D01*
G37*
%TD.AperFunction*%
X48490000Y-106390000D02*
X51640000Y-106390000D01*
X51640000Y-108890000D01*
X49270000Y-108890000D01*
X46777553Y-106390000D01*
X48060000Y-106390000D01*
X48367143Y-106390000D01*
X48060000Y-106190000D01*
X48060000Y-106390000D01*
X46777553Y-106390000D01*
X45970000Y-105580000D01*
X45970000Y-102620000D01*
X48490000Y-102620000D01*
X48490000Y-106390000D01*
%TA.AperFunction,Conductor*%
G36*
X48490000Y-106390000D02*
G01*
X51640000Y-106390000D01*
X51640000Y-108890000D01*
X49270000Y-108890000D01*
X46777553Y-106390000D01*
X48060000Y-106390000D01*
X48367143Y-106390000D01*
X48060000Y-106190000D01*
X48060000Y-106390000D01*
X46777553Y-106390000D01*
X45970000Y-105580000D01*
X45970000Y-102620000D01*
X48490000Y-102620000D01*
X48490000Y-106390000D01*
G37*
%TD.AperFunction*%
X70650000Y-109670000D02*
X70650000Y-112620000D01*
X68130000Y-112630000D01*
X68130000Y-108860000D01*
X68252857Y-108860000D01*
X68560000Y-109060000D01*
X68560000Y-108860000D01*
X68252857Y-108860000D01*
X68130000Y-108860000D01*
X64980000Y-108860000D01*
X64980000Y-106360000D01*
X67350000Y-106360000D01*
X70650000Y-109670000D01*
%TA.AperFunction,Conductor*%
G36*
X70650000Y-109670000D02*
G01*
X70650000Y-112620000D01*
X68130000Y-112630000D01*
X68130000Y-108860000D01*
X68252857Y-108860000D01*
X68560000Y-109060000D01*
X68560000Y-108860000D01*
X68252857Y-108860000D01*
X68130000Y-108860000D01*
X64980000Y-108860000D01*
X64980000Y-106360000D01*
X67350000Y-106360000D01*
X70650000Y-109670000D01*
G37*
%TD.AperFunction*%
X52260000Y-61320000D02*
X48490000Y-61320000D01*
X48490000Y-64470000D01*
X45990000Y-64470000D01*
X45990000Y-62100000D01*
X46895594Y-61197142D01*
X48490000Y-61197142D01*
X48690000Y-60890000D01*
X48490000Y-60890000D01*
X48490000Y-61197142D01*
X46895594Y-61197142D01*
X49300000Y-58800000D01*
X52260000Y-58800000D01*
X52260000Y-61320000D01*
%TA.AperFunction,Conductor*%
G36*
X52260000Y-61320000D02*
G01*
X48490000Y-61320000D01*
X48490000Y-64470000D01*
X45990000Y-64470000D01*
X45990000Y-62100000D01*
X46895594Y-61197142D01*
X48490000Y-61197142D01*
X48690000Y-60890000D01*
X48490000Y-60890000D01*
X48490000Y-61197142D01*
X46895594Y-61197142D01*
X49300000Y-58800000D01*
X52260000Y-58800000D01*
X52260000Y-61320000D01*
G37*
%TD.AperFunction*%
X70650000Y-58000000D02*
X67340000Y-61300000D01*
X64380000Y-61290000D01*
X64380000Y-59210000D01*
X67950000Y-59210000D01*
X68150000Y-59210000D01*
X68150000Y-58902857D01*
X67950000Y-59210000D01*
X64380000Y-59210000D01*
X64380000Y-58780000D01*
X68150000Y-58780000D01*
X68150000Y-55630000D01*
X70650000Y-55630000D01*
X70650000Y-58000000D01*
%TA.AperFunction,Conductor*%
G36*
X70650000Y-58000000D02*
G01*
X67340000Y-61300000D01*
X64380000Y-61290000D01*
X64380000Y-59210000D01*
X67950000Y-59210000D01*
X68150000Y-59210000D01*
X68150000Y-58902857D01*
X67950000Y-59210000D01*
X64380000Y-59210000D01*
X64380000Y-58780000D01*
X68150000Y-58780000D01*
X68150000Y-55630000D01*
X70650000Y-55630000D01*
X70650000Y-58000000D01*
G37*
%TD.AperFunction*%
%TO.N,/Cap_bulge*%
X150000000Y-98000000D02*
X140000000Y-98000000D01*
X140000000Y-77000000D01*
X150000000Y-77000000D01*
X150000000Y-98000000D01*
%TA.AperFunction,Conductor*%
G36*
X150000000Y-98000000D02*
G01*
X140000000Y-98000000D01*
X140000000Y-77000000D01*
X150000000Y-77000000D01*
X150000000Y-98000000D01*
G37*
%TD.AperFunction*%
%TD*%
D11*
%TO.P,J14,2,Ext*%
%TO.N,GND*%
X243230000Y-154215000D03*
X243230000Y-147865000D03*
X236880000Y-154215000D03*
X236880000Y-147865000D03*
D12*
%TO.P,J14,1,In*%
%TO.N,/User_Area*%
X240055000Y-151040000D03*
%TD*%
%TO.P,J13,1,In*%
%TO.N,/User_Area*%
X240055000Y-28895000D03*
D11*
%TO.P,J13,2,Ext*%
%TO.N,GND*%
X236880000Y-25720000D03*
X236880000Y-32070000D03*
X243230000Y-25720000D03*
X243230000Y-32070000D03*
%TD*%
D12*
%TO.P,J1,1,In*%
%TO.N,/50ohm*%
X31800000Y-28620000D03*
D11*
%TO.P,J1,2,Ext*%
%TO.N,GND*%
X34975000Y-25445000D03*
X34975000Y-31795000D03*
X28625000Y-25445000D03*
X28625000Y-31795000D03*
%TD*%
D12*
%TO.P,J2,1,In*%
%TO.N,/50ohm*%
X31800000Y-150820000D03*
D11*
%TO.P,J2,2,Ext*%
%TO.N,GND*%
X34975000Y-147645000D03*
X34975000Y-153995000D03*
X28625000Y-147645000D03*
X28625000Y-153995000D03*
%TD*%
D12*
%TO.P,J3,1,In*%
%TO.N,/90Bend_1*%
X69460000Y-28400000D03*
D11*
%TO.P,J3,2,Ext*%
%TO.N,GND*%
X72635000Y-25225000D03*
X72635000Y-31575000D03*
X66285000Y-25225000D03*
X66285000Y-31575000D03*
%TD*%
D12*
%TO.P,J4,1,In*%
%TO.N,/90Bend_1*%
X69460000Y-150600000D03*
D11*
%TO.P,J4,2,Ext*%
%TO.N,GND*%
X72635000Y-147425000D03*
X72635000Y-153775000D03*
X66285000Y-147425000D03*
X66285000Y-153775000D03*
%TD*%
D12*
%TO.P,J5,1,In*%
%TO.N,/Induct_Notch*%
X123220000Y-28380000D03*
D11*
%TO.P,J5,2,Ext*%
%TO.N,GND*%
X126395000Y-25205000D03*
X126395000Y-31555000D03*
X120045000Y-25205000D03*
X120045000Y-31555000D03*
%TD*%
D12*
%TO.P,J6,1,In*%
%TO.N,/Induct_Notch*%
X123220000Y-150580000D03*
D11*
%TO.P,J6,2,Ext*%
%TO.N,GND*%
X126395000Y-147405000D03*
X126395000Y-153755000D03*
X120045000Y-147405000D03*
X120045000Y-153755000D03*
%TD*%
D12*
%TO.P,J7,1,In*%
%TO.N,/Cap_bulge*%
X145040000Y-28310000D03*
D11*
%TO.P,J7,2,Ext*%
%TO.N,GND*%
X148215000Y-25135000D03*
X148215000Y-31485000D03*
X141865000Y-25135000D03*
X141865000Y-31485000D03*
%TD*%
D12*
%TO.P,J8,1,In*%
%TO.N,/Cap_bulge*%
X145040000Y-150510000D03*
D11*
%TO.P,J8,2,Ext*%
%TO.N,GND*%
X148215000Y-147335000D03*
X148215000Y-153685000D03*
X141865000Y-147335000D03*
X141865000Y-153685000D03*
%TD*%
D12*
%TO.P,J9,1,In*%
%TO.N,/1G_BPF*%
X177000000Y-28370000D03*
D11*
%TO.P,J9,2,Ext*%
%TO.N,GND*%
X180175000Y-25195000D03*
X180175000Y-31545000D03*
X173825000Y-25195000D03*
X173825000Y-31545000D03*
%TD*%
D12*
%TO.P,J10,1,In*%
%TO.N,/1G_BPF*%
X177000000Y-150570000D03*
D11*
%TO.P,J10,2,Ext*%
%TO.N,GND*%
X180175000Y-147395000D03*
X180175000Y-153745000D03*
X173825000Y-147395000D03*
X173825000Y-153745000D03*
%TD*%
D12*
%TO.P,J11,1,In*%
%TO.N,/90Bend_2*%
X101860000Y-28380000D03*
D11*
%TO.P,J11,2,Ext*%
%TO.N,GND*%
X105035000Y-25205000D03*
X105035000Y-31555000D03*
X98685000Y-25205000D03*
X98685000Y-31555000D03*
%TD*%
D12*
%TO.P,J12,1,In*%
%TO.N,/90Bend_2*%
X101860000Y-150580000D03*
D11*
%TO.P,J12,2,Ext*%
%TO.N,GND*%
X105035000Y-147405000D03*
X105035000Y-153755000D03*
X98685000Y-147405000D03*
X98685000Y-153755000D03*
%TD*%
D13*
%TO.N,/User_Area*%
X240000000Y-145000000D02*
X240000000Y-150980000D01*
D14*
X240000000Y-35380000D02*
X240000000Y-145000000D01*
D13*
X240000000Y-28600000D02*
X240000000Y-35380000D01*
%TO.N,/90Bend_1*%
X69400000Y-28400000D02*
X69400000Y-36110000D01*
D14*
X69400000Y-56000000D02*
X69400000Y-36110000D01*
D13*
X69400000Y-128640000D02*
X69400000Y-150780000D01*
X69415000Y-128625000D02*
X69400000Y-128640000D01*
D14*
%TO.N,/Induct_Notch*%
X123080000Y-98210000D02*
X123080000Y-144230000D01*
X123070000Y-98200000D02*
X123080000Y-98210000D01*
%TO.N,/90Bend_2*%
X102000000Y-60200000D02*
X102000000Y-36600000D01*
X79800000Y-60200000D02*
X102000000Y-60200000D01*
X79800000Y-107400000D02*
X79800000Y-60200000D01*
X101800000Y-107400000D02*
X79800000Y-107400000D01*
X101800000Y-143400000D02*
X101800000Y-107400000D01*
D13*
X101800000Y-143400000D02*
X101800000Y-150780000D01*
%TO.N,/1G_BPF*%
X176940000Y-28390000D02*
X176940000Y-35170000D01*
D14*
X176940000Y-35170000D02*
X176940000Y-144790000D01*
D13*
X176940000Y-144790000D02*
X176940000Y-150770000D01*
%TO.N,/Cap_bulge*%
X144980000Y-28130000D02*
X144980000Y-34910000D01*
D14*
X144980000Y-34910000D02*
X144980000Y-144530000D01*
D13*
X144980000Y-144530000D02*
X144980000Y-150510000D01*
%TO.N,/Induct_Notch*%
X123160000Y-28200000D02*
X123160000Y-34980000D01*
X123160000Y-144600000D02*
X123160000Y-150580000D01*
%TO.N,/90Bend_2*%
X101800000Y-28400000D02*
X101800000Y-35180000D01*
%TO.N,/50ohm*%
X31800000Y-145020000D02*
X31800000Y-151000000D01*
D14*
X31800000Y-35400000D02*
X31800000Y-145020000D01*
D13*
X31800000Y-28620000D02*
X31800000Y-35400000D01*
D14*
%TO.N,/Induct_Notch*%
X123170000Y-34990000D02*
X123170000Y-75360000D01*
X123160000Y-34980000D02*
X123170000Y-34990000D01*
%TD*%
M02*
